{
.appVersion = "1141";
classes = (
{
automatic = 1;

glyphs = (
{
glyphname = A;
layers = (
{
anchors = (
{
name = bottom;
position = "{339, 0}";
},
{
name = ogonek;
position = "{622, 10}";
},
{
name = top;
position = "{339, 694}";
}
);
layerId = "F333AEC5-BB61-4D5E-9EDD-6124322D28F2";
paths = (
{
closed = 1;
nodes = (
"119 0 LINE",
"346 636 LINE",
"337 636 LINE",
"551 0 LINE",
"644 0 LINE",
"400 694 LINE",
"292 694 LINE",
"32 0 LINE"
);
},
{
closed = 1;
nodes = (
"510 206 LINE",
"510 278 LINE",
"163 278 LINE",
"163 206 LINE"
);
}
);
width = 677;
},
{
anchors = (
{
name = bottom;
position = "{353, 0}";
},
{
name = ogonek;
position = "{659, 10}";
},
{
name = top;
position = "{353, 694}";
}
);
layerId = "51C2DFEF-3776-4D13-9284-96485B799B57";
paths = (
{
closed = 1;
nodes = (
"186 0 LINE",
"370 620 LINE",
"322 620 LINE",
"515 0 LINE",
"706 0 LINE",
"469 694 LINE",
"248 694 LINE",
"1 0 LINE"
);
},
{
closed = 1;
nodes = (
"512 143 LINE",
"476 299 LINE",
"229 299 LINE",
"194 143 LINE"
);
}
);
width = 708;
},
{
anchors = (
{
name = bottom;
position = "{323, 0}";
},
{
name = ogonek;
position = "{583, 10}";
},
{
name = top;
position = "{326, 694}";
}
);
layerId = "0B2E441B-685E-400D-9B9B-E078DEED62EF";
paths = (
{
closed = 1;
nodes = (
"66 0 LINE",
"326 676 LINE",
"322 676 LINE",
"565 0 LINE",
"589 0 LINE",
"337 694 LINE",
"314 694 LINE",
"44 0 LINE"
);
},
{
closed = 1;
nodes = (
"489 249 LINE",
"483 268 LINE",
"157 268 LINE",
"152 249 LINE"
);
}
);
width = 634;
}
);
note = A;
unicode = 0041;
},
{
glyphname = AE;
layers = (
{
anchors = (
{
name = bottom;
position = "{530, 0}";
},
{
name = top;
position = "{530, 694}";
}
);
layerId = "F333AEC5-BB61-4D5E-9EDD-6124322D28F2";
paths = (
{
closed = 1;
nodes = (
"126 0 LINE",
"540 694 LINE",
"457 694 LINE",
"34 0 LINE"
);
},
{
closed = 1;
nodes = (
"530 202 LINE",
"530 282 LINE",
"254 282 LINE",
"254 202 LINE"
);
},
{
closed = 1;
nodes = (
"564 0 LINE",
"564 694 LINE",
"481 694 LINE",
"481 0 LINE"
);
},
{
closed = 1;
nodes = (
"917 0 LINE",
"917 72 LINE",
"521 72 LINE",
"521 0 LINE"
);
},
{
closed = 1;
nodes = (
"890 323 LINE",
"890 395 LINE",
"521 395 LINE",
"521 323 LINE"
);
},
{
closed = 1;
nodes = (
"917 622 LINE",
"917 694 LINE",
"521 694 LINE",
"521 622 LINE"
);
}
);
width = 977;
},
{
anchors = (
{
name = bottom;
position = "{548, 0}";
},
{
name = top;
position = "{548, 694}";
}
);
layerId = "51C2DFEF-3776-4D13-9284-96485B799B57";
paths = (
{
closed = 1;
nodes = (
"186 0 LINE",
"576 694 LINE",
"413 694 LINE",
"-4 0 LINE"
);
},
{
closed = 1;
nodes = (
"520 149 LINE",
"520 305 LINE",
"202 305 LINE",
"202 149 LINE"
);
},
{
closed = 1;
nodes = (
"653 0 LINE",
"653 694 LINE",
"480 694 LINE",
"480 0 LINE"
);
},
{
closed = 1;
nodes = (
"978 0 LINE",
"978 152 LINE",
"560 152 LINE",
"560 0 LINE"
);
},
{
closed = 1;
nodes = (
"950 278 LINE",
"950 430 LINE",
"560 430 LINE",
"560 278 LINE"
);
},
{
closed = 1;
nodes = (
"978 542 LINE",
"978 694 LINE",
"560 694 LINE",
"560 542 LINE"
);
}
);
width = 1023;
},
{
anchors = (
{
name = bottom;
position = "{500, 0}";
},
{
name = top;
position = "{500, 694}";
}
);
layerId = "0B2E441B-685E-400D-9B9B-E078DEED62EF";
paths = (
{
closed = 1;
nodes = (
"74 0 LINE",
"493 694 LINE",
"474 694 LINE",
"51 0 LINE"
);
},
{
closed = 1;
nodes = (
"488 243 LINE",
"489 262 LINE",
"219 262 LINE",
"210 243 LINE"
);
},
{
closed = 1;
nodes = (
"499 0 LINE",
"499 694 LINE",
"478 694 LINE",
"478 0 LINE"
);
},
{
closed = 1;
nodes = (
"865 0 LINE",
"865 18 LINE",
"487 18 LINE",
"487 0 LINE"
);
},
{
closed = 1;
nodes = (
"840 351 LINE",
"840 369 LINE",
"487 369 LINE",
"487 351 LINE"
);
},
{
closed = 1;
nodes = (
"865 676 LINE",
"865 694 LINE",
"487 694 LINE",
"487 676 LINE"
);
}
);
width = 914;
}
);
rightMetricsKey = E;
unicode = 00C6;
},
{
glyphname = B;
layers = (
{
anchors = (
{
name = bottom;
position = "{326, 0}";
},
{
name = top;
position = "{326, 694}";
}
);
layerId = "F333AEC5-BB61-4D5E-9EDD-6124322D28F2";
paths = (
{
closed = 1;
nodes = (
"346 0 LINE SMOOTH",
"506 0 OFFCURVE",
"600 75 OFFCURVE",
"600 202 CURVE SMOOTH",
"600 319 OFFCURVE",
"512 396 OFFCURVE",
"379 396 CURVE SMOOTH",
"153 396 LINE",
"153 327 LINE",
"370 327 LINE SMOOTH",
"458 327 OFFCURVE",
"515 271 OFFCURVE",
"515 185 CURVE SMOOTH",
"515 105 OFFCURVE",
"467 71 OFFCURVE",
"356 71 CURVE SMOOTH",
"187 71 LINE",
"187 623 LINE",
"305 623 LINE SMOOTH",
"411 623 OFFCURVE",
"463 584 OFFCURVE",
"463 505 CURVE SMOOTH",
"463 444 OFFCURVE",
"429 409 OFFCURVE",
"337 375 CURVE",
"457 375 LINE",
"512 399 OFFCURVE",
"548 460 OFFCURVE",
"548 527 CURVE SMOOTH",
"548 633 OFFCURVE",
"463 694 OFFCURVE",
"315 694 CURVE SMOOTH",
"104 694 LINE",
"104 0 LINE"
);
}
);
width = 656;
},
{
anchors = (
{
name = bottom;
position = "{318, 0}";
},
{
name = top;
position = "{318, 694}";
}
);
layerId = "51C2DFEF-3776-4D13-9284-96485B799B57";
paths = (
{
closed = 1;
nodes = (
"343 0 LINE SMOOTH",
"518 0 OFFCURVE",
"634 91 OFFCURVE",
"634 227 CURVE SMOOTH",
"634 350 OFFCURVE",
"545 424 OFFCURVE",
"394 424 CURVE SMOOTH",
"180 424 LINE",
"180 292 LINE",
"356 292 LINE SMOOTH",
"418 292 OFFCURVE",
"454 260 OFFCURVE",
"454 210 CURVE SMOOTH",
"454 161 OFFCURVE",
"424 136 OFFCURVE",
"366 136 CURVE SMOOTH",
"237 136 LINE",
"237 558 LINE",
"305 558 LINE SMOOTH",
"363 558 OFFCURVE",
"401 530 OFFCURVE",
"401 488 CURVE SMOOTH",
"401 450 OFFCURVE",
"370 418 OFFCURVE",
"314 401 CURVE",
"448 374 LINE",
"525 394 OFFCURVE",
"575 457 OFFCURVE",
"575 531 CURVE SMOOTH",
"575 638 OFFCURVE",
"486 694 OFFCURVE",
"315 694 CURVE SMOOTH",
"67 694 LINE",
"67 0 LINE"
);
}
);
width = 652;
},
{
anchors = (
{
name = bottom;
position = "{267, 0}";
},
{
name = top;
position = "{267, 694}";
}
);
layerId = "0B2E441B-685E-400D-9B9B-E078DEED62EF";
paths = (
{
closed = 1;
nodes = (
"319 0 LINE SMOOTH",
"473 0 OFFCURVE",
"557 68 OFFCURVE",
"557 185 CURVE SMOOTH",
"557 300 OFFCURVE",
"475 373 OFFCURVE",
"353 373 CURVE SMOOTH",
"124 373 LINE",
"124 356 LINE",
"343 356 LINE SMOOTH",
"462 356 OFFCURVE",
"535 288 OFFCURVE",
"535 181 CURVE SMOOTH",
"535 75 OFFCURVE",
"464 18 OFFCURVE",
"330 18 CURVE SMOOTH",
"130 18 LINE",
"130 676 LINE",
"286 676 LINE SMOOTH",
"414 676 OFFCURVE",
"484 622 OFFCURVE",
"484 521 CURVE SMOOTH",
"484 442 OFFCURVE",
"441 388 OFFCURVE",
"357 369 CURVE",
"383 365 LINE",
"457 379 OFFCURVE",
"506 444 OFFCURVE",
"506 528 CURVE SMOOTH",
"506 635 OFFCURVE",
"427 694 OFFCURVE",
"286 694 CURVE SMOOTH",
"110 694 LINE",
"110 0 LINE"
);
}
);
width = 619;
}
);
note = B;
unicode = 0042;
},
{
glyphname = C;
layers = (
{
anchors = (
{
name = bottom;
position = "{374, 0}";
},
{
name = top;
position = "{374, 694}";
}
);
background = {
components = (
{
name = O;
transform = "{1, 0, 0, 1, -7, 0}";
}
);
};
layerId = "F333AEC5-BB61-4D5E-9EDD-6124322D28F2";
paths = (
{
closed = 1;
nodes = (
"470 -10 OFFCURVE",
"540 5 OFFCURVE",
"606 34 CURVE",
"587 95 LINE",
"537 75 OFFCURVE",
"475 63 OFFCURVE",
"422 63 CURVE SMOOTH",
"256 63 OFFCURVE",
"146 181 OFFCURVE",
"146 358 CURVE SMOOTH",
"146 527 OFFCURVE",
"247 630 OFFCURVE",
"414 630 CURVE SMOOTH",
"470 630 OFFCURVE",
"533 618 OFFCURVE",
"586 598 CURVE",
"610 660 LINE",
"559 687 OFFCURVE",
"487 703 OFFCURVE",
"419 703 CURVE SMOOTH",
"204 703 OFFCURVE",
"61 557 OFFCURVE",
"61 339 CURVE SMOOTH",
"61 130 OFFCURVE",
"198 -10 OFFCURVE",
"403 -10 CURVE SMOOTH"
);
}
);
width = 653;
},
{
anchors = (
{
name = bottom;
position = "{349, 0}";
},
{
name = top;
position = "{349, 694}";
}
);
background = {
components = (
{
name = O;
transform = "{1, 0, 0, 1, -13, 0}";
}
);
};
layerId = "51C2DFEF-3776-4D13-9284-96485B799B57";
paths = (
{
closed = 1;
nodes = (
"459 -10 OFFCURVE",
"545 10 OFFCURVE",
"598 39 CURVE",
"560 164 LINE",
"520 150 OFFCURVE",
"469 142 OFFCURVE",
"425 142 CURVE SMOOTH",
"285 142 OFFCURVE",
"205 224 OFFCURVE",
"205 359 CURVE SMOOTH",
"205 486 OFFCURVE",
"276 551 OFFCURVE",
"403 551 CURVE SMOOTH",
"458 551 OFFCURVE",
"521 541 OFFCURVE",
"559 525 CURVE",
"607 661 LINE",
"540 690 OFFCURVE",
"475 704 OFFCURVE",
"405 704 CURVE SMOOTH",
"181 704 OFFCURVE",
"25 560 OFFCURVE",
"25 342 CURVE SMOOTH",
"25 131 OFFCURVE",
"171 -10 OFFCURVE",
"383 -10 CURVE SMOOTH"
);
}
);
width = 624;
},
{
anchors = (
{
name = bottom;
position = "{359, 0}";
},
{
name = top;
position = "{359, 694}";
}
);
layerId = "0B2E441B-685E-400D-9B9B-E078DEED62EF";
paths = (
{
closed = 1;
nodes = (
"461 -10 OFFCURVE",
"535 6 OFFCURVE",
"596 33 CURVE",
"591 49 LINE",
"531 24 OFFCURVE",
"459 9 OFFCURVE",
"399 9 CURVE SMOOTH",
"216 9 OFFCURVE",
"92 145 OFFCURVE",
"92 348 CURVE SMOOTH",
"92 549 OFFCURVE",
"219 683 OFFCURVE",
"409 683 CURVE SMOOTH",
"469 683 OFFCURVE",
"532 670 OFFCURVE",
"590 645 CURVE",
"597 662 LINE",
"539 689 OFFCURVE",
"476 702 OFFCURVE",
"412 702 CURVE SMOOTH",
"207 702 OFFCURVE",
"70 556 OFFCURVE",
"70 338 CURVE SMOOTH",
"70 129 OFFCURVE",
"201 -10 OFFCURVE",
"395 -10 CURVE SMOOTH"
);
}
);
width = 646;
}
);
note = C;
unicode = 0043;
},
{
glyphname = D;
layers = (
{
anchors = (
{
name = bottom;
position = "{334, 0}";
},
{
name = center;
position = "{171, 347}";
},
{
name = top;
position = "{334, 694}";
}
);
layerId = "F333AEC5-BB61-4D5E-9EDD-6124322D28F2";
paths = (
{
closed = 1;
nodes = (
"316 0 LINE SMOOTH",
"526 0 OFFCURVE",
"669 137 OFFCURVE",
"669 360 CURVE SMOOTH",
"669 570 OFFCURVE",
"543 694 OFFCURVE",
"331 694 CURVE SMOOTH",
"104 694 LINE",
"104 0 LINE"
);
},
{
closed = 1;
nodes = (
"187 622 LINE",
"321 622 LINE SMOOTH",
"490 622 OFFCURVE",
"584 523 OFFCURVE",
"584 347 CURVE SMOOTH",
"584 172 OFFCURVE",
"491 72 OFFCURVE",
"326 72 CURVE SMOOTH",
"187 72 LINE"
);
}
);
width = 733;
},
{
anchors = (
{
name = bottom;
position = "{358, 0}";
},
{
name = center;
position = "{176, 344}";
},
{
name = top;
position = "{335, 694}";
}
);
layerId = "51C2DFEF-3776-4D13-9284-96485B799B57";
paths = (
{
closed = 1;
nodes = (
"314 0 LINE SMOOTH",
"552 0 OFFCURVE",
"709 143 OFFCURVE",
"709 361 CURVE SMOOTH",
"709 570 OFFCURVE",
"567 694 OFFCURVE",
"327 694 CURVE SMOOTH",
"67 694 LINE",
"67 0 LINE"
);
},
{
closed = 1;
nodes = (
"237 545 LINE",
"317 545 LINE SMOOTH",
"450 545 OFFCURVE",
"529 469 OFFCURVE",
"529 341 CURVE SMOOTH",
"529 217 OFFCURVE",
"460 149 OFFCURVE",
"334 149 CURVE SMOOTH",
"237 149 LINE"
);
}
);
width = 734;
},
{
anchors = (
{
name = bottom;
position = "{340, 0}";
},
{
name = center;
position = "{173, 364}";
},
{
name = top;
position = "{330, 694}";
}
);
layerId = "0B2E441B-685E-400D-9B9B-E078DEED62EF";
paths = (
{
closed = 1;
nodes = (
"273 0 LINE SMOOTH",
"491 0 OFFCURVE",
"621 131 OFFCURVE",
"621 353 CURVE SMOOTH",
"621 573 OFFCURVE",
"500 694 OFFCURVE",
"279 694 CURVE SMOOTH",
"110 694 LINE",
"110 0 LINE"
);
},
{
closed = 1;
nodes = (
"132 676 LINE",
"273 676 LINE SMOOTH",
"487 676 OFFCURVE",
"599 564 OFFCURVE",
"599 348 CURVE SMOOTH",
"599 138 OFFCURVE",
"483 18 OFFCURVE",
"279 18 CURVE SMOOTH",
"132 18 LINE"
);
}
);
width = 692;
}
);
note = D;
unicode = 0044;
},
{
glyphname = E;
layers = (
{
anchors = (
{
name = bottom;
position = "{313, 0}";
},
{
name = ogonek;
position = "{518, 10}";
},
{
name = top;
position = "{333, 694}";
},
{
name = topleft;
position = "{15, 694}";
}
);
layerId = "F333AEC5-BB61-4D5E-9EDD-6124322D28F2";
paths = (
{
closed = 1;
nodes = (
"187 0 LINE",
"187 694 LINE",
"104 694 LINE",
"104 0 LINE"
);
},
{
closed = 1;
nodes = (
"540 0 LINE",
"540 72 LINE",
"144 72 LINE",
"144 0 LINE"
);
},
{
closed = 1;
nodes = (
"513 323 LINE",
"513 395 LINE",
"144 395 LINE",
"144 323 LINE"
);
},
{
closed = 1;
nodes = (
"540 622 LINE",
"540 694 LINE",
"144 694 LINE",
"144 622 LINE"
);
}
);
width = 600;
},
{
anchors = (
{
name = bottom;
position = "{320, 0}";
},
{
name = ogonek;
position = "{518, 10}";
},
{
name = top;
position = "{313, 694}";
},
{
name = topleft;
position = "{15, 694}";
}
);
layerId = "51C2DFEF-3776-4D13-9284-96485B799B57";
paths = (
{
closed = 1;
nodes = (
"240 0 LINE",
"240 694 LINE",
"67 694 LINE",
"67 0 LINE"
);
},
{
closed = 1;
nodes = (
"565 0 LINE",
"565 152 LINE",
"147 152 LINE",
"147 0 LINE"
);
},
{
closed = 1;
nodes = (
"537 276 LINE",
"537 428 LINE",
"147 428 LINE",
"147 276 LINE"
);
},
{
closed = 1;
nodes = (
"565 542 LINE",
"565 694 LINE",
"147 694 LINE",
"147 542 LINE"
);
}
);
width = 610;
},
{
anchors = (
{
name = bottom;
position = "{304, 0}";
},
{
name = ogonek;
position = "{498, 10}";
},
{
name = top;
position = "{303, 694}";
},
{
name = topleft;
position = "{-7, 694}";
}
);
layerId = "0B2E441B-685E-400D-9B9B-E078DEED62EF";
paths = (
{
closed = 1;
nodes = (
"131 0 LINE",
"131 694 LINE",
"110 694 LINE",
"110 0 LINE"
);
},
{
closed = 1;
nodes = (
"504 0 LINE",
"504 18 LINE",
"119 18 LINE",
"119 0 LINE"
);
},
{
closed = 1;
nodes = (
"477 355 LINE",
"477 373 LINE",
"119 373 LINE",
"119 355 LINE"
);
},
{
closed = 1;
nodes = (
"504 676 LINE",
"504 694 LINE",
"119 694 LINE",
"119 676 LINE"
);
}
);
width = 553;
}
);
note = E;
unicode = 0045;
},
{
glyphname = F;
layers = (
{
anchors = (
{
name = bottom;
position = "{271, 0}";
},
{
name = top;
position = "{271, 694}";
}
);
layerId = "F333AEC5-BB61-4D5E-9EDD-6124322D28F2";
paths = (
{
closed = 1;
nodes = (
"187 0 LINE",
"187 694 LINE",
"104 694 LINE",
"104 0 LINE"
);
},
{
closed = 1;
nodes = (
"506 322 LINE",
"506 394 LINE",
"136 394 LINE",
"136 322 LINE"
);
},
{
closed = 1;
nodes = (
"535 622 LINE",
"535 694 LINE",
"136 694 LINE",
"136 622 LINE"
);
}
);
width = 582;
},
{
anchors = (
{
name = bottom;
position = "{171, 0}";
},
{
name = top;
position = "{278, 694}";
}
);
layerId = "51C2DFEF-3776-4D13-9284-96485B799B57";
paths = (
{
closed = 1;
nodes = (
"243 0 LINE",
"243 694 LINE",
"67 694 LINE",
"67 0 LINE"
);
},
{
closed = 1;
nodes = (
"526 257 LINE",
"526 409 LINE",
"147 409 LINE",
"147 257 LINE"
);
},
{
closed = 1;
nodes = (
"562 542 LINE",
"562 694 LINE",
"147 694 LINE",
"147 542 LINE"
);
}
);
width = 583;
},
{
anchors = (
{
name = bottom;
position = "{270, 0}";
},
{
name = top;
position = "{270, 694}";
}
);
layerId = "0B2E441B-685E-400D-9B9B-E078DEED62EF";
paths = (
{
closed = 1;
nodes = (
"132 0 LINE",
"132 694 LINE",
"110 694 LINE",
"110 0 LINE"
);
},
{
closed = 1;
nodes = (
"473 366 LINE",
"473 384 LINE",
"119 384 LINE",
"119 366 LINE"
);
},
{
closed = 1;
nodes = (
"497 676 LINE",
"497 694 LINE",
"119 694 LINE",
"119 676 LINE"
);
}
);
width = 541;
}
);
note = F;
unicode = 0046;
},
{
glyphname = G;
layers = (
{
anchors = (
{
name = bottom;
position = "{403, 0}";
},
{
name = top;
position = "{403, 694}";
}
);
layerId = "F333AEC5-BB61-4D5E-9EDD-6124322D28F2";
paths = (
{
closed = 1;
nodes = (
"508 -9 OFFCURVE",
"595 19 OFFCURVE",
"665 74 CURVE",
"665 368 LINE",
"385 368 LINE",
"385 296 LINE",
"582 296 LINE",
"582 71 LINE",
"601 112 LINE",
"547 81 OFFCURVE",
"486 64 OFFCURVE",
"424 64 CURVE SMOOTH",
"257 64 OFFCURVE",
"149 179 OFFCURVE",
"149 357 CURVE SMOOTH",
"149 530 OFFCURVE",
"248 630 OFFCURVE",
"417 630 CURVE SMOOTH",
"480 630 OFFCURVE",
"553 616 OFFCURVE",
"614 593 CURVE",
"638 657 LINE",
"577 687 OFFCURVE",
"504 703 OFFCURVE",
"428 703 CURVE SMOOTH",
"209 703 OFFCURVE",
"64 560 OFFCURVE",
"64 342 CURVE SMOOTH",
"64 130 OFFCURVE",
"202 -9 OFFCURVE",
"412 -9 CURVE SMOOTH"
);
}
);
width = 739;
},
{
anchors = (
{
name = bottom;
position = "{351, 0}";
},
{
name = top;
position = "{371, 694}";
}
);
layerId = "51C2DFEF-3776-4D13-9284-96485B799B57";
paths = (
{
closed = 1;
nodes = (
"499 -10 OFFCURVE",
"593 23 OFFCURVE",
"671 89 CURVE",
"671 411 LINE",
"359 411 LINE",
"359 265 LINE",
"506 265 LINE",
"506 79 LINE",
"532 180 LINE",
"509 155 OFFCURVE",
"465 140 OFFCURVE",
"410 140 CURVE SMOOTH",
"285 140 OFFCURVE",
"207 221 OFFCURVE",
"207 353 CURVE SMOOTH",
"207 482 OFFCURVE",
"282 551 OFFCURVE",
"423 551 CURVE SMOOTH",
"482 551 OFFCURVE",
"551 540 OFFCURVE",
"597 524 CURVE",
"645 660 LINE",
"586 688 OFFCURVE",
"507 704 OFFCURVE",
"428 704 CURVE SMOOTH",
"182 704 OFFCURVE",
"25 556 OFFCURVE",
"25 339 CURVE SMOOTH",
"25 130 OFFCURVE",
"171 -10 OFFCURVE",
"389 -10 CURVE SMOOTH"
);
}
);
width = 712;
},
{
anchors = (
{
name = bottom;
position = "{351, 0}";
},
{
name = top;
position = "{369, 694}";
}
);
layerId = "0B2E441B-685E-400D-9B9B-E078DEED62EF";
paths = (
{
closed = 1;
nodes = (
"486 -10 OFFCURVE",
"583 19 OFFCURVE",
"640 60 CURVE",
"640 338 LINE",
"383 338 LINE",
"383 319 LINE",
"618 319 LINE",
"618 57 LINE",
"623 69 LINE",
"560 32 OFFCURVE",
"473 9 OFFCURVE",
"400 9 CURVE SMOOTH",
"215 9 OFFCURVE",
"94 143 OFFCURVE",
"94 348 CURVE SMOOTH",
"94 554 OFFCURVE",
"216 680 OFFCURVE",
"413 680 CURVE SMOOTH",
"482 680 OFFCURVE",
"555 664 OFFCURVE",
"605 634 CURVE",
"612 651 LINE",
"558 683 OFFCURVE",
"489 699 OFFCURVE",
"416 699 CURVE SMOOTH",
"203 699 OFFCURVE",
"71 564 OFFCURVE",
"71 345 CURVE SMOOTH",
"71 130 OFFCURVE",
"200 -10 OFFCURVE",
"397 -10 CURVE SMOOTH"
);
}
);
width = 716;
}
);
note = G;
unicode = 0047;
},
{
glyphname = H;
layers = (
{
anchors = (
{
name = bottom;
position = "{373, 0}";
},
{
name = center;
position = "{373, 539}";
},
{
name = top;
position = "{373, 694}";
},
{
name = topleft;
position = "{15, 694}";
}
);
background = {
components = (
{
name = O;
transform = "{1, 0, 0, 1, -20, 0}";
}
);
};
layerId = "F333AEC5-BB61-4D5E-9EDD-6124322D28F2";
paths = (
{
closed = 1;
nodes = (
"641 0 LINE",
"641 694 LINE",
"558 694 LINE",
"558 0 LINE"
);
},
{
closed = 1;
nodes = (
"187 0 LINE",
"187 694 LINE",
"104 694 LINE",
"104 0 LINE"
);
},
{
closed = 1;
nodes = (
"606 323 LINE",
"606 395 LINE",
"136 395 LINE",
"136 323 LINE"
);
}
);
width = 745;
},
{
anchors = (
{
name = bottom;
position = "{377, 0}";
},
{
name = center;
position = "{377, 566}";
},
{
name = top;
position = "{377, 694}";
},
{
name = topleft;
position = "{7, 694}";
}
);
background = {
components = (
{
name = O;
transform = "{1, 0, 0, 1, -19, 0}";
}
);
};
layerId = "51C2DFEF-3776-4D13-9284-96485B799B57";
paths = (
{
closed = 1;
nodes = (
"688 0 LINE",
"688 694 LINE",
"512 694 LINE",
"512 0 LINE"
);
},
{
closed = 1;
nodes = (
"243 0 LINE",
"243 694 LINE",
"67 694 LINE",
"67 0 LINE"
);
},
{
closed = 1;
nodes = (
"532 274 LINE",
"532 430 LINE",
"222 430 LINE",
"222 274 LINE"
);
}
);
width = 755;
},
{
anchors = (
{
name = bottom;
position = "{353, 0}";
},
{
name = center;
position = "{353, 534}";
},
{
name = top;
position = "{353, 694}";
},
{
name = topleft;
position = "{2, 694}";
}
);
background = {
components = (
{
name = O;
transform = "{1, 0, 0, 1, -38, 0}";
}
);
};
layerId = "0B2E441B-685E-400D-9B9B-E078DEED62EF";
paths = (
{
closed = 1;
nodes = (
"592 0 LINE",
"592 694 LINE",
"570 694 LINE",
"570 0 LINE"
);
},
{
closed = 1;
nodes = (
"132 0 LINE",
"132 694 LINE",
"110 694 LINE",
"110 0 LINE"
);
},
{
closed = 1;
nodes = (
"576 352 LINE",
"576 371 LINE",
"125 371 LINE",
"125 352 LINE"
);
}
);
width = 702;
}
);
note = H;
unicode = 0048;
},
{
glyphname = I;
layers = (
{
anchors = (
{
name = bottom;
position = "{146, 0}";
},
{
name = ogonek;
position = "{165, 10}";
},
{
name = top;
position = "{146, 694}";
},
{
name = topleft;
position = "{15, 694}";
}
);
layerId = "F333AEC5-BB61-4D5E-9EDD-6124322D28F2";
paths = (
{
closed = 1;
nodes = (
"187 0 LINE",
"187 694 LINE",
"104 694 LINE",
"104 0 LINE"
);
}
);
width = 291;
},
{
anchors = (
{
name = bottom;
position = "{155, 0}";
},
{
name = ogonek;
position = "{196, 10}";
},
{
name = top;
position = "{155, 694}";
},
{
name = topleft;
position = "{24, 694}";
}
);
layerId = "51C2DFEF-3776-4D13-9284-96485B799B57";
paths = (
{
closed = 1;
nodes = (
"243 0 LINE",
"243 694 LINE",
"67 694 LINE",
"67 0 LINE"
);
}
);
width = 310;
},
{
anchors = (
{
name = bottom;
position = "{121, 0}";
},
{
name = ogonek;
position = "{125, 10}";
},
{
name = top;
position = "{121, 694}";
},
{
name = topleft;
position = "{-6, 694}";
}
);
layerId = "0B2E441B-685E-400D-9B9B-E078DEED62EF";
paths = (
{
closed = 1;
nodes = (
"131 0 LINE",
"131 694 LINE",
"110 694 LINE",
"110 0 LINE"
);
}
);
width = 241;
}
);
note = I;
unicode = 0049;
},
{
glyphname = J;
layers = (
{
anchors = (
{
name = bottom;
position = "{228, 0}";
},
{
name = top;
position = "{303, 694}";
}
);
layerId = "F333AEC5-BB61-4D5E-9EDD-6124322D28F2";
paths = (
{
closed = 1;
nodes = (
"279 -10 OFFCURVE",
"346 65 OFFCURVE",
"346 200 CURVE SMOOTH",
"346 694 LINE",
"263 694 LINE",
"263 191 LINE SMOOTH",
"263 109 OFFCURVE",
"226 63 OFFCURVE",
"159 63 CURVE SMOOTH",
"129 63 OFFCURVE",
"89 72 OFFCURVE",
"61 86 CURVE",
"37 24 LINE",
"77 0 OFFCURVE",
"119 -10 OFFCURVE",
"161 -10 CURVE SMOOTH"
);
}
);
width = 443;
},
{
anchors = (
{
name = bottom;
position = "{234, 0}";
},
{
name = top;
position = "{310, 694}";
}
);
layerId = "51C2DFEF-3776-4D13-9284-96485B799B57";
paths = (
{
closed = 1;
nodes = (
"311 -10 OFFCURVE",
"399 83 OFFCURVE",
"399 243 CURVE SMOOTH",
"399 694 LINE",
"225 694 LINE",
"225 233 LINE SMOOTH",
"225 173 OFFCURVE",
"197 143 OFFCURVE",
"142 143 CURVE SMOOTH",
"114 143 OFFCURVE",
"79 151 OFFCURVE",
"53 162 CURVE",
"4 26 LINE",
"48 2 OFFCURVE",
"101 -10 OFFCURVE",
"158 -10 CURVE SMOOTH"
);
}
);
width = 455;
},
{
anchors = (
{
name = bottom;
position = "{257, 0}";
},
{
name = top;
position = "{282, 694}";
}
);
layerId = "0B2E441B-685E-400D-9B9B-E078DEED62EF";
paths = (
{
closed = 1;
nodes = (
"237 -10 OFFCURVE",
"293 54 OFFCURVE",
"293 158 CURVE SMOOTH",
"293 694 LINE",
"272 694 LINE",
"272 154 LINE SMOOTH",
"272 63 OFFCURVE",
"226 9 OFFCURVE",
"149 9 CURVE SMOOTH",
"116 9 OFFCURVE",
"78 19 OFFCURVE",
"48 36 CURVE",
"40 19 LINE",
"69 1 OFFCURVE",
"108 -10 OFFCURVE",
"146 -10 CURVE SMOOTH"
);
}
);
width = 398;
}
);
note = J;
unicode = 004A;
},
{
glyphname = K;
layers = (
{
anchors = (
{
name = bottom;
position = "{318, 0}";
},
{
name = top;
position = "{318, 694}";
}
);
layerId = "F333AEC5-BB61-4D5E-9EDD-6124322D28F2";
paths = (
{
closed = 1;
nodes = (
"606 0 LINE",
"273 380 LINE",
"276 358 LINE",
"591 694 LINE",
"490 694 LINE",
"184 361 LINE",
"496 0 LINE"
);
},
{
closed = 1;
nodes = (
"187 0 LINE",
"187 694 LINE",
"104 694 LINE",
"104 0 LINE"
);
}
);
width = 627;
},
{
anchors = (
{
name = bottom;
position = "{338, 0}";
},
{
name = top;
position = "{338, 694}";
}
);
layerId = "51C2DFEF-3776-4D13-9284-96485B799B57";
paths = (
{
closed = 1;
nodes = (
"698 0 LINE",
"431 394 LINE",
"434 360 LINE",
"682 694 LINE",
"473 694 LINE",
"233 363 LINE",
"466 0 LINE"
);
},
{
closed = 1;
nodes = (
"246 0 LINE",
"246 694 LINE",
"68 694 LINE",
"68 0 LINE"
);
}
);
width = 686;
},
{
anchors = (
{
name = bottom;
position = "{283, 0}";
},
{
name = top;
position = "{283, 694}";
}
);
layerId = "0B2E441B-685E-400D-9B9B-E078DEED62EF";
paths = (
{
closed = 1;
nodes = (
"527 0 LINE",
"151 366 LINE",
"151 356 LINE",
"513 694 LINE",
"484 694 LINE",
"132 360 LINE",
"497 0 LINE"
);
},
{
closed = 1;
nodes = (
"130 0 LINE",
"130 694 LINE",
"110 694 LINE",
"110 0 LINE"
);
}
);
width = 552;
}
);
note = K;
unicode = 004B;
},
{
glyphname = L;
layers = (
{
anchors = (
{
name = bottom;
position = "{302, 0}";
},
{
name = center;
position = "{172, 347}";
},
{
name = periodcentered;
position = "{543, 352}";
},
{
name = top;
position = "{147, 694}";
},
{
name = topright;
position = "{311, 482}";
}
);
layerId = "F333AEC5-BB61-4D5E-9EDD-6124322D28F2";
paths = (
{
closed = 1;
nodes = (
"498 0 LINE",
"498 74 LINE",
"187 74 LINE",
"187 694 LINE",
"104 694 LINE",
"104 0 LINE"
);
}
);
width = 537;
},
{
anchors = (
{
name = bottom;
position = "{268, 0}";
},
{
name = center;
position = "{166, 377}";
},
{
name = periodcentered;
position = "{537, 352}";
},
{
name = top;
position = "{152, 694}";
},
{
name = topright;
position = "{367, 490}";
}
);
layerId = "51C2DFEF-3776-4D13-9284-96485B799B57";
paths = (
{
closed = 1;
nodes = (
"527 0 LINE",
"527 153 LINE",
"240 153 LINE",
"240 694 LINE",
"67 694 LINE",
"67 0 LINE"
);
}
);
width = 537;
},
{
anchors = (
{
name = bottom;
position = "{286, 0}";
},
{
name = center;
position = "{162, 367}";
},
{
name = periodcentered;
position = "{502, 352}";
},
{
name = top;
position = "{122, 694}";
},
{
name = topright;
position = "{251, 480}";
}
);
layerId = "0B2E441B-685E-400D-9B9B-E078DEED62EF";
paths = (
{
closed = 1;
nodes = (
"456 0 LINE",
"456 19 LINE",
"131 19 LINE",
"131 694 LINE",
"110 694 LINE",
"110 0 LINE"
);
}
);
width = 495;
}
);
note = L;
unicode = 004C;
},
{
glyphname = M;
layers = (
{
anchors = (
{
name = bottom;
position = "{442, 0}";
},
{
name = top;
position = "{442, 694}";
}
);
layerId = "F333AEC5-BB61-4D5E-9EDD-6124322D28F2";
paths = (
{
closed = 1;
nodes = (
"183 0 LINE",
"183 578 LINE",
"166 578 LINE",
"408 108 LINE",
"473 108 LINE",
"712 578 LINE",
"700 578 LINE",
"700 0 LINE",
"779 0 LINE",
"779 694 LINE",
"697 694 LINE",
"418 148 LINE",
"468 148 LINE",
"189 694 LINE",
"104 694 LINE",
"104 0 LINE"
);
}
);
width = 883;
},
{
anchors = (
{
name = bottom;
position = "{447, 0}";
},
{
name = top;
position = "{447, 694}";
}
);
layerId = "51C2DFEF-3776-4D13-9284-96485B799B57";
paths = (
{
closed = 1;
nodes = (
"235 0 LINE",
"235 458 LINE",
"214 431 LINE",
"379 107 LINE",
"510 107 LINE",
"668 431 LINE",
"657 453 LINE",
"657 0 LINE",
"825 0 LINE",
"825 694 LINE",
"660 694 LINE",
"419 222 LINE",
"490 222 LINE",
"234 694 LINE",
"67 694 LINE",
"67 0 LINE"
);
}
);
width = 892;
},
{
anchors = (
{
name = bottom;
position = "{432, 0}";
},
{
name = top;
position = "{432, 694}";
}
);
layerId = "0B2E441B-685E-400D-9B9B-E078DEED62EF";
paths = (
{
closed = 1;
nodes = (
"131 0 LINE",
"131 677 LINE",
"124 677 LINE",
"404 108 LINE",
"424 108 LINE",
"711 676 LINE",
"704 676 LINE",
"704 0 LINE",
"725 0 LINE",
"725 694 LINE",
"699 694 LINE",
"410 118 LINE",
"421 118 LINE",
"138 694 LINE",
"110 694 LINE",
"110 0 LINE"
);
}
);
width = 835;
}
);
note = M;
unicode = 004D;
},
{
glyphname = N;
layers = (
{
anchors = (
{
name = bottom;
position = "{387, 0}";
},
{
name = top;
position = "{387, 694}";
}
);
layerId = "F333AEC5-BB61-4D5E-9EDD-6124322D28F2";
paths = (
{
closed = 1;
nodes = (
"182 0 LINE",
"182 605 LINE",
"167 605 LINE",
"578 0 LINE",
"670 0 LINE",
"670 694 LINE",
"592 694 LINE",
"592 87 LINE",
"608 87 LINE",
"199 694 LINE",
"104 694 LINE",
"104 0 LINE"
);
}
);
width = 774;
},
{
anchors = (
{
name = bottom;
position = "{389, 0}";
},
{
name = top;
position = "{389, 694}";
}
);
layerId = "51C2DFEF-3776-4D13-9284-96485B799B57";
paths = (
{
closed = 1;
nodes = (
"231 0 LINE",
"231 480 LINE",
"222 470 LINE",
"519 0 LINE",
"713 0 LINE",
"713 694 LINE",
"547 694 LINE",
"545 206 LINE",
"561 216 LINE",
"265 694 LINE",
"67 694 LINE",
"67 0 LINE"
);
}
);
width = 780;
},
{
anchors = (
{
name = bottom;
position = "{377, 0}";
},
{
name = top;
position = "{377, 694}";
}
);
layerId = "0B2E441B-685E-400D-9B9B-E078DEED62EF";
paths = (
{
closed = 1;
nodes = (
"130 0 LINE",
"130 674 LINE",
"129 674 LINE",
"595 0 LINE",
"622 0 LINE",
"622 694 LINE",
"602 694 LINE",
"602 20 LINE",
"605 20 LINE",
"139 694 LINE",
"110 694 LINE",
"110 0 LINE"
);
}
);
width = 732;
}
);
note = N;
unicode = 004E;
},
{
glyphname = Eng;
layers = (
{
layerId = "F333AEC5-BB61-4D5E-9EDD-6124322D28F2";
paths = (
{
closed = 1;
nodes = (
"182 0 LINE",
"182 605 LINE",
"165 605 LINE",
"599 -25 LINE",
"670 0 LINE",
"670 694 LINE",
"592 694 LINE",
"592 87 LINE",
"610 87 LINE",
"199 694 LINE",
"104 694 LINE",
"104 0 LINE"
);
},
{
closed = 1;
nodes = (
"621 -201 OFFCURVE",
"670 -117 OFFCURVE",
"670 -23 CURVE SMOOTH",
"670 0 LINE",
"590 0 LINE",
"590 -35 LINE SMOOTH",
"590 -102 OFFCURVE",
"562 -162 OFFCURVE",
"520 -186 CURVE",
"547 -234 LINE"
);
}
);
width = 774;
},
{
layerId = "51C2DFEF-3776-4D13-9284-96485B799B57";
paths = (
{
closed = 1;
nodes = (
"230 0 LINE",
"230 470 LINE",
"218 460 LINE",
"566 -37 LINE",
"718 0 LINE",
"718 694 LINE",
"555 694 LINE",
"553 216 LINE",
"574 219 LINE",
"259 694 LINE",
"67 694 LINE",
"67 0 LINE"
);
},
{
closed = 1;
nodes = (
"659 -213 OFFCURVE",
"718 -121 OFFCURVE",
"718 -13 CURVE SMOOTH",
"718 0 LINE",
"555 0 LINE",
"555 -25 LINE SMOOTH",
"555 -82 OFFCURVE",
"535 -127 OFFCURVE",
"500 -147 CURVE",
"555 -243 LINE"
);
}
);
width = 785;
},
{
layerId = "0B2E441B-685E-400D-9B9B-E078DEED62EF";
paths = (
{
closed = 1;
nodes = (
"130 0 LINE",
"130 674 LINE",
"128 674 LINE",
"599 -10 LINE",
"619 0 LINE",
"619 694 LINE",
"599 694 LINE",
"599 20 LINE",
"603 20 LINE",
"139 694 LINE",
"110 694 LINE",
"110 0 LINE"
);
},
{
closed = 1;
nodes = (
"577 -200 OFFCURVE",
"619 -117 OFFCURVE",
"619 -23 CURVE SMOOTH",
"619 0 LINE",
"598 0 LINE",
"598 -35 LINE SMOOTH",
"598 -112 OFFCURVE",
"562 -186 OFFCURVE",
"508 -220 CURVE",
"513 -230 LINE"
);
}
);
width = 729;
},
{
associatedMasterId = "0B2E441B-685E-400D-9B9B-E078DEED62EF";
color = 1;
components = (
{
alignment = -1;
name = N;
transform = "{1, 0, 0, 1, -1, 0}";
},
{
alignment = -1;
name = _bottomhook;
transform = "{1, 0, 0, 1, 155, 0}";
}
);
layerId = "1FA188A2-3D8B-43B9-A26D-4C91645B7C89";
name = Template;
width = 750;
},
{
associatedMasterId = "F333AEC5-BB61-4D5E-9EDD-6124322D28F2";
color = 1;
components = (
{
alignment = -1;
name = N;
},
{
alignment = -1;
name = _bottomhook;
transform = "{1, 0, 0, 1, 170, 0}";
}
);
layerId = "EB1199AD-1D48-4FC9-ACEF-2C644E00CDB4";
name = Template;
width = 778;
},
{
associatedMasterId = "51C2DFEF-3776-4D13-9284-96485B799B57";
color = 1;
components = (
{
alignment = -1;
name = N;
},
{
alignment = -1;
name = _bottomhook;
transform = "{1, 0, 0, 1, 156, 0}";
}
);
layerId = "54BA577D-EF5C-4C49-B346-BD2BDDA1045F";
name = Template;
width = 805;
}
);
leftMetricsKey = N;
rightMetricsKey = N;
unicode = 014A;
},
{
glyphname = O;
layers = (
{
anchors = (
{
name = Qtail;
position = "{589, 107}";
},
{
name = bottom;
position = "{391, 0}";
},
{
name = center;
position = "{391, 347}";
},
{
name = ogonek;
position = "{472, 10}";
},
{
name = top;
position = "{391, 694}";
},
{
name = topleft;
position = "{20, 694}";
},
{
name = topright;
position = "{706, 694}";
}
);
layerId = "F333AEC5-BB61-4D5E-9EDD-6124322D28F2";
paths = (
{
closed = 1;
nodes = (
"583 -7 OFFCURVE",
"717 138 OFFCURVE",
"717 356 CURVE SMOOTH",
"717 564 OFFCURVE",
"587 703 OFFCURVE",
"393 703 CURVE SMOOTH",
"196 703 OFFCURVE",
"65 559 OFFCURVE",
"65 344 CURVE SMOOTH",
"65 133 OFFCURVE",
"192 -7 OFFCURVE",
"383 -7 CURVE SMOOTH"
);
},
{
closed = 1;
nodes = (
"247 65 OFFCURVE",
"150 181 OFFCURVE",
"150 356 CURVE SMOOTH",
"150 520 OFFCURVE",
"243 630 OFFCURVE",
"383 630 CURVE SMOOTH",
"532 630 OFFCURVE",
"632 516 OFFCURVE",
"632 344 CURVE SMOOTH",
"632 177 OFFCURVE",
"536 65 OFFCURVE",
"393 65 CURVE SMOOTH"
);
}
);
width = 782;
},
{
anchors = (
{
name = Qtail;
position = "{564, 141}";
},
{
name = bottom;
position = "{380, 0}";
},
{
name = center;
position = "{403, 347}";
},
{
name = ogonek;
position = "{465, 10}";
},
{
name = top;
position = "{380, 694}";
},
{
name = topleft;
position = "{83, 694}";
},
{
name = topright;
position = "{626, 694}";
}
);
layerId = "51C2DFEF-3776-4D13-9284-96485B799B57";
paths = (
{
closed = 1;
nodes = (
"590 -10 OFFCURVE",
"734 134 OFFCURVE",
"734 351 CURVE SMOOTH",
"734 563 OFFCURVE",
"594 704 OFFCURVE",
"384 704 CURVE SMOOTH",
"169 704 OFFCURVE",
"26 559 OFFCURVE",
"26 341 CURVE SMOOTH",
"26 130 OFFCURVE",
"165 -10 OFFCURVE",
"373 -10 CURVE SMOOTH"
);
},
{
closed = 1;
nodes = (
"277 140 OFFCURVE",
"206 224 OFFCURVE",
"206 351 CURVE SMOOTH",
"206 473 OFFCURVE",
"273 554 OFFCURVE",
"373 554 CURVE SMOOTH",
"482 554 OFFCURVE",
"554 469 OFFCURVE",
"554 341 CURVE SMOOTH",
"554 220 OFFCURVE",
"486 140 OFFCURVE",
"384 140 CURVE SMOOTH"
);
}
);
width = 760;
},
{
anchors = (
{
name = Qtail;
position = "{598, 94}";
},
{
name = bottom;
position = "{378, 0}";
},
{
name = center;
position = "{379, 345}";
},
{
name = ogonek;
position = "{459, 10}";
},
{
name = top;
position = "{378, 694}";
},
{
name = topleft;
position = "{-3, 694}";
},
{
name = topright;
position = "{653, 694}";
}
);
layerId = "0B2E441B-685E-400D-9B9B-E078DEED62EF";
paths = (
{
closed = 1;
nodes = (
"559 -10 OFFCURVE",
"682 135 OFFCURVE",
"682 346 CURVE SMOOTH",
"682 558 OFFCURVE",
"561 699 OFFCURVE",
"379 699 CURVE SMOOTH",
"194 699 OFFCURVE",
"71 553 OFFCURVE",
"71 343 CURVE SMOOTH",
"71 133 OFFCURVE",
"193 -10 OFFCURVE",
"376 -10 CURVE SMOOTH"
);
},
{
closed = 1;
nodes = (
"207 9 OFFCURVE",
"93 147 OFFCURVE",
"93 346 CURVE SMOOTH",
"93 545 OFFCURVE",
"206 680 OFFCURVE",
"376 680 CURVE SMOOTH",
"546 680 OFFCURVE",
"660 542 OFFCURVE",
"660 343 CURVE SMOOTH",
"660 143 OFFCURVE",
"548 9 OFFCURVE",
"378 9 CURVE SMOOTH"
);
}
);
width = 754;
}
);
note = O;
unicode = 004F;
},
{
glyphname = OE;
layers = (
{
anchors = (
{
name = bottom;
position = "{566, 0}";
},
{
name = top;
position = "{566, 694}";
}
);
layerId = "F333AEC5-BB61-4D5E-9EDD-6124322D28F2";
paths = (
{
closed = 1;
nodes = (
"468 -7 OFFCURVE",
"540 1 OFFCURVE",
"564 10 CURVE",
"524 79 LINE",
"503 71 OFFCURVE",
"459 65 OFFCURVE",
"414 65 CURVE SMOOTH",
"253 65 OFFCURVE",
"150 178 OFFCURVE",
"150 355 CURVE SMOOTH",
"150 525 OFFCURVE",
"246 630 OFFCURVE",
"406 630 CURVE SMOOTH",
"451 630 OFFCURVE",
"498 625 OFFCURVE",
"524 611 CURVE",
"564 686 LINE",
"540 695 OFFCURVE",
"467 703 OFFCURVE",
"415 703 CURVE SMOOTH",
"198 703 OFFCURVE",
"65 564 OFFCURVE",
"65 343 CURVE SMOOTH",
"65 127 OFFCURVE",
"192 -7 OFFCURVE",
"414 -7 CURVE SMOOTH"
);
},
{
closed = 1;
nodes = (
"599 0 LINE",
"599 694 LINE",
"516 694 LINE",
"516 0 LINE"
);
},
{
closed = 1;
nodes = (
"952 0 LINE",
"952 72 LINE",
"556 72 LINE",
"556 0 LINE"
);
},
{
closed = 1;
nodes = (
"925 323 LINE",
"925 395 LINE",
"556 395 LINE",
"556 323 LINE"
);
},
{
closed = 1;
nodes = (
"952 622 LINE",
"952 694 LINE",
"556 694 LINE",
"556 622 LINE"
);
}
);
width = 1012;
},
{
anchors = (
{
name = bottom;
position = "{605, 0}";
},
{
name = top;
position = "{605, 694}";
}
);
layerId = "51C2DFEF-3776-4D13-9284-96485B799B57";
paths = (
{
closed = 1;
nodes = (
"482 -10 OFFCURVE",
"555 7 OFFCURVE",
"610 38 CURVE",
"519 167 LINE",
"491 150 OFFCURVE",
"455 140 OFFCURVE",
"413 140 CURVE SMOOTH",
"289 140 OFFCURVE",
"206 224 OFFCURVE",
"206 351 CURVE SMOOTH",
"206 473 OFFCURVE",
"283 554 OFFCURVE",
"403 554 CURVE SMOOTH",
"443 554 OFFCURVE",
"480 545 OFFCURVE",
"510 528 CURVE",
"610 660 LINE",
"557 688 OFFCURVE",
"488 704 OFFCURVE",
"413 704 CURVE SMOOTH",
"180 704 OFFCURVE",
"26 559 OFFCURVE",
"26 341 CURVE SMOOTH",
"26 130 OFFCURVE",
"176 -10 OFFCURVE",
"404 -10 CURVE SMOOTH"
);
},
{
closed = 1;
nodes = (
"673 0 LINE",
"673 694 LINE",
"500 694 LINE",
"500 0 LINE"
);
},
{
closed = 1;
nodes = (
"998 0 LINE",
"998 152 LINE",
"580 152 LINE",
"580 0 LINE"
);
},
{
closed = 1;
nodes = (
"970 278 LINE",
"970 430 LINE",
"580 430 LINE",
"580 278 LINE"
);
},
{
closed = 1;
nodes = (
"998 542 LINE",
"998 694 LINE",
"580 694 LINE",
"580 542 LINE"
);
}
);
width = 1043;
},
{
anchors = (
{
name = bottom;
position = "{533, 0}";
},
{
name = top;
position = "{533, 694}";
}
);
layerId = "0B2E441B-685E-400D-9B9B-E078DEED62EF";
paths = (
{
closed = 1;
nodes = (
"458 -10 OFFCURVE",
"507 -6 OFFCURVE",
"538 0 CURVE",
"533 18 LINE",
"506 12 OFFCURVE",
"458 9 OFFCURVE",
"428 9 CURVE SMOOTH",
"227 9 OFFCURVE",
"93 145 OFFCURVE",
"93 346 CURVE SMOOTH",
"93 547 OFFCURVE",
"227 680 OFFCURVE",
"426 680 CURVE SMOOTH",
"454 680 OFFCURVE",
"501 677 OFFCURVE",
"528 672 CURVE",
"532 691 LINE",
"504 696 OFFCURVE",
"458 699 OFFCURVE",
"430 699 CURVE SMOOTH",
"215 699 OFFCURVE",
"71 555 OFFCURVE",
"71 343 CURVE SMOOTH",
"71 131 OFFCURVE",
"214 -10 OFFCURVE",
"426 -10 CURVE SMOOTH"
);
},
{
closed = 1;
nodes = (
"530 0 LINE",
"530 694 LINE",
"509 694 LINE",
"509 0 LINE"
);
},
{
closed = 1;
nodes = (
"903 0 LINE",
"903 18 LINE",
"518 18 LINE",
"518 0 LINE"
);
},
{
closed = 1;
nodes = (
"878 351 LINE",
"878 369 LINE",
"518 369 LINE",
"518 351 LINE"
);
},
{
closed = 1;
nodes = (
"903 676 LINE",
"903 694 LINE",
"518 694 LINE",
"518 676 LINE"
);
}
);
width = 952;
}
);
leftMetricsKey = O;
rightMetricsKey = E;
unicode = 0152;
},
{
glyphname = P;
layers = (
{
anchors = (
{
name = bottom;
position = "{305, 0}";
},
{
name = top;
position = "{305, 694}";
}
);
layerId = "F333AEC5-BB61-4D5E-9EDD-6124322D28F2";
paths = (
{
closed = 1;
nodes = (
"187 0 LINE",
"187 694 LINE",
"104 694 LINE",
"104 0 LINE"
);
},
{
closed = 1;
nodes = (
"305 242 LINE SMOOTH",
"460 242 OFFCURVE",
"564 334 OFFCURVE",
"564 473 CURVE SMOOTH",
"564 606 OFFCURVE",
"466 694 OFFCURVE",
"320 694 CURVE SMOOTH",
"157 694 LINE",
"157 622 LINE",
"310 622 LINE SMOOTH",
"411 622 OFFCURVE",
"479 556 OFFCURVE",
"479 458 CURVE SMOOTH",
"479 364 OFFCURVE",
"423 314 OFFCURVE",
"320 314 CURVE SMOOTH",
"157 314 LINE",
"157 242 LINE"
);
}
);
width = 618;
},
{
anchors = (
{
name = bottom;
position = "{325, 0}";
},
{
name = top;
position = "{325, 694}";
}
);
layerId = "51C2DFEF-3776-4D13-9284-96485B799B57";
paths = (
{
closed = 1;
nodes = (
"240 0 LINE",
"240 694 LINE",
"67 694 LINE",
"67 0 LINE"
);
},
{
closed = 1;
nodes = (
"297 204 LINE SMOOTH",
"485 204 OFFCURVE",
"609 307 OFFCURVE",
"609 463 CURVE SMOOTH",
"609 608 OFFCURVE",
"503 694 OFFCURVE",
"326 694 CURVE SMOOTH",
"176 694 LINE",
"176 542 LINE",
"312 542 LINE SMOOTH",
"382 542 OFFCURVE",
"429 504 OFFCURVE",
"429 446 CURVE SMOOTH",
"429 390 OFFCURVE",
"390 356 OFFCURVE",
"328 356 CURVE SMOOTH",
"176 356 LINE",
"176 204 LINE"
);
}
);
width = 626;
},
{
anchors = (
{
name = bottom;
position = "{318, 0}";
},
{
name = top;
position = "{318, 694}";
}
);
layerId = "0B2E441B-685E-400D-9B9B-E078DEED62EF";
paths = (
{
closed = 1;
nodes = (
"131 0 LINE",
"131 694 LINE",
"110 694 LINE",
"110 0 LINE"
);
},
{
closed = 1;
nodes = (
"286 268 LINE SMOOTH",
"422 268 OFFCURVE",
"512 353 OFFCURVE",
"512 480 CURVE SMOOTH",
"512 608 OFFCURVE",
"424 694 OFFCURVE",
"292 694 CURVE SMOOTH",
"125 694 LINE",
"125 676 LINE",
"286 676 LINE SMOOTH",
"408 676 OFFCURVE",
"490 597 OFFCURVE",
"490 475 CURVE SMOOTH",
"490 358 OFFCURVE",
"416 286 OFFCURVE",
"292 286 CURVE SMOOTH",
"125 286 LINE",
"125 268 LINE"
);
}
);
width = 572;
}
);
note = P;
unicode = 0050;
},
{
glyphname = Thorn;
layers = (
{
layerId = "F333AEC5-BB61-4D5E-9EDD-6124322D28F2";
paths = (
{
closed = 1;
nodes = (
"187 0 LINE",
"187 694 LINE",
"104 694 LINE",
"104 0 LINE"
);
},
{
closed = 1;
nodes = (
"310 139 LINE SMOOTH",
"463 139 OFFCURVE",
"564 229 OFFCURVE",
"564 365 CURVE SMOOTH",
"564 499 OFFCURVE",
"465 591 OFFCURVE",
"320 591 CURVE SMOOTH",
"157 591 LINE",
"157 519 LINE",
"310 519 LINE SMOOTH",
"414 519 OFFCURVE",
"479 456 OFFCURVE",
"479 355 CURVE SMOOTH",
"479 261 OFFCURVE",
"423 211 OFFCURVE",
"320 211 CURVE SMOOTH",
"157 211 LINE",
"157 139 LINE"
);
}
);
width = 618;
},
{
layerId = "51C2DFEF-3776-4D13-9284-96485B799B57";
paths = (
{
closed = 1;
nodes = (
"240 0 LINE",
"240 694 LINE",
"67 694 LINE",
"67 0 LINE"
);
},
{
closed = 1;
nodes = (
"312 116 LINE SMOOTH",
"490 116 OFFCURVE",
"609 216 OFFCURVE",
"609 365 CURVE SMOOTH",
"609 510 OFFCURVE",
"495 606 OFFCURVE",
"326 606 CURVE SMOOTH",
"176 606 LINE",
"176 454 LINE",
"317 454 LINE SMOOTH",
"385 454 OFFCURVE",
"429 415 OFFCURVE",
"429 355 CURVE SMOOTH",
"429 299 OFFCURVE",
"393 268 OFFCURVE",
"328 268 CURVE SMOOTH",
"176 268 LINE",
"176 116 LINE"
);
}
);
width = 626;
},
{
layerId = "0B2E441B-685E-400D-9B9B-E078DEED62EF";
paths = (
{
closed = 1;
nodes = (
"131 0 LINE",
"131 694 LINE",
"110 694 LINE",
"110 0 LINE"
);
},
{
closed = 1;
nodes = (
"286 148 LINE SMOOTH",
"428 148 OFFCURVE",
"512 228 OFFCURVE",
"512 357 CURVE SMOOTH",
"512 489 OFFCURVE",
"424 574 OFFCURVE",
"292 574 CURVE SMOOTH",
"125 574 LINE",
"125 556 LINE",
"286 556 LINE SMOOTH",
"408 556 OFFCURVE",
"490 477 OFFCURVE",
"490 355 CURVE SMOOTH",
"490 238 OFFCURVE",
"416 166 OFFCURVE",
"292 166 CURVE SMOOTH",
"125 166 LINE",
"125 148 LINE"
);
}
);
width = 572;
}
);
leftMetricsKey = P;
rightMetricsKey = P;
unicode = 00DE;
},
{
glyphname = Q;
layers = (
{
anchors = (
{
name = bottom;
position = "{391, 0}";
},
{
name = top;
position = "{391, 694}";
}
);
layerId = "F333AEC5-BB61-4D5E-9EDD-6124322D28F2";
paths = (
{
closed = 1;
nodes = (
"583 -7 OFFCURVE",
"717 138 OFFCURVE",
"717 356 CURVE SMOOTH",
"717 564 OFFCURVE",
"587 703 OFFCURVE",
"393 703 CURVE SMOOTH",
"196 703 OFFCURVE",
"65 559 OFFCURVE",
"65 344 CURVE SMOOTH",
"65 133 OFFCURVE",
"192 -7 OFFCURVE",
"383 -7 CURVE SMOOTH"
);
},
{
closed = 1;
nodes = (
"247 65 OFFCURVE",
"150 181 OFFCURVE",
"150 356 CURVE SMOOTH",
"150 520 OFFCURVE",
"243 630 OFFCURVE",
"383 630 CURVE SMOOTH",
"532 630 OFFCURVE",
"632 516 OFFCURVE",
"632 344 CURVE SMOOTH",
"632 177 OFFCURVE",
"536 65 OFFCURVE",
"393 65 CURVE SMOOTH"
);
},
{
closed = 1;
nodes = (
"736 19 LINE",
"427 309 LINE",
"382 259 LINE",
"687 -32 LINE"
);
}
);
width = 795;
},
{
anchors = (
{
name = bottom;
position = "{380, 0}";
},
{
name = top;
position = "{380, 694}";
}
);
layerId = "51C2DFEF-3776-4D13-9284-96485B799B57";
paths = (
{
closed = 1;
nodes = (
"590 -10 OFFCURVE",
"734 134 OFFCURVE",
"734 351 CURVE SMOOTH",
"734 563 OFFCURVE",
"594 704 OFFCURVE",
"384 704 CURVE SMOOTH",
"169 704 OFFCURVE",
"26 559 OFFCURVE",
"26 341 CURVE SMOOTH",
"26 130 OFFCURVE",
"165 -10 OFFCURVE",
"373 -10 CURVE SMOOTH"
);
},
{
closed = 1;
nodes = (
"271 140 OFFCURVE",
"204 218 OFFCURVE",
"204 351 CURVE SMOOTH",
"204 479 OFFCURVE",
"267 554 OFFCURVE",
"373 554 CURVE SMOOTH",
"488 554 OFFCURVE",
"556 475 OFFCURVE",
"556 341 CURVE SMOOTH",
"556 215 OFFCURVE",
"492 140 OFFCURVE",
"384 140 CURVE SMOOTH"
);
},
{
closed = 1;
nodes = (
"752 38 LINE",
"427 348 LINE",
"323 245 LINE",
"644 -63 LINE"
);
}
);
width = 760;
},
{
anchors = (
{
name = bottom;
position = "{377, 0}";
},
{
name = top;
position = "{377, 694}";
}
);
layerId = "0B2E441B-685E-400D-9B9B-E078DEED62EF";
paths = (
{
closed = 1;
nodes = (
"559 -10 OFFCURVE",
"682 135 OFFCURVE",
"682 346 CURVE SMOOTH",
"682 558 OFFCURVE",
"561 699 OFFCURVE",
"379 699 CURVE SMOOTH",
"194 699 OFFCURVE",
"71 553 OFFCURVE",
"71 343 CURVE SMOOTH",
"71 133 OFFCURVE",
"193 -10 OFFCURVE",
"376 -10 CURVE SMOOTH"
);
},
{
closed = 1;
nodes = (
"207 9 OFFCURVE",
"93 147 OFFCURVE",
"93 346 CURVE SMOOTH",
"93 545 OFFCURVE",
"206 680 OFFCURVE",
"376 680 CURVE SMOOTH",
"546 680 OFFCURVE",
"660 542 OFFCURVE",
"660 343 CURVE SMOOTH",
"660 143 OFFCURVE",
"548 9 OFFCURVE",
"378 9 CURVE SMOOTH"
);
},
{
closed = 1;
nodes = (
"704 1 LINE",
"414 287 LINE",
"403 274 LINE",
"691 -13 LINE"
);
}
);
width = 754;
},
{
anchors = (
{
name = bottom;
position = "{397, 0}";
},
{
name = top;
position = "{397, 694}";
}
);
associatedMasterId = "51C2DFEF-3776-4D13-9284-96485B799B57";
layerId = "F61AEC76-3907-4C64-9E5F-B00B047D0AAC";
name = "Dec 5 17, 20:29";
paths = (
{
closed = 1;
nodes = (
"610 -10 OFFCURVE",
"756 134 OFFCURVE",
"756 351 CURVE SMOOTH",
"756 563 OFFCURVE",
"614 704 OFFCURVE",
"401 704 CURVE SMOOTH",
"183 704 OFFCURVE",
"38 559 OFFCURVE",
"38 341 CURVE SMOOTH",
"38 130 OFFCURVE",
"179 -10 OFFCURVE",
"390 -10 CURVE SMOOTH"
);
},
{
closed = 1;
nodes = (
"291 140 OFFCURVE",
"218 225 OFFCURVE",
"218 351 CURVE SMOOTH",
"218 473 OFFCURVE",
"286 554 OFFCURVE",
"390 554 CURVE SMOOTH",
"502 554 OFFCURVE",
"576 468 OFFCURVE",
"576 341 CURVE SMOOTH",
"576 221 OFFCURVE",
"507 140 OFFCURVE",
"401 140 CURVE SMOOTH"
);
},
{
closed = 1;
nodes = (
"735 28 LINE",
"495 315 LINE",
"384 218 LINE",
"624 -69 LINE"
);
}
);
width = 794;
},
{
associatedMasterId = "F333AEC5-BB61-4D5E-9EDD-6124322D28F2";
layerId = "2A138822-121A-4A2A-B9AC-D8D165082340";
name = "Jan 16 18, 21:20";
paths = (
{
closed = 1;
nodes = (
"605 -10 OFFCURVE",
"736 133 OFFCURVE",
"736 353 CURVE SMOOTH",
"736 571 OFFCURVE",
"604 715 OFFCURVE",
"403 715 CURVE SMOOTH",
"203 715 OFFCURVE",
"68 567 OFFCURVE",
"68 350 CURVE SMOOTH",
"68 136 OFFCURVE",
"204 -10 OFFCURVE",
"404 -10 CURVE SMOOTH"
);
},
{
closed = 1;
nodes = (
"609 158 LINE",
"451 314 LINE",
"398 260 LINE",
"562 105 LINE"
);
},
{
closed = 1;
nodes = (
"751 18 LINE",
"655 113 LINE",
"606 63 LINE",
"705 -31 LINE"
);
},
{
closed = 1;
nodes = (
"261 64 OFFCURVE",
"155 184 OFFCURVE",
"155 359 CURVE SMOOTH",
"155 526 OFFCURVE",
"253 641 OFFCURVE",
"396 641 CURVE SMOOTH",
"550 641 OFFCURVE",
"648 524 OFFCURVE",
"648 340 CURVE SMOOTH",
"648 171 OFFCURVE",
"558 64 OFFCURVE",
"414 64 CURVE SMOOTH"
);
}
);
width = 819;
}
);
note = Q;
unicode = 0051;
},
{
glyphname = R;
layers = (
{
anchors = (
{
name = bottom;
position = "{321, 0}";
},
{
name = top;
position = "{321, 694}";
}
);
layerId = "F333AEC5-BB61-4D5E-9EDD-6124322D28F2";
paths = (
{
closed = 1;
nodes = (
"187 0 LINE",
"187 694 LINE",
"104 694 LINE",
"104 0 LINE"
);
},
{
closed = 1;
nodes = (
"324 281 LINE SMOOTH",
"468 281 OFFCURVE",
"566 372 OFFCURVE",
"566 500 CURVE SMOOTH",
"566 622 OFFCURVE",
"476 694 OFFCURVE",
"334 694 CURVE SMOOTH",
"157 694 LINE",
"157 622 LINE",
"324 622 LINE SMOOTH",
"423 622 OFFCURVE",
"481 571 OFFCURVE",
"481 485 CURVE SMOOTH",
"481 400 OFFCURVE",
"429 351 OFFCURVE",
"334 351 CURVE SMOOTH",
"157 351 LINE",
"157 281 LINE"
);
},
{
closed = 1;
nodes = (
"606 0 LINE",
"414 328 LINE",
"319 328 LINE",
"507 0 LINE"
);
}
);
width = 645;
},
{
anchors = (
{
name = bottom;
position = "{324, 0}";
},
{
name = top;
position = "{324, 694}";
}
);
layerId = "51C2DFEF-3776-4D13-9284-96485B799B57";
paths = (
{
closed = 1;
nodes = (
"240 0 LINE",
"240 694 LINE",
"67 694 LINE",
"67 0 LINE"
);
},
{
closed = 1;
nodes = (
"329 237 LINE SMOOTH",
"499 237 OFFCURVE",
"612 338 OFFCURVE",
"612 484 CURVE SMOOTH",
"612 618 OFFCURVE",
"516 694 OFFCURVE",
"353 694 CURVE SMOOTH",
"188 694 LINE",
"188 543 LINE",
"329 543 LINE SMOOTH",
"394 543 OFFCURVE",
"432 512 OFFCURVE",
"432 460 CURVE SMOOTH",
"432 413 OFFCURVE",
"404 384 OFFCURVE",
"353 384 CURVE SMOOTH",
"188 384 LINE",
"188 237 LINE"
);
},
{
closed = 1;
nodes = (
"660 0 LINE",
"472 297 LINE",
"283 297 LINE",
"452 0 LINE"
);
}
);
width = 663;
},
{
anchors = (
{
name = bottom;
position = "{304, 0}";
},
{
name = top;
position = "{276, 694}";
}
);
layerId = "0B2E441B-685E-400D-9B9B-E078DEED62EF";
paths = (
{
closed = 1;
nodes = (
"131 0 LINE",
"131 694 LINE",
"110 694 LINE",
"110 0 LINE"
);
},
{
closed = 1;
nodes = (
"283 311 LINE SMOOTH",
"433 311 OFFCURVE",
"515 381 OFFCURVE",
"515 506 CURVE SMOOTH",
"515 628 OFFCURVE",
"433 694 OFFCURVE",
"288 694 CURVE SMOOTH",
"121 694 LINE",
"121 676 LINE",
"283 676 LINE SMOOTH",
"419 676 OFFCURVE",
"493 616 OFFCURVE",
"493 500 CURVE SMOOTH",
"493 389 OFFCURVE",
"423 329 OFFCURVE",
"290 329 CURVE SMOOTH",
"121 329 LINE",
"121 311 LINE"
);
},
{
closed = 1;
nodes = (
"557 0 LINE",
"372 325 LINE",
"349 325 LINE",
"531 0 LINE"
);
}
);
width = 606;
}
);
note = R;
unicode = 0052;
},
{
glyphname = S;
layers = (
{
anchors = (
{
name = bottom;
position = "{290, 0}";
},
{
name = top;
position = "{290, 694}";
}
);
layerId = "F333AEC5-BB61-4D5E-9EDD-6124322D28F2";
paths = (
{
closed = 1;
nodes = (
"435 -10 OFFCURVE",
"536 69 OFFCURVE",
"536 191 CURVE SMOOTH",
"536 437 OFFCURVE",
"147 339 OFFCURVE",
"147 518 CURVE SMOOTH",
"147 591 OFFCURVE",
"206 631 OFFCURVE",
"312 631 CURVE SMOOTH",
"371 631 OFFCURVE",
"435 619 OFFCURVE",
"485 598 CURVE",
"510 663 LINE",
"451 689 OFFCURVE",
"384 703 OFFCURVE",
"318 703 CURVE SMOOTH",
"163 703 OFFCURVE",
"62 626 OFFCURVE",
"62 505 CURVE SMOOTH",
"62 267 OFFCURVE",
"450 356 OFFCURVE",
"450 179 CURVE SMOOTH",
"450 109 OFFCURVE",
"390 64 OFFCURVE",
"285 64 CURVE SMOOTH",
"222 64 OFFCURVE",
"144 81 OFFCURVE",
"76 109 CURVE",
"51 44 LINE",
"128 9 OFFCURVE",
"206 -10 OFFCURVE",
"280 -10 CURVE SMOOTH"
);
}
);
width = 586;
},
{
anchors = (
{
name = bottom;
position = "{291, 0}";
},
{
name = top;
position = "{284, 694}";
}
);
layerId = "51C2DFEF-3776-4D13-9284-96485B799B57";
paths = (
{
closed = 1;
nodes = (
"458 -10 OFFCURVE",
"560 78 OFFCURVE",
"560 217 CURVE SMOOTH",
"560 472 OFFCURVE",
"217 395 OFFCURVE",
"217 498 CURVE SMOOTH",
"217 533 OFFCURVE",
"256 552 OFFCURVE",
"324 552 CURVE SMOOTH",
"380 552 OFFCURVE",
"442 542 OFFCURVE",
"491 525 CURVE",
"539 663 LINE",
"481 689 OFFCURVE",
"404 704 OFFCURVE",
"333 704 CURVE SMOOTH",
"157 704 OFFCURVE",
"37 612 OFFCURVE",
"37 472 CURVE SMOOTH",
"37 236 OFFCURVE",
"378 303 OFFCURVE",
"378 196 CURVE SMOOTH",
"378 164 OFFCURVE",
"348 146 OFFCURVE",
"281 146 CURVE SMOOTH",
"218 146 OFFCURVE",
"142 158 OFFCURVE",
"73 187 CURVE",
"25 45 LINE",
"96 13 OFFCURVE",
"188 -10 OFFCURVE",
"274 -10 CURVE SMOOTH"
);
}
);
width = 584;
},
{
anchors = (
{
name = bottom;
position = "{277, 0}";
},
{
name = top;
position = "{282, 694}";
}
);
layerId = "0B2E441B-685E-400D-9B9B-E078DEED62EF";
paths = (
{
closed = 1;
nodes = (
"420 -10 OFFCURVE",
"510 66 OFFCURVE",
"510 177 CURVE SMOOTH",
"510 416 OFFCURVE",
"91 307 OFFCURVE",
"91 531 CURVE SMOOTH",
"91 627 OFFCURVE",
"167 683 OFFCURVE",
"297 683 CURVE SMOOTH",
"357 683 OFFCURVE",
"418 671 OFFCURVE",
"471 645 CURVE",
"478 663 LINE",
"425 691 OFFCURVE",
"362 702 OFFCURVE",
"303 702 CURVE SMOOTH",
"157 702 OFFCURVE",
"69 636 OFFCURVE",
"69 527 CURVE SMOOTH",
"69 290 OFFCURVE",
"488 394 OFFCURVE",
"488 172 CURVE SMOOTH",
"488 75 OFFCURVE",
"409 9 OFFCURVE",
"282 9 CURVE SMOOTH",
"215 9 OFFCURVE",
"140 27 OFFCURVE",
"68 60 CURVE",
"61 41 LINE",
"130 8 OFFCURVE",
"208 -10 OFFCURVE",
"277 -10 CURVE SMOOTH"
);
}
);
width = 569;
}
);
note = S;
unicode = 0053;
},
{
glyphname = Germandbls;
layers = (
{
layerId = "F333AEC5-BB61-4D5E-9EDD-6124322D28F2";
paths = (
{
closed = 1;
nodes = (
"576 -10 OFFCURVE",
"662 66 OFFCURVE",
"662 181 CURVE SMOOTH",
"662 283 OFFCURVE",
"594 364 OFFCURVE",
"466 388 CURVE",
"476 352 LINE",
"612 583 LINE",
"579 657 OFFCURVE",
"483 704 OFFCURVE",
"366 704 CURVE SMOOTH",
"201 704 OFFCURVE",
"93 610 OFFCURVE",
"93 468 CURVE SMOOTH",
"93 0 LINE",
"176 0 LINE",
"176 468 LINE SMOOTH",
"176 566 OFFCURVE",
"246 631 OFFCURVE",
"361 631 CURVE SMOOTH",
"434 631 OFFCURVE",
"495 605 OFFCURVE",
"518 565 CURVE",
"383 332 LINE",
"508 312 OFFCURVE",
"577 255 OFFCURVE",
"577 171 CURVE SMOOTH",
"577 102 OFFCURVE",
"531 63 OFFCURVE",
"452 63 CURVE SMOOTH",
"410 63 OFFCURVE",
"357 74 OFFCURVE",
"317 91 CURVE",
"292 26 LINE",
"336 3 OFFCURVE",
"392 -10 OFFCURVE",
"447 -10 CURVE SMOOTH"
);
}
);
width = 716;
},
{
layerId = "51C2DFEF-3776-4D13-9284-96485B799B57";
paths = (
{
closed = 1;
nodes = (
"601 -10 OFFCURVE",
"707 79 OFFCURVE",
"707 209 CURVE SMOOTH",
"707 318 OFFCURVE",
"632 393 OFFCURVE",
"506 410 CURVE",
"567 384 LINE",
"666 559 LINE",
"619 649 OFFCURVE",
"504 704 OFFCURVE",
"370 704 CURVE SMOOTH",
"183 704 OFFCURVE",
"63 596 OFFCURVE",
"63 434 CURVE SMOOTH",
"63 0 LINE",
"239 0 LINE",
"239 434 LINE SMOOTH",
"239 507 OFFCURVE",
"289 554 OFFCURVE",
"365 554 CURVE SMOOTH",
"405 554 OFFCURVE",
"437 541 OFFCURVE",
"466 513 CURVE",
"353 304 LINE",
"455 289 OFFCURVE",
"527 252 OFFCURVE",
"527 200 CURVE SMOOTH",
"527 163 OFFCURVE",
"493 140 OFFCURVE",
"438 140 CURVE SMOOTH",
"403 140 OFFCURVE",
"363 149 OFFCURVE",
"331 164 CURVE",
"279 28 LINE",
"332 3 OFFCURVE",
"389 -10 OFFCURVE",
"447 -10 CURVE SMOOTH"
);
}
);
width = 737;
},
{
layerId = "0B2E441B-685E-400D-9B9B-E078DEED62EF";
paths = (
{
closed = 1;
nodes = (
"554 -10 OFFCURVE",
"632 59 OFFCURVE",
"632 164 CURVE SMOOTH",
"632 273 OFFCURVE",
"566 341 OFFCURVE",
"433 370 CURVE",
"434 360 LINE",
"581 599 LINE",
"557 659 OFFCURVE",
"467 702 OFFCURVE",
"364 702 CURVE SMOOTH",
"217 702 OFFCURVE",
"117 614 OFFCURVE",
"117 482 CURVE SMOOTH",
"117 0 LINE",
"138 0 LINE",
"138 482 LINE SMOOTH",
"138 603 OFFCURVE",
"228 683 OFFCURVE",
"362 683 CURVE SMOOTH",
"452 683 OFFCURVE",
"533 648 OFFCURVE",
"557 599 CURVE",
"409 355 LINE",
"546 328 OFFCURVE",
"611 266 OFFCURVE",
"611 163 CURVE SMOOTH",
"611 70 OFFCURVE",
"542 8 OFFCURVE",
"439 8 CURVE SMOOTH",
"395 8 OFFCURVE",
"347 19 OFFCURVE",
"303 39 CURVE",
"296 21 LINE",
"337 1 OFFCURVE",
"386 -10 OFFCURVE",
"434 -10 CURVE SMOOTH"
);
}
);
width = 711;
}
);
unicode = 1E9E;
},
{
glyphname = Schwa;
layers = (
{
anchors = (
{
name = bottom;
position = "{369, 0}";
},
{
name = top;
position = "{369, 694}";
}
);
layerId = "F333AEC5-BB61-4D5E-9EDD-6124322D28F2";
paths = (
{
closed = 1;
nodes = (
"235 700 OFFCURVE",
"157 680 OFFCURVE",
"87 640 CURVE",
"106 579 LINE",
"170 610 OFFCURVE",
"240 627 OFFCURVE",
"308 627 CURVE SMOOTH",
"486 627 OFFCURVE",
"594 521 OFFCURVE",
"594 329 CURVE SMOOTH",
"594 158 OFFCURVE",
"509 63 OFFCURVE",
"362 63 CURVE SMOOTH",
"222 63 OFFCURVE",
"140 148 OFFCURVE",
"140 300 CURVE",
"615 300 LINE",
"615 368 LINE",
"67 368 LINE",
"65 345 OFFCURVE",
"63 312 OFFCURVE",
"63 291 CURVE SMOOTH",
"63 111 OFFCURVE",
"179 -10 OFFCURVE",
"355 -10 CURVE SMOOTH",
"546 -10 OFFCURVE",
"679 132 OFFCURVE",
"679 347 CURVE SMOOTH",
"679 566 OFFCURVE",
"541 700 OFFCURVE",
"322 700 CURVE SMOOTH"
);
}
);
userData = {
RMXScaler = {
height = 143;
width = 150;
};
};
width = 744;
},
{
anchors = (
{
name = bottom;
position = "{376, 0}";
},
{
name = top;
position = "{376, 694}";
}
);
layerId = "51C2DFEF-3776-4D13-9284-96485B799B57";
paths = (
{
closed = 1;
nodes = (
"227 704 OFFCURVE",
"140 685 OFFCURVE",
"60 648 CURVE",
"99 517 LINE",
"159 541 OFFCURVE",
"225 554 OFFCURVE",
"288 554 CURVE SMOOTH",
"444 554 OFFCURVE",
"523 483 OFFCURVE",
"523 315 CURVE SMOOTH",
"523 192 OFFCURVE",
"469 140 OFFCURVE",
"363 140 CURVE SMOOTH",
"267 140 OFFCURVE",
"211 180 OFFCURVE",
"211 272 CURVE",
"552 272 LINE",
"552 414 LINE",
"53 414 LINE",
"48 370 OFFCURVE",
"45 324 OFFCURVE",
"45 280 CURVE SMOOTH",
"45 105 OFFCURVE",
"163 -10 OFFCURVE",
"350 -10 CURVE SMOOTH",
"560 -10 OFFCURVE",
"703 133 OFFCURVE",
"703 350 CURVE SMOOTH",
"703 571 OFFCURVE",
"556 704 OFFCURVE",
"317 704 CURVE SMOOTH"
);
}
);
userData = {
RMXScaler = {
height = 142;
width = 148;
};
};
width = 741;
},
{
anchors = (
{
name = bottom;
position = "{369, 0}";
},
{
name = top;
position = "{369, 694}";
}
);
layerId = "0B2E441B-685E-400D-9B9B-E078DEED62EF";
paths = (
{
closed = 1;
nodes = (
"245 704 OFFCURVE",
"174 681 OFFCURVE",
"106 633 CURVE",
"111 617 LINE",
"180 663 OFFCURVE",
"249 685 OFFCURVE",
"326 685 CURVE SMOOTH",
"521 685 OFFCURVE",
"642 558 OFFCURVE",
"642 342 CURVE SMOOTH",
"642 140 OFFCURVE",
"537 9 OFFCURVE",
"366 9 CURVE SMOOTH",
"202 9 OFFCURVE",
"105 130 OFFCURVE",
"105 321 CURVE",
"660 321 LINE",
"660 340 LINE",
"83 340 LINE",
"82 332 OFFCURVE",
"82 328 OFFCURVE",
"82 318 CURVE SMOOTH",
"82 123 OFFCURVE",
"191 -10 OFFCURVE",
"364 -10 CURVE SMOOTH",
"540 -10 OFFCURVE",
"665 130 OFFCURVE",
"665 342 CURVE SMOOTH",
"665 562 OFFCURVE",
"532 704 OFFCURVE",
"328 704 CURVE SMOOTH"
);
}
);
userData = {
RMXScaler = {
height = 145;
width = 150;
};
};
width = 755;
}
);
unicode = 018F;
userData = {
RMXScaler = {
source = e;
};
};
},
{
glyphname = T;
layers = (
{
anchors = (
{
name = bottom;
position = "{297, 0}";
},
{
name = center;
position = "{297, 347}";
},
{
name = top;
position = "{297, 694}";
}
);
layerId = "F333AEC5-BB61-4D5E-9EDD-6124322D28F2";
paths = (
{
closed = 1;
nodes = (
"338 0 LINE",
"338 660 LINE",
"255 660 LINE",
"255 0 LINE"
);
},
{
closed = 1;
nodes = (
"570 622 LINE",
"570 694 LINE",
"24 694 LINE",
"24 622 LINE"
);
}
);
width = 594;
},
{
anchors = (
{
name = bottom;
position = "{311, 0}";
},
{
name = center;
position = "{310, 327}";
},
{
name = top;
position = "{309, 694}";
}
);
layerId = "51C2DFEF-3776-4D13-9284-96485B799B57";
paths = (
{
closed = 1;
nodes = (
"394 0 LINE",
"394 660 LINE",
"224 660 LINE",
"224 0 LINE"
);
},
{
closed = 1;
nodes = (
"610 542 LINE",
"610 694 LINE",
"10 694 LINE",
"10 542 LINE"
);
}
);
width = 620;
},
{
anchors = (
{
name = bottom;
position = "{292, 0}";
},
{
name = center;
position = "{295, 357}";
},
{
name = top;
position = "{295, 694}";
}
);
layerId = "0B2E441B-685E-400D-9B9B-E078DEED62EF";
paths = (
{
closed = 1;
nodes = (
"305 0 LINE",
"305 694 LINE",
"284 694 LINE",
"284 0 LINE"
);
},
{
closed = 1;
nodes = (
"550 676 LINE",
"550 694 LINE",
"39 694 LINE",
"39 676 LINE"
);
}
);
width = 589;
}
);
note = T;
unicode = 0054;
},
{
glyphname = U;
layers = (
{
anchors = (
{
name = bottom;
position = "{355, 0}";
},
{
name = ogonek;
position = "{449, 10}";
},
{
name = top;
position = "{355, 694}";
},
{
name = topright;
position = "{690, 694}";
}
);
layerId = "F333AEC5-BB61-4D5E-9EDD-6124322D28F2";
paths = (
{
closed = 1;
nodes = (
"511 -10 OFFCURVE",
"619 92 OFFCURVE",
"619 246 CURVE SMOOTH",
"619 694 LINE",
"538 694 LINE",
"538 236 LINE SMOOTH",
"538 127 OFFCURVE",
"473 63 OFFCURVE",
"361 63 CURVE SMOOTH",
"243 63 OFFCURVE",
"175 133 OFFCURVE",
"175 253 CURVE SMOOTH",
"175 694 LINE",
"92 694 LINE",
"92 243 LINE SMOOTH",
"92 90 OFFCURVE",
"193 -10 OFFCURVE",
"350 -10 CURVE SMOOTH"
);
}
);
width = 711;
},
{
anchors = (
{
name = bottom;
position = "{355, 0}";
},
{
name = ogonek;
position = "{451, 10}";
},
{
name = top;
position = "{355, 694}";
},
{
name = topright;
position = "{658, 694}";
}
);
layerId = "51C2DFEF-3776-4D13-9284-96485B799B57";
paths = (
{
closed = 1;
nodes = (
"536 -10 OFFCURVE",
"658 107 OFFCURVE",
"658 287 CURVE SMOOTH",
"658 694 LINE",
"487 694 LINE",
"487 267 LINE SMOOTH",
"487 187 OFFCURVE",
"442 140 OFFCURVE",
"366 140 CURVE SMOOTH",
"277 140 OFFCURVE",
"225 195 OFFCURVE",
"225 287 CURVE SMOOTH",
"225 694 LINE",
"52 694 LINE",
"52 277 LINE SMOOTH",
"52 98 OFFCURVE",
"163 -10 OFFCURVE",
"347 -10 CURVE SMOOTH"
);
}
);
width = 709;
},
{
anchors = (
{
name = bottom;
position = "{338, 0}";
},
{
name = ogonek;
position = "{420, 10}";
},
{
name = top;
position = "{338, 694}";
},
{
name = topright;
position = "{635, 694}";
}
);
layerId = "0B2E441B-685E-400D-9B9B-E078DEED62EF";
paths = (
{
closed = 1;
nodes = (
"486 -10 OFFCURVE",
"574 85 OFFCURVE",
"574 246 CURVE SMOOTH",
"574 694 LINE",
"553 694 LINE",
"553 246 LINE SMOOTH",
"553 97 OFFCURVE",
"474 9 OFFCURVE",
"340 9 CURVE SMOOTH",
"202 9 OFFCURVE",
"121 97 OFFCURVE",
"121 246 CURVE SMOOTH",
"121 694 LINE",
"99 694 LINE",
"99 246 LINE SMOOTH",
"99 85 OFFCURVE",
"187 -10 OFFCURVE",
"337 -10 CURVE SMOOTH"
);
}
);
width = 673;
}
);
note = U;
unicode = 0055;
},
{
glyphname = V;
layers = (
{
anchors = (
{
name = bottom;
position = "{321, 0}";
},
{
name = top;
position = "{321, 694}";
}
);
layerId = "F333AEC5-BB61-4D5E-9EDD-6124322D28F2";
paths = (
{
closed = 1;
nodes = (
"361 0 LINE",
"614 694 LINE",
"530 694 LINE",
"299 29 LINE",
"349 29 LINE",
"122 694 LINE",
"27 694 LINE",
"280 0 LINE"
);
}
);
width = 641;
},
{
anchors = (
{
name = bottom;
position = "{337, 0}";
},
{
name = top;
position = "{337, 694}";
}
);
layerId = "51C2DFEF-3776-4D13-9284-96485B799B57";
paths = (
{
closed = 1;
nodes = (
"428 0 LINE",
"675 694 LINE",
"496 694 LINE",
"307 92 LINE",
"376 92 LINE",
"200 694 LINE",
"-2 694 LINE",
"243 0 LINE"
);
}
);
width = 672;
},
{
anchors = (
{
name = bottom;
position = "{302, 0}";
},
{
name = top;
position = "{302, 694}";
}
);
layerId = "0B2E441B-685E-400D-9B9B-E078DEED62EF";
paths = (
{
closed = 1;
nodes = (
"308 0 LINE",
"565 694 LINE",
"544 694 LINE",
"299 30 LINE",
"308 30 LINE",
"61 694 LINE",
"38 694 LINE",
"297 0 LINE"
);
}
);
width = 603;
}
);
note = V;
unicode = 0056;
},
{
glyphname = W;
layers = (
{
anchors = (
{
name = bottom;
position = "{505, 0}";
},
{
name = top;
position = "{505, 694}";
}
);
layerId = "F333AEC5-BB61-4D5E-9EDD-6124322D28F2";
paths = (
{
closed = 1;
nodes = (
"332 0 LINE",
"524 653 LINE",
"482 653 LINE",
"690 0 LINE",
"770 0 LINE",
"986 694 LINE",
"903 694 LINE",
"711 39 LINE",
"756 39 LINE",
"555 689 LINE",
"462 689 LINE",
"273 39 LINE",
"313 39 LINE",
"126 694 LINE",
"30 694 LINE",
"249 0 LINE"
);
}
);
width = 1016;
},
{
anchors = (
{
name = bottom;
position = "{510, 0}";
},
{
name = top;
position = "{510, 694}";
}
);
layerId = "51C2DFEF-3776-4D13-9284-96485B799B57";
paths = (
{
closed = 1;
nodes = (
"402 0 LINE",
"543 602 LINE",
"463 602 LINE",
"627 0 LINE",
"812 0 LINE",
"1026 694 LINE",
"851 694 LINE",
"690 85 LINE",
"757 109 LINE",
"608 690 LINE",
"419 690 LINE",
"287 105 LINE",
"339 105 LINE",
"195 694 LINE",
"0 694 LINE",
"212 0 LINE"
);
}
);
width = 1026;
},
{
anchors = (
{
name = bottom;
position = "{494, 0}";
},
{
name = top;
position = "{494, 694}";
}
);
layerId = "0B2E441B-685E-400D-9B9B-E078DEED62EF";
paths = (
{
closed = 1;
nodes = (
"278 0 LINE",
"502 666 LINE",
"488 666 LINE",
"719 0 LINE",
"732 0 LINE",
"944 694 LINE",
"923 694 LINE",
"722 32 LINE",
"730 32 LINE",
"502 688 LINE",
"489 688 LINE",
"269 32 LINE",
"277 32 LINE",
"64 694 LINE",
"41 694 LINE",
"266 0 LINE"
);
}
);
width = 986;
}
);
note = W;
unicode = 0057;
},
{
glyphname = X;
layers = (
{
anchors = (
{
name = bottom;
position = "{299, 0}";
},
{
name = top;
position = "{299, 694}";
}
);
layerId = "0B2E441B-685E-400D-9B9B-E078DEED62EF";
paths = (
{
closed = 1;
nodes = (
"558 0 LINE",
"291 385 LINE",
"91 694 LINE",
"64 694 LINE",
"278 369 LINE",
"531 0 LINE"
);
},
{
closed = 1;
nodes = (
"59 0 LINE",
"296 351 LINE",
"285 367 LINE",
"35 0 LINE"
);
},
{
closed = 1;
nodes = (
"538 694 LINE",
"514 694 LINE",
"293 375 LINE",
"304 358 LINE"
);
}
);
width = 594;
},
{
anchors = (
{
name = bottom;
position = "{317, 0}";
},
{
name = top;
position = "{317, 694}";
}
);
layerId = "F333AEC5-BB61-4D5E-9EDD-6124322D28F2";
paths = (
{
closed = 1;
nodes = (
"610 0 LINE",
"345 383 LINE",
"143 694 LINE",
"44 694 LINE",
"289 331 LINE",
"511 0 LINE"
);
},
{
closed = 1;
nodes = (
"118 0 LINE",
"321 309 LINE",
"278 373 LINE",
"24 0 LINE"
);
},
{
closed = 1;
nodes = (
"584 694 LINE",
"490 694 LINE",
"306 415 LINE",
"349 351 LINE"
);
}
);
width = 633;
},
{
anchors = (
{
name = bottom;
position = "{355, 0}";
},
{
name = top;
position = "{343, 694}";
}
);
layerId = "51C2DFEF-3776-4D13-9284-96485B799B57";
paths = (
{
closed = 1;
nodes = (
"679 0 LINE",
"387 416 LINE",
"216 694 LINE",
"11 694 LINE",
"296 279 LINE",
"470 0 LINE"
);
},
{
closed = 1;
nodes = (
"196 0 LINE",
"331 233 LINE",
"246 372 LINE",
"-5 0 LINE"
);
},
{
closed = 1;
nodes = (
"651 694 LINE",
"448 694 LINE",
"319 484 LINE",
"409 349 LINE"
);
}
);
width = 672;
}
);
note = X;
unicode = 0058;
},
{
glyphname = Y;
layers = (
{
anchors = (
{
name = bottom;
position = "{309, 0}";
},
{
name = top;
position = "{309, 694}";
},
{
name = topleft;
position = "{31, 694}";
}
);
layerId = "F333AEC5-BB61-4D5E-9EDD-6124322D28F2";
paths = (
{
closed = 1;
nodes = (
"347 0 LINE",
"347 299 LINE",
"587 694 LINE",
"496 694 LINE",
"303 362 LINE",
"314 362 LINE",
"116 694 LINE",
"19 694 LINE",
"264 299 LINE",
"264 0 LINE"
);
}
);
width = 606;
},
{
anchors = (
{
name = bottom;
position = "{324, 0}";
},
{
name = top;
position = "{324, 694}";
},
{
name = topleft;
position = "{4, 694}";
}
);
layerId = "51C2DFEF-3776-4D13-9284-96485B799B57";
paths = (
{
closed = 1;
nodes = (
"418 0 LINE",
"418 247 LINE",
"672 694 LINE",
"478 694 LINE",
"326 380 LINE",
"348 380 LINE",
"184 694 LINE",
"-20 694 LINE",
"245 251 LINE",
"245 0 LINE"
);
}
);
width = 653;
},
{
anchors = (
{
name = bottom;
position = "{269, 0}";
},
{
name = top;
position = "{269, 694}";
},
{
name = topleft;
position = "{3, 694}";
}
);
layerId = "0B2E441B-685E-400D-9B9B-E078DEED62EF";
paths = (
{
closed = 1;
nodes = (
"275 0 LINE",
"275 333 LINE",
"507 694 LINE",
"484 694 LINE",
"262 344 LINE",
"270 344 LINE",
"47 694 LINE",
"21 694 LINE",
"254 333 LINE",
"254 0 LINE"
);
}
);
width = 528;
}
);
note = Y;
unicode = 0059;
},
{
glyphname = Z;
layers = (
{
anchors = (
{
name = bottom;
position = "{327, 0}";
},
{
name = top;
position = "{327, 694}";
}
);
layerId = "F333AEC5-BB61-4D5E-9EDD-6124322D28F2";
paths = (
{
closed = 1;
nodes = (
"606 0 LINE",
"606 72 LINE",
"126 72 LINE",
"138 47 LINE",
"593 642 LINE",
"593 694 LINE",
"62 694 LINE",
"62 622 LINE",
"514 622 LINE",
"502 647 LINE",
"48 53 LINE",
"48 0 LINE"
);
}
);
width = 654;
},
{
anchors = (
{
name = bottom;
position = "{331, 0}";
},
{
name = top;
position = "{331, 694}";
}
);
layerId = "51C2DFEF-3776-4D13-9284-96485B799B57";
paths = (
{
closed = 1;
nodes = (
"625 0 LINE",
"625 152 LINE",
"168 152 LINE",
"209 94 LINE",
"620 591 LINE",
"620 694 LINE",
"40 694 LINE",
"40 542 LINE",
"484 542 LINE",
"432 608 LINE",
"22 111 LINE",
"22 0 LINE"
);
}
);
width = 650;
},
{
anchors = (
{
name = bottom;
position = "{298, 0}";
},
{
name = top;
position = "{298, 694}";
}
);
layerId = "0B2E441B-685E-400D-9B9B-E078DEED62EF";
paths = (
{
closed = 1;
nodes = (
"572 0 LINE",
"572 18 LINE",
"66 18 LINE",
"66 12 LINE",
"555 677 LINE",
"555 694 LINE",
"62 694 LINE",
"62 676 LINE",
"533 676 LINE",
"533 682 LINE",
"44 16 LINE",
"44 0 LINE"
);
}
);
width = 616;
}
);
note = Z;
unicode = 005A;
},
{
glyphname = a;
layers = (
{
anchors = (
{
name = bottom;
position = "{261, 0}";
},
{
name = ogonek;
position = "{415, 10}";
},
{
name = top;
position = "{246, 482}";
}
);
layerId = "F333AEC5-BB61-4D5E-9EDD-6124322D28F2";
paths = (
{
closed = 1;
nodes = (
"437 0 LINE",
"437 313 LINE SMOOTH",
"437 428 OFFCURVE",
"369 492 OFFCURVE",
"243 492 CURVE SMOOTH",
"180 492 OFFCURVE",
"112 475 OFFCURVE",
"60 446 CURVE",
"80 387 LINE",
"130 409 OFFCURVE",
"180 420 OFFCURVE",
"227 420 CURVE SMOOTH",
"313 420 OFFCURVE",
"357 384 OFFCURVE",
"357 313 CURVE SMOOTH",
"357 56 LINE",
"381 0 LINE"
);
},
{
closed = 1;
nodes = (
"325 -10 OFFCURVE",
"412 62 OFFCURVE",
"426 169 CURVE",
"397 183 LINE",
"382 109 OFFCURVE",
"316 60 OFFCURVE",
"233 60 CURVE SMOOTH",
"169 60 OFFCURVE",
"127 92 OFFCURVE",
"127 140 CURVE SMOOTH",
"127 201 OFFCURVE",
"198 226 OFFCURVE",
"369 226 CURVE",
"369 281 LINE",
"144 281 OFFCURVE",
"47 236 OFFCURVE",
"47 131 CURVE SMOOTH",
"47 45 OFFCURVE",
"111 -10 OFFCURVE",
"210 -10 CURVE SMOOTH"
);
}
);
width = 512;
},
{
anchors = (
{
name = bottom;
position = "{232, 0}";
},
{
name = ogonek;
position = "{379, 10}";
},
{
name = top;
position = "{213, 480}";
}
);
background = {
paths = (
{
closed = 1;
nodes = (
"394 0 LINE",
"394 327 LINE SMOOTH",
"394 436 OFFCURVE",
"329 486 OFFCURVE",
"220 486 CURVE SMOOTH",
"157 486 OFFCURVE",
"88 460 OFFCURVE",
"46 425 CURVE",
"55 412 LINE",
"99 446 OFFCURVE",
"161 466 OFFCURVE",
"217 466 CURVE SMOOTH",
"315 466 OFFCURVE",
"374 425 OFFCURVE",
"374 323 CURVE SMOOTH",
"374 71 LINE",
"378 0 LINE"
);
},
{
closed = 1;
nodes = (
"269 -10 OFFCURVE",
"337 20 OFFCURVE",
"382 65 CURVE",
"382 86 LINE",
"326 34 OFFCURVE",
"266 10 OFFCURVE",
"202 10 CURVE SMOOTH",
"115 10 OFFCURVE",
"62 48 OFFCURVE",
"62 112 CURVE SMOOTH",
"62 202 OFFCURVE",
"165 245 OFFCURVE",
"382 245 CURVE",
"382 266 LINE",
"162 266 OFFCURVE",
"41 211 OFFCURVE",
"41 108 CURVE SMOOTH",
"41 35 OFFCURVE",
"100 -10 OFFCURVE",
"198 -10 CURVE SMOOTH"
);
}
);
};
layerId = "0B2E441B-685E-400D-9B9B-E078DEED62EF";
paths = (
{
closed = 1;
nodes = (
"385 0 LINE",
"385 327 LINE SMOOTH",
"385 428 OFFCURVE",
"326 486 OFFCURVE",
"228 486 CURVE SMOOTH",
"176 486 OFFCURVE",
"116 470 OFFCURVE",
"64 444 CURVE",
"69 430 LINE",
"116 453 OFFCURVE",
"172 468 OFFCURVE",
"222 468 CURVE SMOOTH",
"313 468 OFFCURVE",
"364 419 OFFCURVE",
"364 323 CURVE SMOOTH",
"364 71 LINE",
"368 0 LINE"
);
},
{
closed = 1;
nodes = (
"264 -10 OFFCURVE",
"324 17 OFFCURVE",
"372 68 CURVE",
"372 86 LINE",
"315 32 OFFCURVE",
"263 8 OFFCURVE",
"203 8 CURVE SMOOTH",
"121 8 OFFCURVE",
"67 53 OFFCURVE",
"67 121 CURVE SMOOTH",
"67 209 OFFCURVE",
"159 247 OFFCURVE",
"372 247 CURVE",
"372 263 LINE",
"149 263 OFFCURVE",
"46 217 OFFCURVE",
"46 117 CURVE SMOOTH",
"46 41 OFFCURVE",
"105 -10 OFFCURVE",
"197 -10 CURVE SMOOTH"
);
}
);
width = 466;
},
{
anchors = (
{
name = bottom;
position = "{273, 0}";
},
{
name = ogonek;
position = "{444, 10}";
},
{
name = top;
position = "{263, 490}";
}
);
associatedMasterId = "51C2DFEF-3776-4D13-9284-96485B799B57";
layerId = "0BD7D1DF-9AF0-4E24-903B-F3445FDD045E";
name = "Dec 5 17, 23:16";
paths = (
{
closed = 1;
nodes = (
"494 0 LINE",
"494 282 LINE SMOOTH",
"494 422 OFFCURVE",
"412 500 OFFCURVE",
"264 500 CURVE SMOOTH",
"183 500 OFFCURVE",
"99 477 OFFCURVE",
"35 438 CURVE",
"73 321 LINE",
"125 345 OFFCURVE",
"181 359 OFFCURVE",
"225 359 CURVE SMOOTH",
"286 359 OFFCURVE",
"321 331 OFFCURVE",
"321 282 CURVE SMOOTH",
"321 129 LINE",
"369 0 LINE"
);
},
{
closed = 1;
nodes = (
"288 -10 OFFCURVE",
"360 43 OFFCURVE",
"421 155 CURVE",
"368 178 LINE",
"335 140 OFFCURVE",
"294 119 OFFCURVE",
"255 119 CURVE SMOOTH",
"221 119 OFFCURVE",
"202 133 OFFCURVE",
"202 157 CURVE SMOOTH",
"202 192 OFFCURVE",
"247 206 OFFCURVE",
"356 205 CURVE",
"356 299 LINE",
"154 300 OFFCURVE",
"28 232 OFFCURVE",
"28 123 CURVE SMOOTH",
"28 44 OFFCURVE",
"94 -10 OFFCURVE",
"192 -10 CURVE SMOOTH"
);
}
);
width = 543;
},
{
anchors = (
{
name = bottom;
position = "{263, 0}";
},
{
name = ogonek;
position = "{417, 10}";
},
{
name = top;
position = "{248, 482}";
}
);
associatedMasterId = "F333AEC5-BB61-4D5E-9EDD-6124322D28F2";
layerId = "9C421F62-C7C0-4F87-A463-66FC74D0E7CD";
name = "Jan 16 18, 22:54";
paths = (
{
closed = 1;
nodes = (
"195 503 OFFCURVE",
"142 493 OFFCURVE",
"87 473 CURVE",
"103 413 LINE",
"157 428 OFFCURVE",
"200 435 OFFCURVE",
"236 435 CURVE SMOOTH",
"319 435 OFFCURVE",
"356 400 OFFCURVE",
"356 319 CURVE SMOOTH",
"356 280 LINE",
"155 280 OFFCURVE",
"56 232 OFFCURVE",
"56 136 CURVE SMOOTH",
"56 53 OFFCURVE",
"129 -10 OFFCURVE",
"224 -10 CURVE SMOOTH",
"275 -10 OFFCURVE",
"321 8 OFFCURVE",
"362 45 CURVE",
"381 0 LINE",
"439 0 LINE",
"439 330 LINE SMOOTH",
"439 440 OFFCURVE",
"369 503 OFFCURVE",
"248 503 CURVE SMOOTH"
);
},
{
closed = 1;
nodes = (
"325 71 OFFCURVE",
"287 54 OFFCURVE",
"246 54 CURVE SMOOTH",
"184 54 OFFCURVE",
"137 91 OFFCURVE",
"137 140 CURVE SMOOTH",
"137 197 OFFCURVE",
"198 218 OFFCURVE",
"356 218 CURVE",
"356 105 LINE"
);
}
);
width = 515;
},
{
anchors = (
{
name = bottom;
position = "{265, 0}";
},
{
name = ogonek;
position = "{439, 10}";
},
{
name = top;
position = "{255, 490}";
}
);
associatedMasterId = "51C2DFEF-3776-4D13-9284-96485B799B57";
layerId = "DBDBA8EB-F3F6-4C9C-9B2D-569E9BDDA8B3";
name = "Jan 16 18, 23:07";
paths = (
{
closed = 1;
nodes = (
"486 0 LINE",
"486 282 LINE SMOOTH",
"486 422 OFFCURVE",
"404 500 OFFCURVE",
"256 500 CURVE SMOOTH",
"175 500 OFFCURVE",
"91 477 OFFCURVE",
"27 438 CURVE",
"65 323 LINE",
"117 347 OFFCURVE",
"173 361 OFFCURVE",
"217 361 CURVE SMOOTH",
"278 361 OFFCURVE",
"317 333 OFFCURVE",
"317 282 CURVE SMOOTH",
"317 129 LINE",
"361 0 LINE"
);
},
{
closed = 1;
nodes = (
"280 -10 OFFCURVE",
"352 43 OFFCURVE",
"413 155 CURVE",
"360 178 LINE",
"328 141 OFFCURVE",
"286 119 OFFCURVE",
"247 119 CURVE SMOOTH",
"213 119 OFFCURVE",
"194 133 OFFCURVE",
"194 157 CURVE SMOOTH",
"194 192 OFFCURVE",
"239 206 OFFCURVE",
"348 205 CURVE",
"348 301 LINE",
"142 302 OFFCURVE",
"20 236 OFFCURVE",
"20 126 CURVE SMOOTH",
"20 44 OFFCURVE",
"86 -10 OFFCURVE",
"184 -10 CURVE SMOOTH"
);
}
);
width = 525;
},
{
anchors = (
{
name = bottom;
position = "{267, 0}";
},
{
name = ogonek;
position = "{441, 10}";
},
{
name = top;
position = "{257, 490}";
}
);
layerId = "51C2DFEF-3776-4D13-9284-96485B799B57";
paths = (
{
closed = 1;
nodes = (
"488 0 LINE",
"488 272 LINE SMOOTH",
"488 420 OFFCURVE",
"406 500 OFFCURVE",
"246 500 CURVE SMOOTH",
"170 500 OFFCURVE",
"90 482 OFFCURVE",
"28 452 CURVE",
"68 335 LINE",
"119 353 OFFCURVE",
"166 362 OFFCURVE",
"209 362 CURVE SMOOTH",
"279 362 OFFCURVE",
"319 338 OFFCURVE",
"319 292 CURVE SMOOTH",
"319 129 LINE",
"363 0 LINE"
);
},
{
closed = 1;
nodes = (
"294 -10 OFFCURVE",
"362 41 OFFCURVE",
"395 145 CURVE",
"342 168 LINE",
"324 138 OFFCURVE",
"291 119 OFFCURVE",
"255 119 CURVE SMOOTH",
"220 119 OFFCURVE",
"196 137 OFFCURVE",
"196 163 CURVE SMOOTH",
"196 197 OFFCURVE",
"238 210 OFFCURVE",
"350 210 CURVE",
"350 296 LINE",
"124 296 OFFCURVE",
"22 247 OFFCURVE",
"22 138 CURVE SMOOTH",
"22 49 OFFCURVE",
"89 -10 OFFCURVE",
"195 -10 CURVE SMOOTH"
);
}
);
width = 528;
}
);
note = a;
unicode = 0061;
},
{
glyphname = ae;
layers = (
{
anchors = (
{
name = bottom;
position = "{418, 0}";
},
{
name = top;
position = "{418, 482}";
}
);
layerId = "F333AEC5-BB61-4D5E-9EDD-6124322D28F2";
paths = (
{
closed = 1;
nodes = (
"424 224 LINE",
"424 326 LINE SMOOTH",
"424 434 OFFCURVE",
"362 492 OFFCURVE",
"247 492 CURVE SMOOTH",
"183 492 OFFCURVE",
"123 474 OFFCURVE",
"59 436 CURVE",
"77 378 LINE",
"134 407 OFFCURVE",
"180 420 OFFCURVE",
"230 420 CURVE SMOOTH",
"314 420 OFFCURVE",
"362 384 OFFCURVE",
"362 313 CURVE SMOOTH",
"362 224 LINE"
);
},
{
closed = 1;
nodes = (
"322 -10 OFFCURVE",
"410 62 OFFCURVE",
"426 169 CURVE",
"397 183 LINE",
"381 108 OFFCURVE",
"316 60 OFFCURVE",
"232 60 CURVE SMOOTH",
"168 60 OFFCURVE",
"127 89 OFFCURVE",
"127 134 CURVE SMOOTH",
"127 196 OFFCURVE",
"201 219 OFFCURVE",
"369 219 CURVE",
"369 279 LINE",
"162 279 OFFCURVE",
"47 225 OFFCURVE",
"47 120 CURVE SMOOTH",
"47 42 OFFCURVE",
"111 -10 OFFCURVE",
"208 -10 CURVE SMOOTH"
);
},
{
closed = 1;
nodes = (
"661 -10 OFFCURVE",
"709 1 OFFCURVE",
"765 26 CURVE",
"747 84 LINE",
"701 65 OFFCURVE",
"660 55 OFFCURVE",
"619 55 CURVE SMOOTH",
"508 55 OFFCURVE",
"432 130 OFFCURVE",
"432 255 CURVE SMOOTH",
"432 364 OFFCURVE",
"489 424 OFFCURVE",
"577 424 CURVE SMOOTH",
"659 424 OFFCURVE",
"707 371 OFFCURVE",
"707 279 CURVE",
"426 279 LINE",
"426 219 LINE",
"778 219 LINE",
"780 234 OFFCURVE",
"782 269 OFFCURVE",
"782 288 CURVE SMOOTH",
"782 409 OFFCURVE",
"702 492 OFFCURVE",
"583 492 CURVE SMOOTH",
"449 492 OFFCURVE",
"358 388 OFFCURVE",
"358 236 CURVE SMOOTH",
"358 82 OFFCURVE",
"451 -10 OFFCURVE",
"607 -10 CURVE SMOOTH"
);
}
);
width = 834;
},
{
anchors = (
{
name = bottom;
position = "{397, 0}";
},
{
name = top;
position = "{397, 490}";
}
);
layerId = "51C2DFEF-3776-4D13-9284-96485B799B57";
paths = (
{
closed = 1;
nodes = (
"446 255 LINE",
"446 282 LINE SMOOTH",
"446 429 OFFCURVE",
"383 500 OFFCURVE",
"253 500 CURVE SMOOTH",
"175 500 OFFCURVE",
"91 477 OFFCURVE",
"27 438 CURVE",
"65 321 LINE",
"117 345 OFFCURVE",
"173 359 OFFCURVE",
"217 359 CURVE SMOOTH",
"278 359 OFFCURVE",
"313 331 OFFCURVE",
"313 282 CURVE SMOOTH",
"313 255 LINE"
);
},
{
closed = 1;
nodes = (
"282 -10 OFFCURVE",
"354 43 OFFCURVE",
"415 155 CURVE",
"362 178 LINE",
"329 140 OFFCURVE",
"288 119 OFFCURVE",
"249 119 CURVE SMOOTH",
"215 119 OFFCURVE",
"196 133 OFFCURVE",
"196 157 CURVE SMOOTH",
"196 192 OFFCURVE",
"241 206 OFFCURVE",
"350 205 CURVE",
"350 299 LINE",
"144 300 OFFCURVE",
"22 236 OFFCURVE",
"22 126 CURVE SMOOTH",
"22 44 OFFCURVE",
"88 -10 OFFCURVE",
"186 -10 CURVE SMOOTH"
);
},
{
closed = 1;
nodes = (
"634 -10 OFFCURVE",
"697 1 OFFCURVE",
"759 22 CURVE",
"720 141 LINE",
"680 127 OFFCURVE",
"640 120 OFFCURVE",
"603 120 CURVE SMOOTH",
"507 120 OFFCURVE",
"464 165 OFFCURVE",
"464 263 CURVE SMOOTH",
"464 334 OFFCURVE",
"487 369 OFFCURVE",
"533 369 CURVE SMOOTH",
"574 369 OFFCURVE",
"598 343 OFFCURVE",
"598 299 CURVE",
"438 299 LINE",
"438 199 LINE",
"761 199 LINE",
"765 215 OFFCURVE",
"768 244 OFFCURVE",
"768 271 CURVE SMOOTH",
"768 415 OFFCURVE",
"685 500 OFFCURVE",
"545 500 CURVE SMOOTH",
"400 500 OFFCURVE",
"318 408 OFFCURVE",
"318 245 CURVE SMOOTH",
"318 77 OFFCURVE",
"405 -10 OFFCURVE",
"574 -10 CURVE SMOOTH"
);
}
);
width = 796;
},
{
anchors = (
{
name = bottom;
position = "{406, 0}";
},
{
name = top;
position = "{406, 480}";
}
);
layerId = "0B2E441B-685E-400D-9B9B-E078DEED62EF";
paths = (
{
closed = 1;
nodes = (
"389 239 LINE",
"389 327 LINE SMOOTH",
"389 429 OFFCURVE",
"332 486 OFFCURVE",
"230 486 CURVE SMOOTH",
"164 486 OFFCURVE",
"95 463 OFFCURVE",
"49 426 CURVE",
"54 412 LINE",
"99 447 OFFCURVE",
"162 468 OFFCURVE",
"224 468 CURVE SMOOTH",
"321 468 OFFCURVE",
"374 416 OFFCURVE",
"374 322 CURVE SMOOTH",
"374 239 LINE"
);
},
{
closed = 1;
nodes = (
"296 -10 OFFCURVE",
"380 55 OFFCURVE",
"397 154 CURVE",
"386 162 LINE",
"372 73 OFFCURVE",
"297 8 OFFCURVE",
"197 8 CURVE SMOOTH",
"119 8 OFFCURVE",
"67 48 OFFCURVE",
"67 112 CURVE SMOOTH",
"67 202 OFFCURVE",
"170 244 OFFCURVE",
"382 244 CURVE",
"382 262 LINE",
"166 262 OFFCURVE",
"46 210 OFFCURVE",
"46 109 CURVE SMOOTH",
"46 37 OFFCURVE",
"106 -10 OFFCURVE",
"193 -10 CURVE SMOOTH"
);
},
{
closed = 1;
nodes = (
"656 -10 OFFCURVE",
"703 5 OFFCURVE",
"744 37 CURVE",
"739 51 LINE",
"697 21 OFFCURVE",
"653 6 OFFCURVE",
"601 6 CURVE SMOOTH",
"476 6 OFFCURVE",
"394 93 OFFCURVE",
"394 241 CURVE SMOOTH",
"394 376 OFFCURVE",
"463 468 OFFCURVE",
"573 468 CURVE SMOOTH",
"681 468 OFFCURVE",
"744 380 OFFCURVE",
"744 261 CURVE",
"383 261 LINE",
"383 244 LINE",
"764 244 LINE",
"765 251 OFFCURVE",
"765 256 OFFCURVE",
"765 264 CURVE SMOOTH",
"765 388 OFFCURVE",
"692 486 OFFCURVE",
"575 486 CURVE SMOOTH",
"457 486 OFFCURVE",
"374 386 OFFCURVE",
"374 239 CURVE SMOOTH",
"374 87 OFFCURVE",
"462 -10 OFFCURVE",
"601 -10 CURVE SMOOTH"
);
}
);
width = 812;
}
);
leftMetricsKey = a;
rightMetricsKey = e;
unicode = 00E6;
},
{
glyphname = b;
layers = (
{
anchors = (
{
name = bottom;
position = "{289, 0}";
},
{
name = top;
position = "{289, 490}";
}
);
layerId = "51C2DFEF-3776-4D13-9284-96485B799B57";
paths = (
{
closed = 1;
nodes = (
"160 0 LINE",
"220 120 LINE",
"220 739 LINE",
"54 739 LINE",
"54 0 LINE"
);
},
{
closed = 1;
nodes = (
"464 -10 OFFCURVE",
"555 94 OFFCURVE",
"555 249 CURVE SMOOTH",
"555 400 OFFCURVE",
"470 500 OFFCURVE",
"346 500 CURVE SMOOTH",
"260 500 OFFCURVE",
"196 452 OFFCURVE",
"164 371 CURVE",
"211 318 LINE",
"226 347 OFFCURVE",
"255 356 OFFCURVE",
"284 356 CURVE SMOOTH",
"345 356 OFFCURVE",
"379 316 OFFCURVE",
"379 243 CURVE SMOOTH",
"379 173 OFFCURVE",
"349 134 OFFCURVE",
"295 134 CURVE SMOOTH",
"259 134 OFFCURVE",
"228 151 OFFCURVE",
"211 183 CURVE",
"162 98 LINE",
"191 27 OFFCURVE",
"247 -10 OFFCURVE",
"328 -10 CURVE SMOOTH"
);
}
);
width = 576;
},
{
anchors = (
{
name = bottom;
position = "{308, 0}";
},
{
name = top;
position = "{308, 490}";
}
);
associatedMasterId = "51C2DFEF-3776-4D13-9284-96485B799B57";
layerId = "1A034D49-B1B2-466F-8B74-8C3808735FA2";
name = "Dec 4 17, 16:22";
paths = (
{
closed = 1;
nodes = (
"172 0 LINE",
"232 120 LINE",
"232 739 LINE",
"62 739 LINE",
"62 0 LINE"
);
},
{
closed = 1;
nodes = (
"488 -10 OFFCURVE",
"582 94 OFFCURVE",
"582 249 CURVE SMOOTH",
"582 400 OFFCURVE",
"494 500 OFFCURVE",
"364 500 CURVE SMOOTH",
"230 500 OFFCURVE",
"151 394 OFFCURVE",
"151 232 CURVE SMOOTH",
"151 73 OFFCURVE",
"218 -10 OFFCURVE",
"346 -10 CURVE SMOOTH"
);
},
{
closed = 1;
nodes = (
"250 134 OFFCURVE",
"207 178 OFFCURVE",
"207 246 CURVE SMOOTH",
"207 312 OFFCURVE",
"247 356 OFFCURVE",
"308 356 CURVE SMOOTH",
"369 356 OFFCURVE",
"406 313 OFFCURVE",
"406 242 CURVE SMOOTH",
"406 174 OFFCURVE",
"372 134 OFFCURVE",
"315 134 CURVE SMOOTH"
);
}
);
width = 612;
},
{
anchors = (
{
name = bottom;
position = "{260, 0}";
},
{
name = top;
position = "{260, 480}";
}
);
background = {
components = (
{
name = o;
transform = "{1, 0, 0, 1, -15, 0}";
}
);
};
layerId = "0B2E441B-685E-400D-9B9B-E078DEED62EF";
paths = (
{
closed = 1;
nodes = (
"104 0 LINE",
"107 64 LINE",
"107 739 LINE",
"88 739 LINE",
"88 0 LINE"
);
},
{
closed = 1;
nodes = (
"392 -10 OFFCURVE",
"477 90 OFFCURVE",
"477 240 CURVE SMOOTH",
"477 389 OFFCURVE",
"393 486 OFFCURVE",
"269 486 CURVE SMOOTH",
"186 486 OFFCURVE",
"126 444 OFFCURVE",
"93 375 CURVE",
"97 355 LINE",
"127 425 OFFCURVE",
"185 468 OFFCURVE",
"264 468 CURVE SMOOTH",
"380 468 OFFCURVE",
"456 378 OFFCURVE",
"456 237 CURVE SMOOTH",
"456 97 OFFCURVE",
"381 8 OFFCURVE",
"269 8 CURVE SMOOTH",
"189 8 OFFCURVE",
"128 53 OFFCURVE",
"98 126 CURVE",
"95 96 LINE",
"128 29 OFFCURVE",
"187 -10 OFFCURVE",
"267 -10 CURVE SMOOTH"
);
}
);
width = 534;
},
{
anchors = (
{
name = bottom;
position = "{285, 0}";
},
{
name = top;
position = "{285, 482}";
}
);
associatedMasterId = "F333AEC5-BB61-4D5E-9EDD-6124322D28F2";
background = {
components = (
{
name = o;
transform = "{1, 0, 0, 1, 4, 0}";
}
);
};
layerId = "F7EC75FB-1694-422C-A91F-B500BDDB4773";
name = "Dec 5 17, 11:38";
paths = (
{
closed = 1;
nodes = (
"141 0 LINE",
"165 56 LINE",
"165 739 LINE",
"85 739 LINE",
"85 0 LINE"
);
},
{
closed = 1;
nodes = (
"430 -10 OFFCURVE",
"520 94 OFFCURVE",
"520 250 CURVE SMOOTH",
"520 395 OFFCURVE",
"437 492 OFFCURVE",
"313 492 CURVE SMOOTH",
"244 492 OFFCURVE",
"179 462 OFFCURVE",
"138 410 CURVE",
"156 360 LINE",
"191 399 OFFCURVE",
"241 422 OFFCURVE",
"292 422 CURVE SMOOTH",
"382 422 OFFCURVE",
"440 350 OFFCURVE",
"440 240 CURVE SMOOTH",
"440 132 OFFCURVE",
"387 60 OFFCURVE",
"300 60 CURVE SMOOTH",
"228 60 OFFCURVE",
"168 107 OFFCURVE",
"151 178 CURVE",
"118 123 LINE",
"140 39 OFFCURVE",
"209 -10 OFFCURVE",
"296 -10 CURVE SMOOTH"
);
}
);
width = 574;
},
{
anchors = (
{
name = bottom;
position = "{283, 0}";
},
{
name = top;
position = "{283, 482}";
}
);
background = {
components = (
{
name = o;
transform = "{1, 0, 0, 1, 2, 0}";
}
);
};
layerId = "F333AEC5-BB61-4D5E-9EDD-6124322D28F2";
paths = (
{
closed = 1;
nodes = (
"139 0 LINE",
"163 56 LINE",
"163 739 LINE",
"83 739 LINE",
"83 0 LINE"
);
},
{
closed = 1;
nodes = (
"426 -10 OFFCURVE",
"518 93 OFFCURVE",
"518 247 CURVE SMOOTH",
"518 394 OFFCURVE",
"430 492 OFFCURVE",
"298 492 CURVE SMOOTH",
"206 492 OFFCURVE",
"139 445 OFFCURVE",
"107 364 CURVE",
"137 320 LINE",
"159 384 OFFCURVE",
"211 422 OFFCURVE",
"279 422 CURVE SMOOTH",
"375 422 OFFCURVE",
"438 346 OFFCURVE",
"438 235 CURVE SMOOTH",
"438 130 OFFCURVE",
"381 60 OFFCURVE",
"288 60 CURVE SMOOTH",
"221 60 OFFCURVE",
"169 96 OFFCURVE",
"143 155 CURVE",
"106 111 LINE",
"137 33 OFFCURVE",
"200 -10 OFFCURVE",
"288 -10 CURVE SMOOTH"
);
}
);
width = 569;
}
);
note = b;
unicode = 0062;
},
{
glyphname = c;
layers = (
{
anchors = (
{
name = bottom;
position = "{247, 0}";
},
{
name = top;
position = "{267, 482}";
}
);
layerId = "F333AEC5-BB61-4D5E-9EDD-6124322D28F2";
paths = (
{
closed = 1;
nodes = (
"329 -10 OFFCURVE",
"389 4 OFFCURVE",
"429 28 CURVE",
"411 86 LINE",
"371 67 OFFCURVE",
"327 56 OFFCURVE",
"290 56 CURVE SMOOTH",
"190 56 OFFCURVE",
"133 126 OFFCURVE",
"133 243 CURVE SMOOTH",
"133 359 OFFCURVE",
"189 422 OFFCURVE",
"289 422 CURVE SMOOTH",
"327 422 OFFCURVE",
"370 413 OFFCURVE",
"410 395 CURVE",
"429 460 LINE",
"385 481 OFFCURVE",
"338 492 OFFCURVE",
"290 492 CURVE SMOOTH",
"147 492 OFFCURVE",
"51 386 OFFCURVE",
"51 227 CURVE SMOOTH",
"51 78 OFFCURVE",
"133 -10 OFFCURVE",
"271 -10 CURVE SMOOTH"
);
}
);
width = 466;
},
{
anchors = (
{
name = bottom;
position = "{225, 0}";
},
{
name = top;
position = "{241, 490}";
}
);
layerId = "51C2DFEF-3776-4D13-9284-96485B799B57";
paths = (
{
closed = 1;
nodes = (
"344 -10 OFFCURVE",
"395 2 OFFCURVE",
"446 28 CURVE",
"408 145 LINE",
"379 133 OFFCURVE",
"349 128 OFFCURVE",
"321 128 CURVE SMOOTH",
"240 128 OFFCURVE",
"194 171 OFFCURVE",
"194 248 CURVE SMOOTH",
"194 317 OFFCURVE",
"231 356 OFFCURVE",
"305 356 CURVE SMOOTH",
"338 356 OFFCURVE",
"378 349 OFFCURVE",
"408 339 CURVE",
"443 473 LINE",
"403 490 OFFCURVE",
"348 500 OFFCURVE",
"296 500 CURVE SMOOTH",
"126 500 OFFCURVE",
"18 398 OFFCURVE",
"18 236 CURVE SMOOTH",
"18 81 OFFCURVE",
"117 -10 OFFCURVE",
"284 -10 CURVE SMOOTH"
);
}
);
width = 460;
},
{
anchors = (
{
name = bottom;
position = "{218, 0}";
},
{
name = top;
position = "{233, 480}";
}
);
layerId = "0B2E441B-685E-400D-9B9B-E078DEED62EF";
paths = (
{
closed = 1;
nodes = (
"309 -10 OFFCURVE",
"359 4 OFFCURVE",
"400 28 CURVE",
"395 42 LINE",
"351 18 OFFCURVE",
"306 6 OFFCURVE",
"265 6 CURVE SMOOTH",
"152 6 OFFCURVE",
"78 98 OFFCURVE",
"78 241 CURVE SMOOTH",
"78 384 OFFCURVE",
"151 468 OFFCURVE",
"273 468 CURVE SMOOTH",
"317 468 OFFCURVE",
"357 457 OFFCURVE",
"395 436 CURVE",
"402 452 LINE",
"361 475 OFFCURVE",
"320 486 OFFCURVE",
"275 486 CURVE SMOOTH",
"140 486 OFFCURVE",
"57 391 OFFCURVE",
"57 236 CURVE SMOOTH",
"57 85 OFFCURVE",
"136 -10 OFFCURVE",
"261 -10 CURVE SMOOTH"
);
}
);
width = 430;
}
);
leftMetricsKey = o;
note = c;
unicode = 0063;
},
{
glyphname = d;
layers = (
{
anchors = (
{
name = bottom;
position = "{275, 0}";
},
{
name = center;
position = "{391, 592}";
},
{
name = top;
position = "{275, 480}";
},
{
name = topright;
position = "{548, 480}";
}
);
layerId = "0B2E441B-685E-400D-9B9B-E078DEED62EF";
paths = (
{
closed = 1;
nodes = (
"446 0 LINE",
"446 739 LINE",
"427 739 LINE",
"427 64 LINE",
"430 0 LINE"
);
},
{
closed = 1;
nodes = (
"339 -10 OFFCURVE",
"396 23 OFFCURVE",
"432 85 CURVE",
"429 106 LINE",
"397 44 OFFCURVE",
"341 8 OFFCURVE",
"270 8 CURVE SMOOTH",
"153 8 OFFCURVE",
"78 101 OFFCURVE",
"78 239 CURVE SMOOTH",
"78 374 OFFCURVE",
"150 468 OFFCURVE",
"265 468 CURVE SMOOTH",
"339 468 OFFCURVE",
"397 431 OFFCURVE",
"429 367 CURVE",
"433 396 LINE",
"399 454 OFFCURVE",
"343 486 OFFCURVE",
"270 486 CURVE SMOOTH",
"142 486 OFFCURVE",
"57 386 OFFCURVE",
"57 237 CURVE SMOOTH",
"57 89 OFFCURVE",
"141 -10 OFFCURVE",
"268 -10 CURVE SMOOTH"
);
}
);
width = 534;
},
{
anchors = (
{
name = bottom;
position = "{284, 0}";
},
{
name = center;
position = "{413, 600}";
},
{
name = top;
position = "{288, 490}";
},
{
name = topright;
position = "{628, 490}";
}
);
layerId = "51C2DFEF-3776-4D13-9284-96485B799B57";
paths = (
{
closed = 1;
nodes = (
"522 0 LINE",
"522 739 LINE",
"356 739 LINE",
"356 120 LINE",
"416 0 LINE"
);
},
{
closed = 1;
nodes = (
"299 -10 OFFCURVE",
"357 25 OFFCURVE",
"393 85 CURVE",
"364 179 LINE",
"347 151 OFFCURVE",
"318 134 OFFCURVE",
"283 134 CURVE SMOOTH",
"229 134 OFFCURVE",
"197 176 OFFCURVE",
"197 248 CURVE SMOOTH",
"197 316 OFFCURVE",
"228 356 OFFCURVE",
"281 356 CURVE SMOOTH",
"317 356 OFFCURVE",
"348 338 OFFCURVE",
"365 308 CURVE",
"401 416 LINE",
"370 472 OFFCURVE",
"318 500 OFFCURVE",
"250 500 CURVE SMOOTH",
"113 500 OFFCURVE",
"21 397 OFFCURVE",
"21 241 CURVE SMOOTH",
"21 89 OFFCURVE",
"108 -10 OFFCURVE",
"228 -10 CURVE SMOOTH"
);
}
);
width = 576;
},
{
anchors = (
{
name = bottom;
position = "{305, 0}";
},
{
name = center;
position = "{431, 600}";
},
{
name = top;
position = "{305, 490}";
},
{
name = topright;
position = "{613, 490}";
}
);
associatedMasterId = "51C2DFEF-3776-4D13-9284-96485B799B57";
layerId = "13E31E58-1E9F-497D-901E-0D85436F055C";
name = "Dec 4 17, 16:24";
paths = (
{
closed = 1;
nodes = (
"550 0 LINE",
"550 739 LINE",
"380 739 LINE",
"380 120 LINE",
"440 0 LINE"
);
},
{
closed = 1;
nodes = (
"125 500 OFFCURVE",
"30 397 OFFCURVE",
"30 242 CURVE SMOOTH",
"30 91 OFFCURVE",
"117 -10 OFFCURVE",
"247 -10 CURVE SMOOTH",
"375 -10 OFFCURVE",
"461 96 OFFCURVE",
"461 255 CURVE SMOOTH",
"461 414 OFFCURVE",
"395 500 OFFCURVE",
"267 500 CURVE SMOOTH"
);
},
{
closed = 1;
nodes = (
"362 356 OFFCURVE",
"405 311 OFFCURVE",
"405 244 CURVE SMOOTH",
"405 178 OFFCURVE",
"363 134 OFFCURVE",
"300 134 CURVE SMOOTH",
"242 134 OFFCURVE",
"206 178 OFFCURVE",
"206 248 CURVE SMOOTH",
"206 316 OFFCURVE",
"240 356 OFFCURVE",
"298 356 CURVE SMOOTH"
);
}
);
width = 612;
},
{
anchors = (
{
name = bottom;
position = "{288, 0}";
},
{
name = center;
position = "{413, 608}";
},
{
name = top;
position = "{288, 482}";
},
{
name = topright;
position = "{566, 482}";
}
);
associatedMasterId = "F333AEC5-BB61-4D5E-9EDD-6124322D28F2";
layerId = "4951A4C1-705E-4CAF-9EC5-1BC43231933B";
name = "Dec 5 17, 11:44";
paths = (
{
closed = 1;
nodes = (
"488 0 LINE",
"488 739 LINE",
"408 739 LINE",
"408 56 LINE",
"432 0 LINE"
);
},
{
closed = 1;
nodes = (
"337 -10 OFFCURVE",
"401 22 OFFCURVE",
"454 83 CURVE",
"435 133 LINE",
"390 84 OFFCURVE",
"341 60 OFFCURVE",
"288 60 CURVE SMOOTH",
"195 60 OFFCURVE",
"134 135 OFFCURVE",
"134 250 CURVE SMOOTH",
"134 356 OFFCURVE",
"188 422 OFFCURVE",
"275 422 CURVE SMOOTH",
"346 422 OFFCURVE",
"406 378 OFFCURVE",
"422 313 CURVE",
"454 376 LINE",
"428 451 OFFCURVE",
"368 492 OFFCURVE",
"284 492 CURVE SMOOTH",
"146 492 OFFCURVE",
"54 389 OFFCURVE",
"54 235 CURVE SMOOTH",
"54 88 OFFCURVE",
"139 -10 OFFCURVE",
"266 -10 CURVE SMOOTH"
);
}
);
width = 573;
},
{
anchors = (
{
name = bottom;
position = "{287, 0}";
},
{
name = center;
position = "{412, 598}";
},
{
name = top;
position = "{287, 482}";
},
{
name = topright;
position = "{591, 482}";
}
);
layerId = "F333AEC5-BB61-4D5E-9EDD-6124322D28F2";
paths = (
{
closed = 1;
nodes = (
"487 0 LINE",
"487 739 LINE",
"407 739 LINE",
"407 56 LINE",
"431 0 LINE"
);
},
{
closed = 1;
nodes = (
"348 -10 OFFCURVE",
"411 30 OFFCURVE",
"448 96 CURVE",
"419 132 LINE",
"392 87 OFFCURVE",
"347 60 OFFCURVE",
"290 60 CURVE SMOOTH",
"194 60 OFFCURVE",
"132 135 OFFCURVE",
"132 246 CURVE SMOOTH",
"132 352 OFFCURVE",
"188 422 OFFCURVE",
"281 422 CURVE SMOOTH",
"342 422 OFFCURVE",
"390 394 OFFCURVE",
"418 346 CURVE",
"455 390 LINE",
"420 455 OFFCURVE",
"358 492 OFFCURVE",
"278 492 CURVE SMOOTH",
"142 492 OFFCURVE",
"52 390 OFFCURVE",
"52 237 CURVE SMOOTH",
"52 89 OFFCURVE",
"138 -10 OFFCURVE",
"267 -10 CURVE SMOOTH"
);
}
);
width = 570;
}
);
note = d;
unicode = 0064;
},
{
glyphname = eth;
layers = (
{
layerId = "F333AEC5-BB61-4D5E-9EDD-6124322D28F2";
paths = (
{
closed = 1;
nodes = (
"410 -9 OFFCURVE",
"493 94 OFFCURVE",
"493 273 CURVE SMOOTH",
"493 499 OFFCURVE",
"375 662 OFFCURVE",
"149 748 CURVE",
"129 688 LINE",
"313 609 OFFCURVE",
"421 467 OFFCURVE",
"421 305 CURVE",
"443 327 LINE",
"411 404 OFFCURVE",
"344 449 OFFCURVE",
"259 449 CURVE SMOOTH",
"132 449 OFFCURVE",
"48 355 OFFCURVE",
"48 215 CURVE SMOOTH",
"48 81 OFFCURVE",
"135 -9 OFFCURVE",
"265 -9 CURVE SMOOTH"
);
},
{
closed = 1;
nodes = (
"184 61 OFFCURVE",
"128 126 OFFCURVE",
"128 230 CURVE SMOOTH",
"128 325 OFFCURVE",
"175 379 OFFCURVE",
"258 379 CURVE SMOOTH",
"352 379 OFFCURVE",
"415 313 OFFCURVE",
"415 213 CURVE SMOOTH",
"415 121 OFFCURVE",
"358 61 OFFCURVE",
"273 61 CURVE SMOOTH"
);
},
{
closed = 1;
nodes = (
"419 683 LINE",
"394 729 LINE",
"134 593 LINE",
"159 547 LINE"
);
}
);
width = 553;
},
{
layerId = "51C2DFEF-3776-4D13-9284-96485B799B57";
paths = (
{
closed = 1;
nodes = (
"435 -9 OFFCURVE",
"533 101 OFFCURVE",
"533 285 CURVE SMOOTH",
"533 494 OFFCURVE",
"401 654 OFFCURVE",
"149 750 CURVE",
"102 626 LINE",
"274 542 OFFCURVE",
"376 446 OFFCURVE",
"376 367 CURVE",
"463 282 LINE",
"463 372 OFFCURVE",
"371 447 OFFCURVE",
"252 447 CURVE SMOOTH",
"116 447 OFFCURVE",
"25 354 OFFCURVE",
"25 215 CURVE SMOOTH",
"25 81 OFFCURVE",
"124 -9 OFFCURVE",
"272 -9 CURVE SMOOTH"
);
},
{
closed = 1;
nodes = (
"236 131 OFFCURVE",
"202 168 OFFCURVE",
"202 224 CURVE SMOOTH",
"202 276 OFFCURVE",
"231 307 OFFCURVE",
"280 307 CURVE SMOOTH",
"330 307 OFFCURVE",
"363 270 OFFCURVE",
"363 215 CURVE SMOOTH",
"363 164 OFFCURVE",
"332 131 OFFCURVE",
"286 131 CURVE SMOOTH"
);
},
{
closed = 1;
nodes = (
"470 653 LINE",
"419 739 LINE",
"115 555 LINE",
"166 469 LINE"
);
}
);
width = 571;
},
{
layerId = "0B2E441B-685E-400D-9B9B-E078DEED62EF";
paths = (
{
closed = 1;
nodes = (
"401 -9 OFFCURVE",
"476 86 OFFCURVE",
"476 249 CURVE SMOOTH",
"476 488 OFFCURVE",
"351 687 OFFCURVE",
"161 744 CURVE",
"155 728 LINE",
"342 667 OFFCURVE",
"463 471 OFFCURVE",
"457 237 CURVE",
"459 317 LINE",
"433 400 OFFCURVE",
"364 449 OFFCURVE",
"274 449 CURVE SMOOTH",
"151 449 OFFCURVE",
"69 357 OFFCURVE",
"69 221 CURVE SMOOTH",
"69 83 OFFCURVE",
"157 -9 OFFCURVE",
"278 -9 CURVE SMOOTH"
);
},
{
closed = 1;
nodes = (
"170 9 OFFCURVE",
"90 94 OFFCURVE",
"90 226 CURVE SMOOTH",
"90 351 OFFCURVE",
"160 431 OFFCURVE",
"272 431 CURVE SMOOTH",
"381 431 OFFCURVE",
"456 355 OFFCURVE",
"456 221 CURVE SMOOTH",
"456 94 OFFCURVE",
"385 9 OFFCURVE",
"279 9 CURVE SMOOTH"
);
},
{
closed = 1;
nodes = (
"394 706 LINE",
"387 720 LINE",
"156 616 LINE",
"163 602 LINE"
);
}
);
width = 556;
}
);
unicode = 00F0;
},
{
glyphname = e;
layers = (
{
anchors = (
{
name = bottom;
position = "{285, 0}";
},
{
name = ogonek;
position = "{428, 10}";
},
{
name = top;
position = "{270, 482}";
}
);
layerId = "F333AEC5-BB61-4D5E-9EDD-6124322D28F2";
paths = (
{
closed = 1;
nodes = (
"354 -10 OFFCURVE",
"414 3 OFFCURVE",
"457 26 CURVE",
"439 84 LINE",
"402 66 OFFCURVE",
"355 55 OFFCURVE",
"313 55 CURVE SMOOTH",
"200 55 OFFCURVE",
"133 130 OFFCURVE",
"133 255 CURVE SMOOTH",
"133 364 OFFCURVE",
"182 424 OFFCURVE",
"270 424 CURVE SMOOTH",
"352 424 OFFCURVE",
"400 371 OFFCURVE",
"400 279 CURVE",
"119 279 LINE",
"119 219 LINE",
"471 219 LINE",
"473 234 OFFCURVE",
"475 269 OFFCURVE",
"475 288 CURVE SMOOTH",
"475 409 OFFCURVE",
"395 492 OFFCURVE",
"276 492 CURVE SMOOTH",
"142 492 OFFCURVE",
"51 387 OFFCURVE",
"51 239 CURVE SMOOTH",
"51 85 OFFCURVE",
"146 -10 OFFCURVE",
"299 -10 CURVE SMOOTH"
);
}
);
width = 527;
},
{
anchors = (
{
name = bottom;
position = "{265, 0}";
},
{
name = ogonek;
position = "{432, 10}";
},
{
name = top;
position = "{267, 490}";
}
);
layerId = "51C2DFEF-3776-4D13-9284-96485B799B57";
paths = (
{
closed = 1;
nodes = (
"364 -10 OFFCURVE",
"427 1 OFFCURVE",
"489 22 CURVE",
"451 139 LINE",
"410 125 OFFCURVE",
"371 118 OFFCURVE",
"331 118 CURVE SMOOTH",
"234 118 OFFCURVE",
"189 160 OFFCURVE",
"189 261 CURVE SMOOTH",
"189 335 OFFCURVE",
"215 373 OFFCURVE",
"264 373 CURVE SMOOTH",
"309 373 OFFCURVE",
"335 345 OFFCURVE",
"335 297 CURVE",
"168 297 LINE",
"168 197 LINE",
"491 197 LINE",
"495 222 OFFCURVE",
"498 247 OFFCURVE",
"498 273 CURVE SMOOTH",
"498 416 OFFCURVE",
"416 500 OFFCURVE",
"276 500 CURVE SMOOTH",
"121 500 OFFCURVE",
"18 398 OFFCURVE",
"18 244 CURVE SMOOTH",
"18 86 OFFCURVE",
"126 -10 OFFCURVE",
"304 -10 CURVE SMOOTH"
);
}
);
width = 526;
},
{
anchors = (
{
name = bottom;
position = "{249, 0}";
},
{
name = ogonek;
position = "{395, 10}";
},
{
name = top;
position = "{253, 480}";
}
);
layerId = "0B2E441B-685E-400D-9B9B-E078DEED62EF";
paths = (
{
closed = 1;
nodes = (
"334 -10 OFFCURVE",
"383 3 OFFCURVE",
"423 30 CURVE",
"418 44 LINE",
"375 19 OFFCURVE",
"330 7 OFFCURVE",
"284 7 CURVE SMOOTH",
"157 7 OFFCURVE",
"78 97 OFFCURVE",
"78 242 CURVE SMOOTH",
"78 382 OFFCURVE",
"146 468 OFFCURVE",
"256 468 CURVE SMOOTH",
"360 468 OFFCURVE",
"425 388 OFFCURVE",
"425 261 CURVE",
"67 261 LINE",
"67 244 LINE",
"445 244 LINE",
"446 251 OFFCURVE",
"446 256 OFFCURVE",
"446 264 CURVE SMOOTH",
"446 396 OFFCURVE",
"370 486 OFFCURVE",
"258 486 CURVE SMOOTH",
"137 486 OFFCURVE",
"57 387 OFFCURVE",
"57 239 CURVE SMOOTH",
"57 87 OFFCURVE",
"145 -10 OFFCURVE",
"282 -10 CURVE SMOOTH"
);
}
);
width = 493;
}
);
note = e;
unicode = 0065;
},
{
glyphname = f;
layers = (
{
anchors = (
{
name = bottom;
position = "{139, 0}";
},
{
name = top;
position = "{266, 739}";
}
);
layerId = "F333AEC5-BB61-4D5E-9EDD-6124322D28F2";
paths = (
{
closed = 1;
nodes = (
"179 0 LINE",
"179 587 LINE SMOOTH",
"179 649 OFFCURVE",
"208 681 OFFCURVE",
"263 681 CURVE SMOOTH",
"289 681 OFFCURVE",
"323 676 OFFCURVE",
"348 664 CURVE",
"365 724 LINE",
"334 739 OFFCURVE",
"303 749 OFFCURVE",
"269 749 CURVE SMOOTH",
"167 749 OFFCURVE",
"99 680 OFFCURVE",
"99 577 CURVE SMOOTH",
"99 0 LINE"
);
},
{
closed = 1;
nodes = (
"329 415 LINE",
"329 482 LINE",
"27 482 LINE",
"27 415 LINE"
);
}
);
width = 340;
},
{
anchors = (
{
name = bottom;
position = "{168, 0}";
},
{
name = top;
position = "{316, 739}";
}
);
layerId = "51C2DFEF-3776-4D13-9284-96485B799B57";
paths = (
{
closed = 1;
nodes = (
"249 0 LINE",
"249 540 LINE SMOOTH",
"249 582 OFFCURVE",
"277 607 OFFCURVE",
"327 607 CURVE SMOOTH",
"351 607 OFFCURVE",
"379 601 OFFCURVE",
"392 594 CURVE",
"426 717 LINE",
"395 737 OFFCURVE",
"349 749 OFFCURVE",
"302 749 CURVE SMOOTH",
"172 749 OFFCURVE",
"85 661 OFFCURVE",
"85 528 CURVE SMOOTH",
"85 0 LINE"
);
},
{
closed = 1;
nodes = (
"379 355 LINE",
"379 490 LINE",
"7 490 LINE",
"7 355 LINE"
);
}
);
width = 383;
},
{
anchors = (
{
name = bottom;
position = "{106, 0}";
},
{
name = top;
position = "{213, 739}";
}
);
layerId = "0B2E441B-685E-400D-9B9B-E078DEED62EF";
paths = (
{
closed = 1;
nodes = (
"116 0 LINE",
"116 636 LINE SMOOTH",
"116 694 OFFCURVE",
"156 731 OFFCURVE",
"217 731 CURVE SMOOTH",
"244 731 OFFCURVE",
"274 724 OFFCURVE",
"297 712 CURVE",
"303 726 LINE",
"276 741 OFFCURVE",
"248 749 OFFCURVE",
"220 749 CURVE SMOOTH",
"146 749 OFFCURVE",
"96 702 OFFCURVE",
"96 631 CURVE SMOOTH",
"96 0 LINE"
);
},
{
closed = 1;
nodes = (
"275 463 LINE",
"275 480 LINE",
"22 480 LINE",
"22 463 LINE"
);
}
);
width = 295;
}
);
note = f;
unicode = 0066;
},
{
glyphname = g;
layers = (
{
anchors = (
{
name = bottom;
position = "{268, 0}";
},
{
name = top;
position = "{258, 480}";
}
);
layerId = "0B2E441B-685E-400D-9B9B-E078DEED62EF";
paths = (
{
closed = 1;
nodes = (
"379 -227 OFFCURVE",
"449 -154 OFFCURVE",
"449 -32 CURVE SMOOTH",
"449 482 LINE",
"433 482 LINE",
"428 408 LINE",
"428 -32 LINE SMOOTH",
"428 -145 OFFCURVE",
"369 -209 OFFCURVE",
"264 -209 CURVE SMOOTH",
"219 -209 OFFCURVE",
"175 -197 OFFCURVE",
"121 -170 CURVE",
"115 -187 LINE",
"167 -214 OFFCURVE",
"213 -227 OFFCURVE",
"262 -227 CURVE SMOOTH"
);
},
{
closed = 1;
nodes = (
"339 -10 OFFCURVE",
"396 23 OFFCURVE",
"432 85 CURVE",
"429 106 LINE",
"397 44 OFFCURVE",
"341 8 OFFCURVE",
"270 8 CURVE SMOOTH",
"153 8 OFFCURVE",
"78 101 OFFCURVE",
"78 239 CURVE SMOOTH",
"78 374 OFFCURVE",
"150 468 OFFCURVE",
"265 468 CURVE SMOOTH",
"339 468 OFFCURVE",
"397 431 OFFCURVE",
"429 367 CURVE",
"433 396 LINE",
"399 454 OFFCURVE",
"343 486 OFFCURVE",
"270 486 CURVE SMOOTH",
"142 486 OFFCURVE",
"57 386 OFFCURVE",
"57 237 CURVE SMOOTH",
"57 89 OFFCURVE",
"141 -10 OFFCURVE",
"268 -10 CURVE SMOOTH"
);
}
);
width = 537;
},
{
anchors = (
{
name = bottom;
position = "{295, 0}";
},
{
name = top;
position = "{265, 490}";
}
);
layerId = "51C2DFEF-3776-4D13-9284-96485B799B57";
paths = (
{
closed = 1;
nodes = (
"411 -232 OFFCURVE",
"524 -138 OFFCURVE",
"524 2 CURVE SMOOTH",
"524 490 LINE",
"401 490 LINE",
"356 370 LINE",
"356 2 LINE SMOOTH",
"356 -59 OFFCURVE",
"311 -94 OFFCURVE",
"234 -94 CURVE SMOOTH",
"194 -94 OFFCURVE",
"146 -84 OFFCURVE",
"105 -67 CURVE",
"72 -195 LINE",
"127 -220 OFFCURVE",
"182 -232 OFFCURVE",
"242 -232 CURVE SMOOTH"
);
},
{
closed = 1;
nodes = (
"315 -10 OFFCURVE",
"382 43 OFFCURVE",
"414 131 CURVE",
"369 184 LINE",
"354 153 OFFCURVE",
"323 134 OFFCURVE",
"283 134 CURVE SMOOTH",
"230 134 OFFCURVE",
"198 176 OFFCURVE",
"198 248 CURVE SMOOTH",
"198 316 OFFCURVE",
"229 356 OFFCURVE",
"281 356 CURVE SMOOTH",
"324 356 OFFCURVE",
"359 330 OFFCURVE",
"373 283 CURVE",
"418 383 LINE",
"393 460 OFFCURVE",
"335 500 OFFCURVE",
"250 500 CURVE SMOOTH",
"115 500 OFFCURVE",
"22 397 OFFCURVE",
"22 240 CURVE SMOOTH",
"22 88 OFFCURVE",
"109 -10 OFFCURVE",
"228 -10 CURVE SMOOTH"
);
}
);
width = 578;
},
{
anchors = (
{
name = bottom;
position = "{312, 0}";
},
{
name = top;
position = "{282, 490}";
}
);
associatedMasterId = "51C2DFEF-3776-4D13-9284-96485B799B57";
layerId = "DBC5549D-F033-4BEB-B6D8-73972BE49390";
name = "Dec 4 17, 16:29";
paths = (
{
closed = 1;
nodes = (
"425 -227 OFFCURVE",
"550 -131 OFFCURVE",
"550 7 CURVE SMOOTH",
"550 490 LINE",
"425 490 LINE",
"380 370 LINE",
"380 7 LINE SMOOTH",
"380 -54 OFFCURVE",
"333 -89 OFFCURVE",
"251 -89 CURVE SMOOTH",
"203 -89 OFFCURVE",
"142 -76 OFFCURVE",
"102 -58 CURVE",
"67 -194 LINE",
"122 -215 OFFCURVE",
"184 -227 OFFCURVE",
"245 -227 CURVE SMOOTH"
);
},
{
closed = 1;
nodes = (
"126 500 OFFCURVE",
"30 397 OFFCURVE",
"30 242 CURVE SMOOTH",
"30 91 OFFCURVE",
"117 -10 OFFCURVE",
"247 -10 CURVE SMOOTH",
"375 -10 OFFCURVE",
"461 100 OFFCURVE",
"461 265 CURVE SMOOTH",
"461 419 OFFCURVE",
"394 500 OFFCURVE",
"267 500 CURVE SMOOTH"
);
},
{
closed = 1;
nodes = (
"362 356 OFFCURVE",
"405 307 OFFCURVE",
"405 234 CURVE SMOOTH",
"405 174 OFFCURVE",
"363 134 OFFCURVE",
"300 134 CURVE SMOOTH",
"242 134 OFFCURVE",
"206 178 OFFCURVE",
"206 248 CURVE SMOOTH",
"206 316 OFFCURVE",
"240 356 OFFCURVE",
"298 356 CURVE SMOOTH"
);
}
);
width = 612;
},
{
anchors = (
{
name = bottom;
position = "{289, 0}";
},
{
name = top;
position = "{279, 482}";
}
);
associatedMasterId = "F333AEC5-BB61-4D5E-9EDD-6124322D28F2";
layerId = "ED4547CF-1F4C-46F3-BE44-9CBC0888F407";
name = "Dec 5 17, 11:45";
paths = (
{
closed = 1;
nodes = (
"393 -227 OFFCURVE",
"489 -136 OFFCURVE",
"489 14 CURVE SMOOTH",
"489 482 LINE",
"433 482 LINE",
"409 417 LINE",
"409 2 LINE SMOOTH",
"409 -109 OFFCURVE",
"357 -158 OFFCURVE",
"264 -158 CURVE SMOOTH",
"220 -158 OFFCURVE",
"179 -147 OFFCURVE",
"126 -126 CURVE",
"107 -191 LINE",
"157 -214 OFFCURVE",
"204 -227 OFFCURVE",
"256 -227 CURVE SMOOTH"
);
},
{
closed = 1;
nodes = (
"337 -10 OFFCURVE",
"401 22 OFFCURVE",
"454 83 CURVE",
"435 133 LINE",
"390 84 OFFCURVE",
"341 60 OFFCURVE",
"288 60 CURVE SMOOTH",
"195 60 OFFCURVE",
"134 135 OFFCURVE",
"134 250 CURVE SMOOTH",
"134 356 OFFCURVE",
"188 422 OFFCURVE",
"275 422 CURVE SMOOTH",
"346 422 OFFCURVE",
"406 378 OFFCURVE",
"422 313 CURVE",
"454 376 LINE",
"428 451 OFFCURVE",
"368 492 OFFCURVE",
"284 492 CURVE SMOOTH",
"146 492 OFFCURVE",
"54 389 OFFCURVE",
"54 235 CURVE SMOOTH",
"54 88 OFFCURVE",
"139 -10 OFFCURVE",
"266 -10 CURVE SMOOTH"
);
}
);
width = 573;
},
{
anchors = (
{
name = bottom;
position = "{287, 0}";
},
{
name = top;
position = "{277, 482}";
}
);
layerId = "F333AEC5-BB61-4D5E-9EDD-6124322D28F2";
paths = (
{
closed = 1;
nodes = (
"396 -227 OFFCURVE",
"487 -131 OFFCURVE",
"487 14 CURVE SMOOTH",
"487 482 LINE",
"431 482 LINE",
"407 417 LINE",
"407 2 LINE SMOOTH",
"407 -105 OFFCURVE",
"359 -158 OFFCURVE",
"263 -158 CURVE SMOOTH",
"220 -158 OFFCURVE",
"168 -147 OFFCURVE",
"123 -128 CURVE",
"106 -189 LINE",
"156 -214 OFFCURVE",
"207 -227 OFFCURVE",
"257 -227 CURVE SMOOTH"
);
},
{
closed = 1;
nodes = (
"348 -10 OFFCURVE",
"411 30 OFFCURVE",
"448 96 CURVE",
"419 132 LINE",
"392 87 OFFCURVE",
"347 60 OFFCURVE",
"290 60 CURVE SMOOTH",
"194 60 OFFCURVE",
"132 135 OFFCURVE",
"132 246 CURVE SMOOTH",
"132 352 OFFCURVE",
"188 422 OFFCURVE",
"281 422 CURVE SMOOTH",
"342 422 OFFCURVE",
"390 394 OFFCURVE",
"418 346 CURVE",
"455 390 LINE",
"420 455 OFFCURVE",
"358 492 OFFCURVE",
"277 492 CURVE SMOOTH",
"143 492 OFFCURVE",
"52 391 OFFCURVE",
"52 238 CURVE SMOOTH",
"52 89 OFFCURVE",
"138 -10 OFFCURVE",
"267 -10 CURVE SMOOTH"
);
}
);
width = 570;
},
{
anchors = (
{
name = bottom;
position = "{312, 0}";
},
{
name = top;
position = "{282, 490}";
}
);
associatedMasterId = "51C2DFEF-3776-4D13-9284-96485B799B57";
layerId = "6C5FD576-6ACF-4677-8B79-717B3653633C";
name = "Dec 5 17, 23:39";
paths = (
{
closed = 1;
nodes = (
"425 -227 OFFCURVE",
"550 -131 OFFCURVE",
"550 7 CURVE SMOOTH",
"550 490 LINE",
"425 490 LINE",
"380 370 LINE",
"380 7 LINE SMOOTH",
"380 -54 OFFCURVE",
"333 -89 OFFCURVE",
"251 -89 CURVE SMOOTH",
"203 -89 OFFCURVE",
"142 -76 OFFCURVE",
"102 -58 CURVE",
"67 -194 LINE",
"122 -215 OFFCURVE",
"184 -227 OFFCURVE",
"245 -227 CURVE SMOOTH"
);
},
{
closed = 1;
nodes = (
"336 -10 OFFCURVE",
"405 43 OFFCURVE",
"438 131 CURVE",
"393 184 LINE",
"377 153 OFFCURVE",
"343 134 OFFCURVE",
"300 134 CURVE SMOOTH",
"242 134 OFFCURVE",
"206 178 OFFCURVE",
"206 248 CURVE SMOOTH",
"206 316 OFFCURVE",
"240 356 OFFCURVE",
"298 356 CURVE SMOOTH",
"346 356 OFFCURVE",
"382 328 OFFCURVE",
"397 283 CURVE",
"443 383 LINE",
"416 460 OFFCURVE",
"356 500 OFFCURVE",
"267 500 CURVE SMOOTH",
"126 500 OFFCURVE",
"30 397 OFFCURVE",
"30 242 CURVE SMOOTH",
"30 91 OFFCURVE",
"117 -10 OFFCURVE",
"247 -10 CURVE SMOOTH"
);
}
);
width = 612;
}
);
note = g;
unicode = 0067;
},
{
glyphname = h;
layers = (
{
anchors = (
{
name = bottom;
position = "{283, 0}";
},
{
name = center;
position = "{161, 593}";
},
{
name = top;
position = "{289, 739}";
}
);
layerId = "F333AEC5-BB61-4D5E-9EDD-6124322D28F2";
paths = (
{
closed = 1;
nodes = (
"163 0 LINE",
"163 739 LINE",
"83 739 LINE",
"83 0 LINE"
);
},
{
closed = 1;
nodes = (
"492 0 LINE",
"492 316 LINE SMOOTH",
"492 423 OFFCURVE",
"421 492 OFFCURVE",
"313 492 CURVE SMOOTH",
"243 492 OFFCURVE",
"174 462 OFFCURVE",
"123 403 CURVE",
"142 352 LINE",
"182 399 OFFCURVE",
"235 422 OFFCURVE",
"291 422 CURVE SMOOTH",
"369 422 OFFCURVE",
"412 378 OFFCURVE",
"412 300 CURVE SMOOTH",
"412 0 LINE"
);
}
);
width = 567;
},
{
anchors = (
{
name = bottom;
position = "{293, 0}";
},
{
name = center;
position = "{165, 595}";
},
{
name = top;
position = "{313, 739}";
}
);
layerId = "51C2DFEF-3776-4D13-9284-96485B799B57";
paths = (
{
closed = 1;
nodes = (
"224 0 LINE",
"224 739 LINE",
"54 739 LINE",
"54 0 LINE"
);
},
{
closed = 1;
nodes = (
"536 0 LINE",
"536 294 LINE SMOOTH",
"536 421 OFFCURVE",
"469 496 OFFCURVE",
"357 496 CURVE SMOOTH",
"287 496 OFFCURVE",
"227 465 OFFCURVE",
"187 398 CURVE",
"206 295 LINE",
"231 332 OFFCURVE",
"258 346 OFFCURVE",
"292 346 CURVE SMOOTH",
"342 346 OFFCURVE",
"363 320 OFFCURVE",
"363 265 CURVE SMOOTH",
"363 0 LINE"
);
}
);
width = 579;
},
{
anchors = (
{
name = bottom;
position = "{266, 0}";
},
{
name = center;
position = "{143, 592}";
},
{
name = top;
position = "{286, 739}";
}
);
layerId = "0B2E441B-685E-400D-9B9B-E078DEED62EF";
paths = (
{
closed = 1;
nodes = (
"108 0 LINE",
"108 739 LINE",
"88 739 LINE",
"88 0 LINE"
);
},
{
closed = 1;
nodes = (
"446 0 LINE",
"446 314 LINE SMOOTH",
"446 421 OFFCURVE",
"385 486 OFFCURVE",
"283 486 CURVE SMOOTH",
"210 486 OFFCURVE",
"140 452 OFFCURVE",
"93 394 CURVE",
"102 383 LINE",
"145 436 OFFCURVE",
"211 468 OFFCURVE",
"279 468 CURVE SMOOTH",
"371 468 OFFCURVE",
"425 411 OFFCURVE",
"425 314 CURVE SMOOTH",
"425 0 LINE"
);
}
);
width = 525;
}
);
note = h;
unicode = 0068;
},
{
glyphname = idotless;
layers = (
{
anchors = (
{
name = bottom;
position = "{127, 0}";
},
{
name = ogonek;
position = "{145, 10}";
},
{
name = top;
position = "{128, 482}";
}
);
layerId = "F333AEC5-BB61-4D5E-9EDD-6124322D28F2";
paths = (
{
closed = 1;
nodes = (
"167 0 LINE",
"167 482 LINE",
"87 482 LINE",
"87 0 LINE"
);
}
);
width = 254;
},
{
anchors = (
{
name = bottom;
position = "{144, 0}";
},
{
name = ogonek;
position = "{183, 10}";
},
{
name = top;
position = "{144, 490}";
}
);
layerId = "51C2DFEF-3776-4D13-9284-96485B799B57";
paths = (
{
closed = 1;
nodes = (
"230 0 LINE",
"230 490 LINE",
"57 490 LINE",
"57 0 LINE"
);
}
);
width = 287;
},
{
anchors = (
{
name = bottom;
position = "{100, 0}";
},
{
name = ogonek;
position = "{105, 10}";
},
{
name = top;
position = "{102, 480}";
}
);
layerId = "0B2E441B-685E-400D-9B9B-E078DEED62EF";
paths = (
{
closed = 1;
nodes = (
"111 0 LINE",
"111 480 LINE",
"90 480 LINE",
"90 0 LINE"
);
}
);
width = 201;
}
);
note = dotlessi;
unicode = 0131;
},
{
glyphname = jdotless;
layers = (
{
anchors = (
{
name = bottom;
position = "{128, 0}";
},
{
name = top;
position = "{128, 482}";
}
);
layerId = "F333AEC5-BB61-4D5E-9EDD-6124322D28F2";
paths = (
{
closed = 1;
nodes = (
"115 -187 OFFCURVE",
"168 -111 OFFCURVE",
"168 -23 CURVE SMOOTH",
"168 482 LINE",
"88 482 LINE",
"88 -35 LINE SMOOTH",
"88 -91 OFFCURVE",
"52 -148 OFFCURVE",
"-2 -179 CURVE",
"24 -227 LINE"
);
}
);
width = 255;
},
{
anchors = (
{
name = bottom;
position = "{134, 0}";
},
{
name = top;
position = "{144, 490}";
}
);
layerId = "51C2DFEF-3776-4D13-9284-96485B799B57";
paths = (
{
closed = 1;
nodes = (
"148 -191 OFFCURVE",
"230 -88 OFFCURVE",
"230 26 CURVE SMOOTH",
"230 490 LINE",
"57 490 LINE",
"57 26 LINE SMOOTH",
"57 -39 OFFCURVE",
"26 -100 OFFCURVE",
"-26 -138 CURVE",
"24 -232 LINE"
);
}
);
width = 287;
},
{
anchors = (
{
name = bottom;
position = "{101, 0}";
},
{
name = top;
position = "{101, 480}";
}
);
layerId = "0B2E441B-685E-400D-9B9B-E078DEED62EF";
paths = (
{
closed = 1;
nodes = (
"69 -191 OFFCURVE",
"112 -129 OFFCURVE",
"112 -64 CURVE SMOOTH",
"112 480 LINE",
"91 480 LINE",
"91 -64 LINE SMOOTH",
"91 -122 OFFCURVE",
"54 -178 OFFCURVE",
"-2 -206 CURVE",
"5 -219 LINE"
);
}
);
width = 202;
}
);
note = uni0237;
unicode = 0237;
},
{
glyphname = k;
layers = (
{
anchors = (
{
name = bottom;
position = "{251, 0}";
},
{
name = top;
position = "{231, 739}";
}
);
layerId = "F333AEC5-BB61-4D5E-9EDD-6124322D28F2";
paths = (
{
closed = 1;
nodes = (
"163 0 LINE",
"163 739 LINE",
"83 739 LINE",
"83 0 LINE"
);
},
{
closed = 1;
nodes = (
"494 0 LINE",
"243 286 LINE",
"237 237 LINE",
"472 482 LINE",
"377 482 LINE",
"161 257 LINE",
"388 0 LINE"
);
}
);
width = 498;
},
{
anchors = (
{
name = bottom;
position = "{304, 0}";
},
{
name = top;
position = "{264, 739}";
}
);
layerId = "51C2DFEF-3776-4D13-9284-96485B799B57";
paths = (
{
closed = 1;
nodes = (
"224 0 LINE",
"224 739 LINE",
"54 739 LINE",
"54 0 LINE"
);
},
{
closed = 1;
nodes = (
"583 0 LINE",
"396 295 LINE",
"388 238 LINE",
"567 490 LINE",
"368 490 LINE",
"215 257 LINE",
"363 0 LINE"
);
}
);
width = 564;
},
{
anchors = (
{
name = bottom;
position = "{205, 0}";
},
{
name = top;
position = "{185, 739}";
}
);
layerId = "0B2E441B-685E-400D-9B9B-E078DEED62EF";
paths = (
{
closed = 1;
nodes = (
"108 0 LINE",
"108 739 LINE",
"88 739 LINE",
"88 0 LINE"
);
},
{
closed = 1;
nodes = (
"425 0 LINE",
"129 267 LINE",
"127 249 LINE",
"403 480 LINE",
"376 480 LINE",
"110 257 LINE",
"396 0 LINE"
);
}
);
width = 432;
}
);
note = k;
unicode = 006B;
},
{
glyphname = kgreenlandic;
layers = (
{
layerId = "F333AEC5-BB61-4D5E-9EDD-6124322D28F2";
paths = (
{
closed = 1;
nodes = (
"163 0 LINE",
"163 482 LINE",
"83 482 LINE",
"83 0 LINE"
);
},
{
closed = 1;
nodes = (
"494 -3 LINE",
"243 286 LINE",
"237 237 LINE",
"472 479 LINE",
"377 479 LINE",
"161 257 LINE",
"388 -3 LINE"
);
}
);
width = 498;
},
{
layerId = "51C2DFEF-3776-4D13-9284-96485B799B57";
paths = (
{
closed = 1;
nodes = (
"227 0 LINE",
"227 490 LINE",
"54 490 LINE",
"54 0 LINE"
);
},
{
closed = 1;
nodes = (
"583 0 LINE",
"396 295 LINE",
"388 238 LINE",
"567 490 LINE",
"368 490 LINE",
"211 257 LINE",
"363 0 LINE"
);
}
);
width = 564;
},
{
layerId = "0B2E441B-685E-400D-9B9B-E078DEED62EF";
paths = (
{
closed = 1;
nodes = (
"108 0 LINE",
"108 480 LINE",
"88 480 LINE",
"88 0 LINE"
);
},
{
closed = 1;
nodes = (
"425 0 LINE",
"129 267 LINE",
"127 249 LINE",
"403 480 LINE",
"376 480 LINE",
"110 257 LINE",
"396 0 LINE"
);
}
);
width = 432;
}
);
leftMetricsKey = k;
rightMetricsKey = k;
unicode = 0138;
},
{
glyphname = l;
layers = (
{
anchors = (
{
name = bottom;
position = "{160, 0}";
},
{
name = center;
position = "{139, 386}";
},
{
name = periodcentered;
position = "{272, 353}";
},
{
name = top;
position = "{121, 739}";
},
{
name = topright;
position = "{268, 482}";
}
);
layerId = "F333AEC5-BB61-4D5E-9EDD-6124322D28F2";
paths = (
{
closed = 1;
nodes = (
"215 -6 OFFCURVE",
"246 0 OFFCURVE",
"265 10 CURVE",
"247 66 LINE",
"235 61 OFFCURVE",
"224 58 OFFCURVE",
"212 58 CURVE SMOOTH",
"178 58 OFFCURVE",
"160 81 OFFCURVE",
"160 118 CURVE SMOOTH",
"160 739 LINE",
"80 739 LINE",
"80 108 LINE SMOOTH",
"80 39 OFFCURVE",
"123 -6 OFFCURVE",
"189 -6 CURVE SMOOTH"
);
}
);
width = 271;
},
{
anchors = (
{
name = bottom;
position = "{168, 0}";
},
{
name = center;
position = "{132, 366}";
},
{
name = periodcentered;
position = "{310, 363}";
},
{
name = top;
position = "{127, 739}";
},
{
name = topright;
position = "{325, 490}";
}
);
layerId = "51C2DFEF-3776-4D13-9284-96485B799B57";
paths = (
{
closed = 1;
nodes = (
"245 -8 OFFCURVE",
"284 -1 OFFCURVE",
"317 11 CURVE",
"283 125 LINE",
"273 122 OFFCURVE",
"262 121 OFFCURVE",
"256 121 CURVE SMOOTH",
"230 121 OFFCURVE",
"216 137 OFFCURVE",
"216 168 CURVE SMOOTH",
"216 739 LINE",
"46 739 LINE",
"46 147 LINE SMOOTH",
"46 48 OFFCURVE",
"105 -8 OFFCURVE",
"208 -8 CURVE SMOOTH"
);
}
);
width = 310;
},
{
anchors = (
{
name = bottom;
position = "{136, 0}";
},
{
name = center;
position = "{119, 383}";
},
{
name = periodcentered;
position = "{238, 353}";
},
{
name = top;
position = "{97, 739}";
},
{
name = topright;
position = "{209, 480}";
}
);
layerId = "0B2E441B-685E-400D-9B9B-E078DEED62EF";
paths = (
{
closed = 1;
nodes = (
"180 -2 OFFCURVE",
"198 2 OFFCURVE",
"212 8 CURVE",
"207 22 LINE",
"196 17 OFFCURVE",
"181 14 OFFCURVE",
"168 14 CURVE SMOOTH",
"129 14 OFFCURVE",
"106 43 OFFCURVE",
"106 87 CURVE SMOOTH",
"106 739 LINE",
"86 739 LINE",
"86 83 LINE SMOOTH",
"86 31 OFFCURVE",
"115 -2 OFFCURVE",
"163 -2 CURVE SMOOTH"
);
}
);
width = 232;
}
);
note = l;
unicode = 006C;
},
{
glyphname = m;
layers = (
{
anchors = (
{
name = bottom;
position = "{443, 0}";
},
{
name = top;
position = "{443, 482}";
}
);
layerId = "F333AEC5-BB61-4D5E-9EDD-6124322D28F2";
paths = (
{
closed = 1;
nodes = (
"163 0 LINE",
"163 426 LINE",
"139 482 LINE",
"83 482 LINE",
"83 0 LINE"
);
},
{
closed = 1;
nodes = (
"487 0 LINE",
"487 316 LINE SMOOTH",
"487 423 OFFCURVE",
"417 492 OFFCURVE",
"311 492 CURVE SMOOTH",
"241 492 OFFCURVE",
"173 462 OFFCURVE",
"123 409 CURVE",
"142 358 LINE",
"181 399 OFFCURVE",
"233 422 OFFCURVE",
"288 422 CURVE SMOOTH",
"365 422 OFFCURVE",
"407 378 OFFCURVE",
"407 300 CURVE SMOOTH",
"407 0 LINE"
);
},
{
closed = 1;
nodes = (
"811 0 LINE",
"811 316 LINE SMOOTH",
"811 423 OFFCURVE",
"741 492 OFFCURVE",
"634 492 CURVE SMOOTH",
"565 492 OFFCURVE",
"497 462 OFFCURVE",
"447 409 CURVE",
"466 358 LINE",
"505 399 OFFCURVE",
"557 422 OFFCURVE",
"612 422 CURVE SMOOTH",
"689 422 OFFCURVE",
"731 378 OFFCURVE",
"731 300 CURVE SMOOTH",
"731 0 LINE"
);
}
);
width = 886;
},
{
anchors = (
{
name = bottom;
position = "{467, 0}";
},
{
name = top;
position = "{467, 490}";
}
);
layerId = "51C2DFEF-3776-4D13-9284-96485B799B57";
paths = (
{
closed = 1;
nodes = (
"227 0 LINE",
"227 376 LINE",
"179 490 LINE",
"54 490 LINE",
"54 0 LINE"
);
},
{
closed = 1;
nodes = (
"543 0 LINE",
"543 294 LINE SMOOTH",
"543 419 OFFCURVE",
"474 496 OFFCURVE",
"362 496 CURVE SMOOTH",
"291 496 OFFCURVE",
"226 465 OFFCURVE",
"185 408 CURVE",
"204 305 LINE",
"231 332 OFFCURVE",
"262 346 OFFCURVE",
"297 346 CURVE SMOOTH",
"361 346 OFFCURVE",
"371 302 OFFCURVE",
"371 265 CURVE SMOOTH",
"371 0 LINE"
);
},
{
closed = 1;
nodes = (
"860 0 LINE",
"860 294 LINE SMOOTH",
"860 419 OFFCURVE",
"791 496 OFFCURVE",
"679 496 CURVE SMOOTH",
"603 496 OFFCURVE",
"541 462 OFFCURVE",
"501 408 CURVE",
"521 305 LINE",
"548 332 OFFCURVE",
"578 346 OFFCURVE",
"614 346 CURVE SMOOTH",
"674 346 OFFCURVE",
"687 307 OFFCURVE",
"687 265 CURVE SMOOTH",
"687 0 LINE"
);
}
);
width = 902;
},
{
anchors = (
{
name = bottom;
position = "{433, 0}";
},
{
name = top;
position = "{433, 480}";
}
);
layerId = "0B2E441B-685E-400D-9B9B-E078DEED62EF";
paths = (
{
closed = 1;
nodes = (
"109 0 LINE",
"109 404 LINE",
"105 480 LINE",
"88 480 LINE",
"88 0 LINE"
);
},
{
closed = 1;
nodes = (
"436 0 LINE",
"436 314 LINE SMOOTH",
"436 424 OFFCURVE",
"375 486 OFFCURVE",
"277 486 CURVE SMOOTH",
"207 486 OFFCURVE",
"139 456 OFFCURVE",
"92 404 CURVE",
"100 393 LINE",
"145 440 OFFCURVE",
"209 468 OFFCURVE",
"273 468 CURVE SMOOTH",
"361 468 OFFCURVE",
"415 411 OFFCURVE",
"415 314 CURVE SMOOTH",
"415 0 LINE"
);
},
{
closed = 1;
nodes = (
"763 0 LINE",
"763 314 LINE SMOOTH",
"763 424 OFFCURVE",
"702 486 OFFCURVE",
"603 486 CURVE SMOOTH",
"533 486 OFFCURVE",
"465 454 OFFCURVE",
"417 399 CURVE",
"423 386 LINE",
"469 437 OFFCURVE",
"534 468 OFFCURVE",
"599 468 CURVE SMOOTH",
"688 468 OFFCURVE",
"742 411 OFFCURVE",
"742 314 CURVE SMOOTH",
"742 0 LINE"
);
}
);
width = 843;
}
);
note = m;
unicode = 006D;
},
{
glyphname = n;
layers = (
{
anchors = (
{
name = bottom;
position = "{286, 0}";
},
{
name = top;
position = "{286, 482}";
}
);
layerId = "F333AEC5-BB61-4D5E-9EDD-6124322D28F2";
paths = (
{
closed = 1;
nodes = (
"163 0 LINE",
"163 426 LINE",
"139 482 LINE",
"83 482 LINE",
"83 0 LINE"
);
},
{
closed = 1;
nodes = (
"492 0 LINE",
"492 316 LINE SMOOTH",
"492 423 OFFCURVE",
"421 492 OFFCURVE",
"313 492 CURVE SMOOTH",
"243 492 OFFCURVE",
"174 462 OFFCURVE",
"123 409 CURVE",
"142 358 LINE",
"182 399 OFFCURVE",
"235 422 OFFCURVE",
"291 422 CURVE SMOOTH",
"369 422 OFFCURVE",
"412 378 OFFCURVE",
"412 300 CURVE SMOOTH",
"412 0 LINE"
);
}
);
width = 567;
},
{
anchors = (
{
name = bottom;
position = "{296, 0}";
},
{
name = top;
position = "{296, 490}";
}
);
layerId = "51C2DFEF-3776-4D13-9284-96485B799B57";
paths = (
{
closed = 1;
nodes = (
"227 0 LINE",
"227 376 LINE",
"179 490 LINE",
"54 490 LINE",
"54 0 LINE"
);
},
{
closed = 1;
nodes = (
"539 0 LINE",
"539 284 LINE SMOOTH",
"539 418 OFFCURVE",
"474 496 OFFCURVE",
"363 496 CURVE SMOOTH",
"293 496 OFFCURVE",
"232 465 OFFCURVE",
"192 408 CURVE",
"211 305 LINE",
"236 332 OFFCURVE",
"264 346 OFFCURVE",
"298 346 CURVE SMOOTH",
"345 346 OFFCURVE",
"366 320 OFFCURVE",
"366 265 CURVE SMOOTH",
"366 0 LINE"
);
}
);
width = 581;
},
{
anchors = (
{
name = bottom;
position = "{266, 0}";
},
{
name = top;
position = "{262, 480}";
}
);
layerId = "0B2E441B-685E-400D-9B9B-E078DEED62EF";
paths = (
{
closed = 1;
nodes = (
"109 0 LINE",
"109 399 LINE",
"105 480 LINE",
"88 480 LINE",
"88 0 LINE"
);
},
{
closed = 1;
nodes = (
"446 0 LINE",
"446 314 LINE SMOOTH",
"446 421 OFFCURVE",
"386 486 OFFCURVE",
"280 486 CURVE SMOOTH",
"204 486 OFFCURVE",
"134 454 OFFCURVE",
"93 399 CURVE",
"102 388 LINE",
"136 436 OFFCURVE",
"206 468 OFFCURVE",
"277 468 CURVE SMOOTH",
"372 468 OFFCURVE",
"425 411 OFFCURVE",
"425 314 CURVE SMOOTH",
"425 0 LINE"
);
}
);
width = 525;
}
);
note = n;
unicode = 006E;
},
{
glyphname = eng;
layers = (
{
layerId = "F333AEC5-BB61-4D5E-9EDD-6124322D28F2";
paths = (
{
closed = 1;
nodes = (
"163 0 LINE",
"163 426 LINE",
"139 482 LINE",
"83 482 LINE",
"83 0 LINE"
);
},
{
closed = 1;
nodes = (
"492 0 LINE",
"492 316 LINE SMOOTH",
"492 423 OFFCURVE",
"421 492 OFFCURVE",
"313 492 CURVE SMOOTH",
"243 492 OFFCURVE",
"174 462 OFFCURVE",
"123 409 CURVE",
"142 358 LINE",
"182 399 OFFCURVE",
"235 422 OFFCURVE",
"291 422 CURVE SMOOTH",
"369 422 OFFCURVE",
"412 378 OFFCURVE",
"412 300 CURVE SMOOTH",
"412 0 LINE"
);
},
{
closed = 1;
nodes = (
"443 -194 OFFCURVE",
"492 -113 OFFCURVE",
"492 -23 CURVE SMOOTH",
"492 0 LINE",
"412 0 LINE",
"412 -35 LINE SMOOTH",
"412 -98 OFFCURVE",
"384 -155 OFFCURVE",
"342 -179 CURVE",
"369 -227 LINE"
);
}
);
width = 567;
},
{
layerId = "51C2DFEF-3776-4D13-9284-96485B799B57";
paths = (
{
closed = 1;
nodes = (
"227 0 LINE",
"227 376 LINE",
"179 490 LINE",
"54 490 LINE",
"54 0 LINE"
);
},
{
closed = 1;
nodes = (
"539 0 LINE",
"539 304 LINE SMOOTH",
"539 422 OFFCURVE",
"471 496 OFFCURVE",
"363 496 CURVE SMOOTH",
"293 496 OFFCURVE",
"232 465 OFFCURVE",
"192 408 CURVE",
"211 305 LINE",
"236 332 OFFCURVE",
"264 346 OFFCURVE",
"298 346 CURVE SMOOTH",
"345 346 OFFCURVE",
"366 320 OFFCURVE",
"366 265 CURVE SMOOTH",
"366 0 LINE"
);
},
{
closed = 1;
nodes = (
"470 -197 OFFCURVE",
"539 -111 OFFCURVE",
"539 -13 CURVE SMOOTH",
"539 0 LINE",
"366 0 LINE",
"366 -25 LINE SMOOTH",
"366 -70 OFFCURVE",
"344 -112 OFFCURVE",
"311 -131 CURVE",
"366 -227 LINE"
);
}
);
width = 581;
},
{
layerId = "0B2E441B-685E-400D-9B9B-E078DEED62EF";
paths = (
{
closed = 1;
nodes = (
"109 0 LINE",
"109 399 LINE",
"105 480 LINE",
"88 480 LINE",
"88 0 LINE"
);
},
{
closed = 1;
nodes = (
"446 0 LINE",
"446 314 LINE SMOOTH",
"446 421 OFFCURVE",
"386 486 OFFCURVE",
"280 486 CURVE SMOOTH",
"204 486 OFFCURVE",
"134 454 OFFCURVE",
"93 399 CURVE",
"102 388 LINE",
"136 436 OFFCURVE",
"206 468 OFFCURVE",
"277 468 CURVE SMOOTH",
"372 468 OFFCURVE",
"425 411 OFFCURVE",
"425 314 CURVE SMOOTH",
"425 0 LINE"
);
},
{
closed = 1;
nodes = (
"404 -187 OFFCURVE",
"446 -110 OFFCURVE",
"446 -23 CURVE SMOOTH",
"446 0 LINE",
"425 0 LINE",
"425 -35 LINE SMOOTH",
"425 -104 OFFCURVE",
"389 -173 OFFCURVE",
"335 -207 CURVE",
"340 -217 LINE"
);
}
);
width = 525;
},
{
associatedMasterId = "0B2E441B-685E-400D-9B9B-E078DEED62EF";
color = 1;
components = (
{
alignment = -1;
name = n;
},
{
alignment = -1;
name = _bottomhook;
transform = "{1, 0, 0, 1, -12, 0}";
}
);
layerId = "781452B6-8BE3-48C9-AE4A-AB153E3E73F5";
name = Template;
width = 553;
},
{
associatedMasterId = "F333AEC5-BB61-4D5E-9EDD-6124322D28F2";
color = 1;
components = (
{
alignment = -1;
name = n;
},
{
alignment = -1;
name = _bottomhook;
transform = "{1, 0, 0, 1, -8, 0}";
}
);
layerId = "81D6413E-A4D1-4C5D-AA33-D527FF059481";
name = Template;
width = 570;
},
{
associatedMasterId = "51C2DFEF-3776-4D13-9284-96485B799B57";
color = 1;
components = (
{
alignment = -1;
name = n;
},
{
alignment = -1;
name = _bottomhook;
transform = "{1, 0, 0, 1, -25, 0}";
}
);
layerId = "13888B32-033D-462A-BEC4-39055DAB85B5";
name = Template;
width = 599;
}
);
leftMetricsKey = n;
rightMetricsKey = n;
unicode = 014B;
},
{
glyphname = o;
layers = (
{
anchors = (
{
name = bottom;
position = "{283, 0}";
},
{
name = center;
position = "{283, 241}";
},
{
name = ogonek;
position = "{368, 10}";
},
{
name = top;
position = "{283, 482}";
},
{
name = topright;
position = "{507, 482}";
}
);
layerId = "F333AEC5-BB61-4D5E-9EDD-6124322D28F2";
paths = (
{
closed = 1;
nodes = (
"418 -10 OFFCURVE",
"514 93 OFFCURVE",
"514 247 CURVE SMOOTH",
"514 396 OFFCURVE",
"425 492 OFFCURVE",
"288 492 CURVE SMOOTH",
"146 492 OFFCURVE",
"51 390 OFFCURVE",
"51 236 CURVE SMOOTH",
"51 87 OFFCURVE",
"139 -10 OFFCURVE",
"276 -10 CURVE SMOOTH"
);
},
{
closed = 1;
nodes = (
"194 60 OFFCURVE",
"131 135 OFFCURVE",
"131 246 CURVE SMOOTH",
"131 353 OFFCURVE",
"188 422 OFFCURVE",
"277 422 CURVE SMOOTH",
"370 422 OFFCURVE",
"434 346 OFFCURVE",
"434 236 CURVE SMOOTH",
"434 130 OFFCURVE",
"376 60 OFFCURVE",
"287 60 CURVE SMOOTH"
);
}
);
width = 565;
},
{
anchors = (
{
name = bottom;
position = "{282, 0}";
},
{
name = center;
position = "{282, 245}";
},
{
name = ogonek;
position = "{368, 10}";
},
{
name = top;
position = "{282, 490}";
},
{
name = topright;
position = "{478, 490}";
}
);
layerId = "51C2DFEF-3776-4D13-9284-96485B799B57";
paths = (
{
closed = 1;
nodes = (
"439 -10 OFFCURVE",
"549 96 OFFCURVE",
"549 254 CURVE SMOOTH",
"549 403 OFFCURVE",
"449 500 OFFCURVE",
"293 500 CURVE SMOOTH",
"128 500 OFFCURVE",
"18 394 OFFCURVE",
"18 235 CURVE SMOOTH",
"18 87 OFFCURVE",
"118 -10 OFFCURVE",
"275 -10 CURVE SMOOTH"
);
},
{
closed = 1;
nodes = (
"228 134 OFFCURVE",
"194 176 OFFCURVE",
"194 246 CURVE SMOOTH",
"194 315 OFFCURVE",
"226 356 OFFCURVE",
"281 356 CURVE SMOOTH",
"339 356 OFFCURVE",
"373 313 OFFCURVE",
"373 240 CURVE SMOOTH",
"373 173 OFFCURVE",
"341 134 OFFCURVE",
"286 134 CURVE SMOOTH"
);
}
);
width = 567;
},
{
anchors = (
{
name = bottom;
position = "{269, 0}";
},
{
name = center;
position = "{269, 240}";
},
{
name = ogonek;
position = "{353, 10}";
},
{
name = top;
position = "{259, 480}";
},
{
name = topright;
position = "{494, 480}";
}
);
layerId = "0B2E441B-685E-400D-9B9B-E078DEED62EF";
paths = (
{
closed = 1;
nodes = (
"393 -10 OFFCURVE",
"478 90 OFFCURVE",
"478 240 CURVE SMOOTH",
"478 389 OFFCURVE",
"394 486 OFFCURVE",
"270 486 CURVE SMOOTH",
"142 486 OFFCURVE",
"57 386 OFFCURVE",
"57 237 CURVE SMOOTH",
"57 89 OFFCURVE",
"141 -10 OFFCURVE",
"268 -10 CURVE SMOOTH"
);
},
{
closed = 1;
nodes = (
"153 8 OFFCURVE",
"78 101 OFFCURVE",
"78 239 CURVE SMOOTH",
"78 374 OFFCURVE",
"150 468 OFFCURVE",
"265 468 CURVE SMOOTH",
"381 468 OFFCURVE",
"457 378 OFFCURVE",
"457 237 CURVE SMOOTH",
"457 97 OFFCURVE",
"382 8 OFFCURVE",
"270 8 CURVE SMOOTH"
);
}
);
width = 535;
}
);
note = o;
unicode = 006F;
},
{
glyphname = oslash;
layers = (
{
anchors = (
{
name = top;
position = "{286, 482}";
}
);
layerId = "F333AEC5-BB61-4D5E-9EDD-6124322D28F2";
paths = (
{
closed = 1;
nodes = (
"421 -10 OFFCURVE",
"517 93 OFFCURVE",
"517 247 CURVE SMOOTH",
"517 396 OFFCURVE",
"428 492 OFFCURVE",
"291 492 CURVE SMOOTH",
"149 492 OFFCURVE",
"54 390 OFFCURVE",
"54 236 CURVE SMOOTH",
"54 87 OFFCURVE",
"142 -10 OFFCURVE",
"279 -10 CURVE SMOOTH"
);
},
{
closed = 1;
nodes = (
"197 60 OFFCURVE",
"134 135 OFFCURVE",
"134 246 CURVE SMOOTH",
"134 353 OFFCURVE",
"191 422 OFFCURVE",
"280 422 CURVE SMOOTH",
"373 422 OFFCURVE",
"437 346 OFFCURVE",
"437 236 CURVE SMOOTH",
"437 130 OFFCURVE",
"379 60 OFFCURVE",
"290 60 CURVE SMOOTH"
);
},
{
closed = 1;
nodes = (
"497 513 LINE",
"450 542 LINE",
"68 -29 LINE",
"111 -58 LINE"
);
}
);
width = 570;
},
{
anchors = (
{
name = top;
position = "{284, 490}";
}
);
layerId = "51C2DFEF-3776-4D13-9284-96485B799B57";
paths = (
{
closed = 1;
nodes = (
"439 -10 OFFCURVE",
"549 96 OFFCURVE",
"549 254 CURVE SMOOTH",
"549 403 OFFCURVE",
"449 500 OFFCURVE",
"293 500 CURVE SMOOTH",
"128 500 OFFCURVE",
"18 394 OFFCURVE",
"18 235 CURVE SMOOTH",
"18 87 OFFCURVE",
"118 -10 OFFCURVE",
"275 -10 CURVE SMOOTH"
);
},
{
closed = 1;
nodes = (
"226 134 OFFCURVE",
"191 176 OFFCURVE",
"191 246 CURVE SMOOTH",
"191 315 OFFCURVE",
"224 356 OFFCURVE",
"281 356 CURVE SMOOTH",
"341 356 OFFCURVE",
"376 313 OFFCURVE",
"376 240 CURVE SMOOTH",
"376 173 OFFCURVE",
"343 134 OFFCURVE",
"286 134 CURVE SMOOTH"
);
},
{
closed = 1;
nodes = (
"512 509 LINE",
"440 552 LINE",
"57 -19 LINE",
"127 -62 LINE"
);
}
);
width = 567;
},
{
anchors = (
{
name = top;
position = "{274, 480}";
}
);
layerId = "0B2E441B-685E-400D-9B9B-E078DEED62EF";
paths = (
{
closed = 1;
nodes = (
"399 -10 OFFCURVE",
"484 90 OFFCURVE",
"484 240 CURVE SMOOTH",
"484 389 OFFCURVE",
"400 486 OFFCURVE",
"276 486 CURVE SMOOTH",
"148 486 OFFCURVE",
"63 386 OFFCURVE",
"63 237 CURVE SMOOTH",
"63 89 OFFCURVE",
"147 -10 OFFCURVE",
"274 -10 CURVE SMOOTH"
);
},
{
closed = 1;
nodes = (
"159 8 OFFCURVE",
"84 101 OFFCURVE",
"84 239 CURVE SMOOTH",
"84 374 OFFCURVE",
"156 468 OFFCURVE",
"271 468 CURVE SMOOTH",
"387 468 OFFCURVE",
"463 378 OFFCURVE",
"463 237 CURVE SMOOTH",
"463 97 OFFCURVE",
"388 8 OFFCURVE",
"276 8 CURVE SMOOTH"
);
},
{
closed = 1;
nodes = (
"462 505 LINE",
"451 513 LINE",
"84 -34 LINE",
"95 -42 LINE"
);
}
);
width = 547;
}
);
unicode = 00F8;
},
{
glyphname = oe;
layers = (
{
anchors = (
{
name = bottom;
position = "{455, 0}";
},
{
name = top;
position = "{455, 482}";
}
);
layerId = "F333AEC5-BB61-4D5E-9EDD-6124322D28F2";
paths = (
{
closed = 1;
nodes = (
"418 -10 OFFCURVE",
"504 93 OFFCURVE",
"504 247 CURVE SMOOTH",
"504 396 OFFCURVE",
"425 492 OFFCURVE",
"288 492 CURVE SMOOTH",
"146 492 OFFCURVE",
"51 390 OFFCURVE",
"51 236 CURVE SMOOTH",
"51 87 OFFCURVE",
"139 -10 OFFCURVE",
"276 -10 CURVE SMOOTH"
);
},
{
closed = 1;
nodes = (
"194 60 OFFCURVE",
"131 135 OFFCURVE",
"131 246 CURVE SMOOTH",
"131 353 OFFCURVE",
"188 422 OFFCURVE",
"277 422 CURVE SMOOTH",
"370 422 OFFCURVE",
"434 346 OFFCURVE",
"434 236 CURVE SMOOTH",
"434 130 OFFCURVE",
"376 60 OFFCURVE",
"287 60 CURVE SMOOTH"
);
},
{
closed = 1;
nodes = (
"735 -10 OFFCURVE",
"782 1 OFFCURVE",
"840 27 CURVE",
"823 83 LINE",
"778 64 OFFCURVE",
"736 55 OFFCURVE",
"697 55 CURVE SMOOTH",
"583 55 OFFCURVE",
"516 130 OFFCURVE",
"516 255 CURVE SMOOTH",
"516 364 OFFCURVE",
"565 424 OFFCURVE",
"653 424 CURVE SMOOTH",
"735 424 OFFCURVE",
"783 371 OFFCURVE",
"783 279 CURVE",
"502 279 LINE",
"502 219 LINE",
"854 219 LINE",
"856 234 OFFCURVE",
"858 269 OFFCURVE",
"858 288 CURVE SMOOTH",
"858 409 OFFCURVE",
"778 492 OFFCURVE",
"659 492 CURVE SMOOTH",
"525 492 OFFCURVE",
"434 388 OFFCURVE",
"434 236 CURVE SMOOTH",
"434 82 OFFCURVE",
"527 -10 OFFCURVE",
"682 -10 CURVE SMOOTH"
);
}
);
width = 910;
},
{
anchors = (
{
name = bottom;
position = "{481, 0}";
},
{
name = top;
position = "{481, 490}";
}
);
layerId = "51C2DFEF-3776-4D13-9284-96485B799B57";
paths = (
{
closed = 1;
nodes = (
"404 -10 OFFCURVE",
"499 94 OFFCURVE",
"499 253 CURVE SMOOTH",
"499 405 OFFCURVE",
"412 500 OFFCURVE",
"274 500 CURVE SMOOTH",
"124 500 OFFCURVE",
"18 391 OFFCURVE",
"18 237 CURVE SMOOTH",
"18 90 OFFCURVE",
"115 -10 OFFCURVE",
"259 -10 CURVE SMOOTH"
);
},
{
closed = 1;
nodes = (
"231 134 OFFCURVE",
"194 179 OFFCURVE",
"194 246 CURVE SMOOTH",
"194 313 OFFCURVE",
"228 356 OFFCURVE",
"281 356 CURVE SMOOTH",
"336 356 OFFCURVE",
"373 310 OFFCURVE",
"373 240 CURVE SMOOTH",
"373 176 OFFCURVE",
"339 134 OFFCURVE",
"286 134 CURVE SMOOTH"
);
},
{
closed = 1;
nodes = (
"718 -10 OFFCURVE",
"782 1 OFFCURVE",
"844 22 CURVE",
"806 139 LINE",
"765 125 OFFCURVE",
"726 118 OFFCURVE",
"686 118 CURVE SMOOTH",
"589 118 OFFCURVE",
"544 160 OFFCURVE",
"544 261 CURVE SMOOTH",
"544 337 OFFCURVE",
"572 373 OFFCURVE",
"619 373 CURVE SMOOTH",
"660 373 OFFCURVE",
"690 347 OFFCURVE",
"690 297 CURVE",
"523 297 LINE",
"523 197 LINE",
"846 197 LINE",
"850 222 OFFCURVE",
"853 247 OFFCURVE",
"853 273 CURVE SMOOTH",
"853 416 OFFCURVE",
"769 500 OFFCURVE",
"635 500 CURVE SMOOTH",
"483 500 OFFCURVE",
"373 394 OFFCURVE",
"373 248 CURVE SMOOTH",
"373 96 OFFCURVE",
"492 -10 OFFCURVE",
"663 -10 CURVE SMOOTH"
);
}
);
width = 881;
},
{
anchors = (
{
name = bottom;
position = "{449, 0}";
},
{
name = top;
position = "{449, 480}";
}
);
layerId = "0B2E441B-685E-400D-9B9B-E078DEED62EF";
paths = (
{
closed = 1;
nodes = (
"393 -10 OFFCURVE",
"472 90 OFFCURVE",
"472 240 CURVE SMOOTH",
"472 389 OFFCURVE",
"394 486 OFFCURVE",
"270 486 CURVE SMOOTH",
"142 486 OFFCURVE",
"57 386 OFFCURVE",
"57 237 CURVE SMOOTH",
"57 89 OFFCURVE",
"141 -10 OFFCURVE",
"268 -10 CURVE SMOOTH"
);
},
{
closed = 1;
nodes = (
"153 8 OFFCURVE",
"78 101 OFFCURVE",
"78 239 CURVE SMOOTH",
"78 374 OFFCURVE",
"150 468 OFFCURVE",
"265 468 CURVE SMOOTH",
"381 468 OFFCURVE",
"457 378 OFFCURVE",
"457 237 CURVE SMOOTH",
"457 97 OFFCURVE",
"382 8 OFFCURVE",
"270 8 CURVE SMOOTH"
);
},
{
closed = 1;
nodes = (
"735 -10 OFFCURVE",
"784 3 OFFCURVE",
"824 30 CURVE",
"819 44 LINE",
"776 19 OFFCURVE",
"731 6 OFFCURVE",
"685 6 CURVE SMOOTH",
"558 6 OFFCURVE",
"480 95 OFFCURVE",
"480 241 CURVE SMOOTH",
"480 382 OFFCURVE",
"547 468 OFFCURVE",
"657 468 CURVE SMOOTH",
"761 468 OFFCURVE",
"826 388 OFFCURVE",
"826 261 CURVE",
"468 261 LINE",
"468 244 LINE",
"846 244 LINE",
"847 251 OFFCURVE",
"847 256 OFFCURVE",
"847 264 CURVE SMOOTH",
"847 396 OFFCURVE",
"771 486 OFFCURVE",
"659 486 CURVE SMOOTH",
"538 486 OFFCURVE",
"461 387 OFFCURVE",
"461 239 CURVE SMOOTH",
"461 87 OFFCURVE",
"546 -10 OFFCURVE",
"683 -10 CURVE SMOOTH"
);
}
);
width = 894;
},
{
anchors = (
{
name = bottom;
position = "{462, 0}";
},
{
name = top;
position = "{462, 480}";
}
);
associatedMasterId = "0B2E441B-685E-400D-9B9B-E078DEED62EF";
layerId = "952FB2D9-0C37-4191-BC29-A19B9A601220";
name = "Dec 6 17, 10:00";
paths = (
{
closed = 1;
nodes = (
"404 -10 OFFCURVE",
"486 90 OFFCURVE",
"486 240 CURVE SMOOTH",
"486 389 OFFCURVE",
"405 486 OFFCURVE",
"281 486 CURVE SMOOTH",
"155 486 OFFCURVE",
"71 386 OFFCURVE",
"71 237 CURVE SMOOTH",
"71 89 OFFCURVE",
"154 -10 OFFCURVE",
"279 -10 CURVE SMOOTH"
);
},
{
closed = 1;
nodes = (
"166 8 OFFCURVE",
"92 101 OFFCURVE",
"92 239 CURVE SMOOTH",
"92 374 OFFCURVE",
"163 468 OFFCURVE",
"279 468 CURVE SMOOTH",
"392 468 OFFCURVE",
"467 378 OFFCURVE",
"467 237 CURVE SMOOTH",
"467 97 OFFCURVE",
"393 8 OFFCURVE",
"281 8 CURVE SMOOTH"
);
},
{
closed = 1;
nodes = (
"747 -9 OFFCURVE",
"796 6 OFFCURVE",
"843 39 CURVE",
"835 51 LINE",
"787 20 OFFCURVE",
"743 7 OFFCURVE",
"696 7 CURVE SMOOTH",
"572 7 OFFCURVE",
"486 97 OFFCURVE",
"486 244 CURVE SMOOTH",
"486 377 OFFCURVE",
"556 469 OFFCURVE",
"668 469 CURVE SMOOTH",
"774 469 OFFCURVE",
"837 385 OFFCURVE",
"837 257 CURVE",
"476 257 LINE",
"476 240 LINE",
"857 240 LINE",
"858 247 OFFCURVE",
"858 252 OFFCURVE",
"858 260 CURVE SMOOTH",
"858 393 OFFCURVE",
"785 487 OFFCURVE",
"669 487 CURVE SMOOTH",
"550 487 OFFCURVE",
"467 387 OFFCURVE",
"467 240 CURVE SMOOTH",
"467 88 OFFCURVE",
"555 -9 OFFCURVE",
"693 -9 CURVE SMOOTH"
);
}
);
width = 921;
}
);
leftMetricsKey = o;
rightMetricsKey = e;
unicode = 0153;
},
{
glyphname = p;
layers = (
{
anchors = (
{
name = bottom;
position = "{284, 0}";
},
{
name = top;
position = "{284, 482}";
}
);
layerId = "F333AEC5-BB61-4D5E-9EDD-6124322D28F2";
paths = (
{
closed = 1;
nodes = (
"163 -217 LINE",
"163 426 LINE",
"139 482 LINE",
"83 482 LINE",
"83 -217 LINE"
);
},
{
closed = 1;
nodes = (
"429 -10 OFFCURVE",
"519 94 OFFCURVE",
"519 250 CURVE SMOOTH",
"519 395 OFFCURVE",
"436 492 OFFCURVE",
"312 492 CURVE SMOOTH",
"243 492 OFFCURVE",
"178 462 OFFCURVE",
"137 410 CURVE",
"155 360 LINE",
"190 399 OFFCURVE",
"240 422 OFFCURVE",
"291 422 CURVE SMOOTH",
"381 422 OFFCURVE",
"439 350 OFFCURVE",
"439 240 CURVE SMOOTH",
"439 132 OFFCURVE",
"386 60 OFFCURVE",
"299 60 CURVE SMOOTH",
"227 60 OFFCURVE",
"167 107 OFFCURVE",
"150 178 CURVE",
"117 123 LINE",
"139 39 OFFCURVE",
"208 -10 OFFCURVE",
"295 -10 CURVE SMOOTH"
);
}
);
width = 571;
},
{
anchors = (
{
name = bottom;
position = "{259, 0}";
},
{
name = top;
position = "{259, 480}";
}
);
layerId = "0B2E441B-685E-400D-9B9B-E078DEED62EF";
paths = (
{
closed = 1;
nodes = (
"108 -217 LINE",
"108 406 LINE",
"103 480 LINE",
"88 480 LINE",
"88 -217 LINE"
);
},
{
closed = 1;
nodes = (
"393 -10 OFFCURVE",
"478 90 OFFCURVE",
"478 240 CURVE SMOOTH",
"478 389 OFFCURVE",
"394 486 OFFCURVE",
"270 486 CURVE SMOOTH",
"187 486 OFFCURVE",
"127 444 OFFCURVE",
"94 375 CURVE",
"98 355 LINE",
"128 425 OFFCURVE",
"186 468 OFFCURVE",
"265 468 CURVE SMOOTH",
"381 468 OFFCURVE",
"457 378 OFFCURVE",
"457 237 CURVE SMOOTH",
"457 97 OFFCURVE",
"382 8 OFFCURVE",
"270 8 CURVE SMOOTH",
"190 8 OFFCURVE",
"129 53 OFFCURVE",
"99 126 CURVE",
"96 96 LINE",
"129 29 OFFCURVE",
"188 -10 OFFCURVE",
"268 -10 CURVE SMOOTH"
);
}
);
width = 535;
},
{
anchors = (
{
name = bottom;
position = "{288, 0}";
},
{
name = top;
position = "{288, 490}";
}
);
layerId = "51C2DFEF-3776-4D13-9284-96485B799B57";
paths = (
{
closed = 1;
nodes = (
"219 -217 LINE",
"219 370 LINE",
"169 490 LINE",
"54 490 LINE",
"54 -217 LINE"
);
},
{
closed = 1;
nodes = (
"457 -10 OFFCURVE",
"554 101 OFFCURVE",
"554 251 CURVE SMOOTH",
"554 396 OFFCURVE",
"463 500 OFFCURVE",
"337 500 CURVE SMOOTH",
"253 500 OFFCURVE",
"189 452 OFFCURVE",
"157 372 CURVE",
"203 305 LINE",
"219 337 OFFCURVE",
"250 356 OFFCURVE",
"287 356 CURVE SMOOTH",
"343 356 OFFCURVE",
"378 314 OFFCURVE",
"378 242 CURVE SMOOTH",
"378 174 OFFCURVE",
"346 134 OFFCURVE",
"291 134 CURVE SMOOTH",
"255 134 OFFCURVE",
"224 152 OFFCURVE",
"206 182 CURVE",
"167 88 LINE",
"200 26 OFFCURVE",
"256 -10 OFFCURVE",
"328 -10 CURVE SMOOTH"
);
}
);
width = 574;
},
{
anchors = (
{
name = bottom;
position = "{300, 0}";
},
{
name = top;
position = "{300, 490}";
}
);
associatedMasterId = "51C2DFEF-3776-4D13-9284-96485B799B57";
layerId = "76E16CE6-B0A6-4DE4-BF53-8A33C9B34D08";
name = "Dec 4 17, 16:23";
paths = (
{
closed = 1;
nodes = (
"227 -217 LINE",
"227 370 LINE",
"177 490 LINE",
"62 490 LINE",
"62 -217 LINE"
);
},
{
closed = 1;
nodes = (
"478 -10 OFFCURVE",
"577 101 OFFCURVE",
"577 251 CURVE SMOOTH",
"577 396 OFFCURVE",
"484 500 OFFCURVE",
"355 500 CURVE SMOOTH",
"228 500 OFFCURVE",
"146 397 OFFCURVE",
"146 239 CURVE SMOOTH",
"146 86 OFFCURVE",
"223 -10 OFFCURVE",
"345 -10 CURVE SMOOTH"
);
},
{
closed = 1;
nodes = (
"247 134 OFFCURVE",
"202 179 OFFCURVE",
"202 246 CURVE SMOOTH",
"202 312 OFFCURVE",
"245 356 OFFCURVE",
"304 356 CURVE SMOOTH",
"365 356 OFFCURVE",
"401 310 OFFCURVE",
"401 241 CURVE SMOOTH",
"401 175 OFFCURVE",
"368 134 OFFCURVE",
"309 134 CURVE SMOOTH"
);
}
);
width = 606;
}
);
note = p;
unicode = 0070;
},
{
glyphname = thorn;
layers = (
{
layerId = "F333AEC5-BB61-4D5E-9EDD-6124322D28F2";
paths = (
{
closed = 1;
nodes = (
"161 -217 LINE",
"161 739 LINE",
"83 739 LINE",
"83 -217 LINE"
);
},
{
closed = 1;
nodes = (
"424 -10 OFFCURVE",
"516 93 OFFCURVE",
"516 247 CURVE SMOOTH",
"516 394 OFFCURVE",
"428 492 OFFCURVE",
"296 492 CURVE SMOOTH",
"204 492 OFFCURVE",
"137 445 OFFCURVE",
"105 364 CURVE",
"135 320 LINE",
"157 384 OFFCURVE",
"209 422 OFFCURVE",
"277 422 CURVE SMOOTH",
"373 422 OFFCURVE",
"436 346 OFFCURVE",
"436 235 CURVE SMOOTH",
"436 130 OFFCURVE",
"379 60 OFFCURVE",
"286 60 CURVE SMOOTH",
"219 60 OFFCURVE",
"167 96 OFFCURVE",
"141 155 CURVE",
"104 111 LINE",
"135 33 OFFCURVE",
"198 -10 OFFCURVE",
"286 -10 CURVE SMOOTH"
);
}
);
width = 568;
},
{
layerId = "51C2DFEF-3776-4D13-9284-96485B799B57";
paths = (
{
closed = 1;
nodes = (
"219 -217 LINE",
"219 739 LINE",
"54 739 LINE",
"54 -217 LINE"
);
},
{
closed = 1;
nodes = (
"457 -10 OFFCURVE",
"554 101 OFFCURVE",
"554 251 CURVE SMOOTH",
"554 396 OFFCURVE",
"463 500 OFFCURVE",
"337 500 CURVE SMOOTH",
"253 500 OFFCURVE",
"189 452 OFFCURVE",
"157 372 CURVE",
"203 305 LINE",
"219 337 OFFCURVE",
"250 356 OFFCURVE",
"286 356 CURVE SMOOTH",
"344 356 OFFCURVE",
"378 310 OFFCURVE",
"378 241 CURVE SMOOTH",
"378 176 OFFCURVE",
"347 134 OFFCURVE",
"291 134 CURVE SMOOTH",
"255 134 OFFCURVE",
"224 152 OFFCURVE",
"206 182 CURVE",
"167 88 LINE",
"200 26 OFFCURVE",
"256 -10 OFFCURVE",
"328 -10 CURVE SMOOTH"
);
}
);
width = 574;
},
{
layerId = "0B2E441B-685E-400D-9B9B-E078DEED62EF";
paths = (
{
closed = 1;
nodes = (
"107 -217 LINE",
"107 739 LINE",
"88 739 LINE",
"88 -217 LINE"
);
},
{
closed = 1;
nodes = (
"393 -10 OFFCURVE",
"478 90 OFFCURVE",
"478 240 CURVE SMOOTH",
"478 389 OFFCURVE",
"394 486 OFFCURVE",
"270 486 CURVE SMOOTH",
"187 486 OFFCURVE",
"127 444 OFFCURVE",
"94 375 CURVE",
"98 355 LINE",
"128 425 OFFCURVE",
"186 468 OFFCURVE",
"265 468 CURVE SMOOTH",
"381 468 OFFCURVE",
"457 378 OFFCURVE",
"457 237 CURVE SMOOTH",
"457 97 OFFCURVE",
"382 8 OFFCURVE",
"270 8 CURVE SMOOTH",
"190 8 OFFCURVE",
"129 53 OFFCURVE",
"99 126 CURVE",
"96 96 LINE",
"129 29 OFFCURVE",
"188 -10 OFFCURVE",
"268 -10 CURVE SMOOTH"
);
}
);
width = 535;
}
);
leftMetricsKey = p;
rightMetricsKey = p;
unicode = 00FE;
},
{
glyphname = q;
layers = (
{
anchors = (
{
name = bottom;
position = "{278, 0}";
},
{
name = top;
position = "{278, 480}";
}
);
layerId = "0B2E441B-685E-400D-9B9B-E078DEED62EF";
paths = (
{
closed = 1;
nodes = (
"448 -217 LINE",
"448 480 LINE",
"433 480 LINE",
"428 406 LINE",
"428 -217 LINE"
);
},
{
closed = 1;
nodes = (
"339 -10 OFFCURVE",
"396 23 OFFCURVE",
"432 85 CURVE",
"429 106 LINE",
"397 44 OFFCURVE",
"341 8 OFFCURVE",
"270 8 CURVE SMOOTH",
"153 8 OFFCURVE",
"78 101 OFFCURVE",
"78 239 CURVE SMOOTH",
"78 374 OFFCURVE",
"150 468 OFFCURVE",
"265 468 CURVE SMOOTH",
"339 468 OFFCURVE",
"397 431 OFFCURVE",
"429 367 CURVE",
"433 396 LINE",
"399 454 OFFCURVE",
"343 486 OFFCURVE",
"270 486 CURVE SMOOTH",
"142 486 OFFCURVE",
"57 386 OFFCURVE",
"57 237 CURVE SMOOTH",
"57 89 OFFCURVE",
"141 -10 OFFCURVE",
"268 -10 CURVE SMOOTH"
);
}
);
width = 536;
},
{
anchors = (
{
name = bottom;
position = "{291, 0}";
},
{
name = top;
position = "{291, 490}";
}
);
layerId = "51C2DFEF-3776-4D13-9284-96485B799B57";
paths = (
{
closed = 1;
nodes = (
"523 -217 LINE",
"523 490 LINE",
"408 490 LINE",
"357 370 LINE",
"357 -217 LINE"
);
},
{
closed = 1;
nodes = (
"317 -10 OFFCURVE",
"382 43 OFFCURVE",
"415 130 CURVE",
"370 184 LINE",
"354 153 OFFCURVE",
"324 134 OFFCURVE",
"284 134 CURVE SMOOTH",
"230 134 OFFCURVE",
"198 176 OFFCURVE",
"198 248 CURVE SMOOTH",
"198 316 OFFCURVE",
"229 356 OFFCURVE",
"282 356 CURVE SMOOTH",
"323 356 OFFCURVE",
"354 333 OFFCURVE",
"370 294 CURVE",
"419 383 LINE",
"394 460 OFFCURVE",
"336 500 OFFCURVE",
"250 500 CURVE SMOOTH",
"114 500 OFFCURVE",
"22 397 OFFCURVE",
"22 242 CURVE SMOOTH",
"22 91 OFFCURVE",
"106 -10 OFFCURVE",
"230 -10 CURVE SMOOTH"
);
}
);
width = 577;
},
{
anchors = (
{
name = bottom;
position = "{307, 0}";
},
{
name = top;
position = "{307, 490}";
}
);
associatedMasterId = "51C2DFEF-3776-4D13-9284-96485B799B57";
layerId = "E187EFCE-C829-4342-9B58-47838B05EB8A";
name = "Dec 4 17, 16:27";
paths = (
{
closed = 1;
nodes = (
"546 -217 LINE",
"546 490 LINE",
"431 490 LINE",
"380 370 LINE",
"380 -217 LINE"
);
},
{
closed = 1;
nodes = (
"125 500 OFFCURVE",
"30 397 OFFCURVE",
"30 242 CURVE SMOOTH",
"30 91 OFFCURVE",
"117 -10 OFFCURVE",
"247 -10 CURVE SMOOTH",
"375 -10 OFFCURVE",
"461 100 OFFCURVE",
"461 265 CURVE SMOOTH",
"461 419 OFFCURVE",
"394 500 OFFCURVE",
"267 500 CURVE SMOOTH"
);
},
{
closed = 1;
nodes = (
"362 356 OFFCURVE",
"405 307 OFFCURVE",
"405 234 CURVE SMOOTH",
"405 174 OFFCURVE",
"363 134 OFFCURVE",
"300 134 CURVE SMOOTH",
"242 134 OFFCURVE",
"206 178 OFFCURVE",
"206 248 CURVE SMOOTH",
"206 316 OFFCURVE",
"240 356 OFFCURVE",
"298 356 CURVE SMOOTH"
);
}
);
width = 608;
},
{
anchors = (
{
name = bottom;
position = "{289, 0}";
},
{
name = top;
position = "{289, 482}";
}
);
associatedMasterId = "F333AEC5-BB61-4D5E-9EDD-6124322D28F2";
layerId = "5CB1316B-820C-421A-ADAB-9F104963C273";
name = "Dec 5 17, 11:45";
paths = (
{
closed = 1;
nodes = (
"489 -217 LINE",
"489 482 LINE",
"433 482 LINE",
"409 426 LINE",
"409 -217 LINE"
);
},
{
closed = 1;
nodes = (
"337 -10 OFFCURVE",
"401 22 OFFCURVE",
"454 83 CURVE",
"435 133 LINE",
"390 84 OFFCURVE",
"341 60 OFFCURVE",
"288 60 CURVE SMOOTH",
"195 60 OFFCURVE",
"134 135 OFFCURVE",
"134 250 CURVE SMOOTH",
"134 356 OFFCURVE",
"188 422 OFFCURVE",
"275 422 CURVE SMOOTH",
"346 422 OFFCURVE",
"406 378 OFFCURVE",
"422 313 CURVE",
"454 376 LINE",
"428 451 OFFCURVE",
"368 492 OFFCURVE",
"284 492 CURVE SMOOTH",
"146 492 OFFCURVE",
"54 389 OFFCURVE",
"54 235 CURVE SMOOTH",
"54 88 OFFCURVE",
"139 -10 OFFCURVE",
"266 -10 CURVE SMOOTH"
);
}
);
width = 574;
},
{
anchors = (
{
name = bottom;
position = "{287, 0}";
},
{
name = top;
position = "{287, 482}";
}
);
layerId = "F333AEC5-BB61-4D5E-9EDD-6124322D28F2";
paths = (
{
closed = 1;
nodes = (
"487 -217 LINE",
"487 482 LINE",
"431 482 LINE",
"407 426 LINE",
"407 -217 LINE"
);
},
{
closed = 1;
nodes = (
"348 -10 OFFCURVE",
"411 30 OFFCURVE",
"448 96 CURVE",
"419 132 LINE",
"392 87 OFFCURVE",
"347 60 OFFCURVE",
"290 60 CURVE SMOOTH",
"194 60 OFFCURVE",
"132 135 OFFCURVE",
"132 246 CURVE SMOOTH",
"132 352 OFFCURVE",
"188 422 OFFCURVE",
"281 422 CURVE SMOOTH",
"342 422 OFFCURVE",
"390 394 OFFCURVE",
"418 346 CURVE",
"455 390 LINE",
"420 455 OFFCURVE",
"358 492 OFFCURVE",
"278 492 CURVE SMOOTH",
"142 492 OFFCURVE",
"52 390 OFFCURVE",
"52 237 CURVE SMOOTH",
"52 89 OFFCURVE",
"138 -10 OFFCURVE",
"267 -10 CURVE SMOOTH"
);
}
);
width = 570;
}
);
note = q;
unicode = 0071;
},
{
glyphname = r;
layers = (
{
anchors = (
{
name = bottom;
position = "{122, 0}";
},
{
name = top;
position = "{227, 482}";
}
);
layerId = "F333AEC5-BB61-4D5E-9EDD-6124322D28F2";
paths = (
{
closed = 1;
nodes = (
"163 0 LINE",
"163 370 LINE",
"149 482 LINE",
"83 482 LINE",
"83 0 LINE"
);
},
{
closed = 1;
nodes = (
"173 374 OFFCURVE",
"231 411 OFFCURVE",
"297 411 CURVE SMOOTH",
"316 411 OFFCURVE",
"334 408 OFFCURVE",
"350 402 CURVE",
"370 476 LINE",
"349 483 OFFCURVE",
"328 487 OFFCURVE",
"306 487 CURVE SMOOTH",
"241 487 OFFCURVE",
"181 452 OFFCURVE",
"145 394 CURVE",
"145 313 LINE"
);
}
);
width = 377;
},
{
anchors = (
{
name = bottom;
position = "{142, 0}";
},
{
name = top;
position = "{214, 490}";
}
);
layerId = "51C2DFEF-3776-4D13-9284-96485B799B57";
paths = (
{
closed = 1;
nodes = (
"228 0 LINE",
"228 299 LINE",
"190 490 LINE",
"55 490 LINE",
"55 0 LINE"
);
},
{
closed = 1;
nodes = (
"224 309 OFFCURVE",
"271 342 OFFCURVE",
"325 342 CURVE SMOOTH",
"351 342 OFFCURVE",
"381 335 OFFCURVE",
"402 324 CURVE",
"441 472 LINE",
"417 486 OFFCURVE",
"384 494 OFFCURVE",
"354 494 CURVE SMOOTH",
"291 494 OFFCURVE",
"233 460 OFFCURVE",
"197 402 CURVE",
"197 252 LINE"
);
}
);
width = 435;
},
{
anchors = (
{
name = bottom;
position = "{97, 0}";
},
{
name = top;
position = "{189, 480}";
}
);
layerId = "0B2E441B-685E-400D-9B9B-E078DEED62EF";
paths = (
{
closed = 1;
nodes = (
"109 0 LINE",
"109 378 LINE",
"105 480 LINE",
"88 480 LINE",
"88 0 LINE"
);
},
{
closed = 1;
nodes = (
"134 426 OFFCURVE",
"190 462 OFFCURVE",
"250 462 CURVE SMOOTH",
"267 462 OFFCURVE",
"286 459 OFFCURVE",
"302 453 CURVE",
"308 469 LINE",
"293 476 OFFCURVE",
"273 480 OFFCURVE",
"252 480 CURVE SMOOTH",
"187 480 OFFCURVE",
"131 446 OFFCURVE",
"101 388 CURVE",
"101 365 LINE"
);
}
);
width = 321;
}
);
note = r;
unicode = 0072;
},
{
glyphname = s;
layers = (
{
anchors = (
{
name = bottom;
position = "{236, 0}";
},
{
name = top;
position = "{231, 482}";
}
);
layerId = "F333AEC5-BB61-4D5E-9EDD-6124322D28F2";
paths = (
{
closed = 1;
nodes = (
"348 -10 OFFCURVE",
"421 46 OFFCURVE",
"421 135 CURVE SMOOTH",
"421 312 OFFCURVE",
"133 246 OFFCURVE",
"133 355 CURVE SMOOTH",
"133 397 OFFCURVE",
"178 424 OFFCURVE",
"250 424 CURVE SMOOTH",
"291 424 OFFCURVE",
"339 415 OFFCURVE",
"380 401 CURVE",
"399 466 LINE",
"358 483 OFFCURVE",
"309 492 OFFCURVE",
"258 492 CURVE SMOOTH",
"133 492 OFFCURVE",
"53 437 OFFCURVE",
"53 346 CURVE SMOOTH",
"53 173 OFFCURVE",
"340 245 OFFCURVE",
"340 127 CURVE SMOOTH",
"340 83 OFFCURVE",
"301 58 OFFCURVE",
"235 58 CURVE SMOOTH",
"184 58 OFFCURVE",
"116 72 OFFCURVE",
"65 94 CURVE",
"46 29 LINE",
"101 4 OFFCURVE",
"168 -10 OFFCURVE",
"229 -10 CURVE SMOOTH"
);
}
);
width = 464;
},
{
anchors = (
{
name = bottom;
position = "{240, 0}";
},
{
name = top;
position = "{238, 490}";
}
);
layerId = "51C2DFEF-3776-4D13-9284-96485B799B57";
paths = (
{
closed = 1;
nodes = (
"373 -10 OFFCURVE",
"457 51 OFFCURVE",
"457 157 CURVE SMOOTH",
"457 344 OFFCURVE",
"195 287 OFFCURVE",
"195 343 CURVE SMOOTH",
"195 360 OFFCURVE",
"219 370 OFFCURVE",
"267 370 CURVE SMOOTH",
"306 370 OFFCURVE",
"354 363 OFFCURVE",
"403 351 CURVE",
"436 476 LINE",
"388 491 OFFCURVE",
"323 500 OFFCURVE",
"264 500 CURVE SMOOTH",
"112 500 OFFCURVE",
"30 442 OFFCURVE",
"30 335 CURVE SMOOTH",
"30 146 OFFCURVE",
"286 212 OFFCURVE",
"286 152 CURVE SMOOTH",
"286 133 OFFCURVE",
"259 120 OFFCURVE",
"216 120 CURVE SMOOTH",
"173 120 OFFCURVE",
"111 132 OFFCURVE",
"60 150 CURVE",
"23 27 LINE",
"79 4 OFFCURVE",
"154 -10 OFFCURVE",
"225 -10 CURVE SMOOTH"
);
}
);
width = 477;
},
{
anchors = (
{
name = bottom;
position = "{207, 0}";
},
{
name = top;
position = "{216, 480}";
}
);
layerId = "0B2E441B-685E-400D-9B9B-E078DEED62EF";
paths = (
{
closed = 1;
nodes = (
"325 -10 OFFCURVE",
"385 40 OFFCURVE",
"385 118 CURVE SMOOTH",
"385 294 OFFCURVE",
"77 208 OFFCURVE",
"77 362 CURVE SMOOTH",
"77 429 OFFCURVE",
"136 468 OFFCURVE",
"224 468 CURVE SMOOTH",
"271 468 OFFCURVE",
"321 457 OFFCURVE",
"353 440 CURVE",
"360 456 LINE",
"329 474 OFFCURVE",
"273 486 OFFCURVE",
"224 486 CURVE SMOOTH",
"124 486 OFFCURVE",
"56 437 OFFCURVE",
"56 358 CURVE SMOOTH",
"56 189 OFFCURVE",
"364 276 OFFCURVE",
"364 115 CURVE SMOOTH",
"364 49 OFFCURVE",
"313 8 OFFCURVE",
"224 8 CURVE SMOOTH",
"170 8 OFFCURVE",
"108 23 OFFCURVE",
"52 50 CURVE",
"45 33 LINE",
"102 5 OFFCURVE",
"166 -10 OFFCURVE",
"222 -10 CURVE SMOOTH"
);
}
);
width = 430;
}
);
note = s;
unicode = 0073;
},
{
glyphname = germandbls;
layers = (
{
layerId = "F333AEC5-BB61-4D5E-9EDD-6124322D28F2";
paths = (
{
closed = 1;
nodes = (
"478 -10 OFFCURVE",
"558 58 OFFCURVE",
"558 154 CURVE SMOOTH",
"558 302 OFFCURVE",
"369 304 OFFCURVE",
"369 387 CURVE SMOOTH",
"369 451 OFFCURVE",
"482 469 OFFCURVE",
"482 582 CURVE SMOOTH",
"482 679 OFFCURVE",
"399 749 OFFCURVE",
"285 749 CURVE SMOOTH",
"162 749 OFFCURVE",
"83 666 OFFCURVE",
"83 539 CURVE SMOOTH",
"83 0 LINE",
"163 0 LINE",
"163 548 LINE SMOOTH",
"163 633 OFFCURVE",
"203 679 OFFCURVE",
"275 679 CURVE SMOOTH",
"348 679 OFFCURVE",
"402 633 OFFCURVE",
"402 572 CURVE SMOOTH",
"402 483 OFFCURVE",
"289 468 OFFCURVE",
"289 374 CURVE SMOOTH",
"289 253 OFFCURVE",
"478 250 OFFCURVE",
"478 141 CURVE SMOOTH",
"478 94 OFFCURVE",
"434 60 OFFCURVE",
"372 60 CURVE SMOOTH",
"336 60 OFFCURVE",
"290 71 OFFCURVE",
"246 92 CURVE",
"227 27 LINE",
"268 4 OFFCURVE",
"318 -10 OFFCURVE",
"366 -10 CURVE SMOOTH"
);
}
);
width = 595;
},
{
layerId = "51C2DFEF-3776-4D13-9284-96485B799B57";
paths = (
{
closed = 1;
nodes = (
"553 -10 OFFCURVE",
"646 63 OFFCURVE",
"646 174 CURVE SMOOTH",
"646 324 OFFCURVE",
"476 321 OFFCURVE",
"476 395 CURVE SMOOTH",
"476 448 OFFCURVE",
"566 466 OFFCURVE",
"566 563 CURVE SMOOTH",
"566 670 OFFCURVE",
"459 749 OFFCURVE",
"316 749 CURVE SMOOTH",
"164 749 OFFCURVE",
"62 661 OFFCURVE",
"62 531 CURVE SMOOTH",
"62 0 LINE",
"235 0 LINE",
"235 530 LINE SMOOTH",
"235 577 OFFCURVE",
"263 605 OFFCURVE",
"311 605 CURVE SMOOTH",
"357 605 OFFCURVE",
"391 579 OFFCURVE",
"391 544 CURVE SMOOTH",
"391 486 OFFCURVE",
"300 468 OFFCURVE",
"300 366 CURVE SMOOTH",
"300 226 OFFCURVE",
"470 216 OFFCURVE",
"470 165 CURVE SMOOTH",
"470 144 OFFCURVE",
"442 130 OFFCURVE",
"401 130 CURVE SMOOTH",
"368 130 OFFCURVE",
"333 138 OFFCURVE",
"300 155 CURVE",
"261 23 LINE",
"310 1 OFFCURVE",
"357 -10 OFFCURVE",
"410 -10 CURVE SMOOTH"
);
}
);
width = 663;
},
{
layerId = "0B2E441B-685E-400D-9B9B-E078DEED62EF";
paths = (
{
closed = 1;
nodes = (
"448 -10 OFFCURVE",
"513 44 OFFCURVE",
"513 134 CURVE SMOOTH",
"513 290 OFFCURVE",
"315 292 OFFCURVE",
"315 384 CURVE SMOOTH",
"315 457 OFFCURVE",
"438 464 OFFCURVE",
"438 591 CURVE SMOOTH",
"438 685 OFFCURVE",
"371 749 OFFCURVE",
"277 749 CURVE SMOOTH",
"169 749 OFFCURVE",
"102 664 OFFCURVE",
"102 539 CURVE SMOOTH",
"102 0 LINE",
"123 0 LINE",
"123 548 LINE SMOOTH",
"123 659 OFFCURVE",
"181 731 OFFCURVE",
"274 731 CURVE SMOOTH",
"357 731 OFFCURVE",
"418 673 OFFCURVE",
"418 588 CURVE SMOOTH",
"418 468 OFFCURVE",
"294 465 OFFCURVE",
"294 381 CURVE SMOOTH",
"294 275 OFFCURVE",
"492 281 OFFCURVE",
"492 131 CURVE SMOOTH",
"492 54 OFFCURVE",
"438 8 OFFCURVE",
"359 8 CURVE SMOOTH",
"316 8 OFFCURVE",
"266 21 OFFCURVE",
"225 43 CURVE",
"219 26 LINE",
"257 4 OFFCURVE",
"311 -10 OFFCURVE",
"357 -10 CURVE SMOOTH"
);
}
);
width = 570;
}
);
unicode = 00DF;
},
{
glyphname = t;
layers = (
{
anchors = (
{
name = bottom;
position = "{204, 5}";
},
{
name = center;
position = "{168, 246}";
},
{
name = top;
position = "{132, 623}";
},
{
name = topright;
position = "{289, 482}";
}
);
layerId = "F333AEC5-BB61-4D5E-9EDD-6124322D28F2";
paths = (
{
closed = 1;
nodes = (
"274 -5 OFFCURVE",
"307 3 OFFCURVE",
"330 13 CURVE",
"312 71 LINE",
"297 64 OFFCURVE",
"275 60 OFFCURVE",
"258 60 CURVE SMOOTH",
"208 60 OFFCURVE",
"175 92 OFFCURVE",
"175 140 CURVE SMOOTH",
"175 623 LINE",
"95 623 LINE",
"95 129 LINE SMOOTH",
"95 49 OFFCURVE",
"153 -5 OFFCURVE",
"241 -5 CURVE SMOOTH"
);
},
{
closed = 1;
nodes = (
"307 415 LINE",
"307 482 LINE",
"30 482 LINE",
"30 415 LINE"
);
}
);
width = 361;
},
{
anchors = (
{
name = bottom;
position = "{225, 0}";
},
{
name = center;
position = "{182, 243}";
},
{
name = top;
position = "{161, 631}";
},
{
name = topright;
position = "{349, 490}";
}
);
layerId = "51C2DFEF-3776-4D13-9284-96485B799B57";
paths = (
{
closed = 1;
nodes = (
"308 -8 OFFCURVE",
"346 -3 OFFCURVE",
"385 8 CURVE",
"352 130 LINE",
"339 125 OFFCURVE",
"325 123 OFFCURVE",
"312 123 CURVE SMOOTH",
"270 123 OFFCURVE",
"245 145 OFFCURVE",
"245 181 CURVE SMOOTH",
"245 631 LINE",
"75 631 LINE",
"75 176 LINE SMOOTH",
"75 60 OFFCURVE",
"147 -8 OFFCURVE",
"274 -8 CURVE SMOOTH"
);
},
{
closed = 1;
nodes = (
"358 355 LINE",
"358 490 LINE",
"5 490 LINE",
"5 355 LINE"
);
}
);
width = 397;
},
{
anchors = (
{
name = bottom;
position = "{169, 0}";
},
{
name = center;
position = "{145, 250}";
},
{
name = top;
position = "{103, 617}";
},
{
name = topright;
position = "{219, 480}";
}
);
layerId = "0B2E441B-685E-400D-9B9B-E078DEED62EF";
paths = (
{
closed = 1;
nodes = (
"221 -3 OFFCURVE",
"245 3 OFFCURVE",
"268 12 CURVE",
"263 26 LINE",
"242 18 OFFCURVE",
"221 14 OFFCURVE",
"203 14 CURVE SMOOTH",
"149 14 OFFCURVE",
"113 51 OFFCURVE",
"113 108 CURVE SMOOTH",
"113 617 LINE",
"92 617 LINE",
"92 103 LINE SMOOTH",
"92 38 OFFCURVE",
"134 -3 OFFCURVE",
"197 -3 CURVE SMOOTH"
);
},
{
closed = 1;
nodes = (
"256 463 LINE",
"256 480 LINE",
"29 480 LINE",
"29 463 LINE"
);
}
);
width = 294;
}
);
note = t;
unicode = 0074;
},
{
glyphname = u;
layers = (
{
anchors = (
{
name = bottom;
position = "{273, 0}";
},
{
name = ogonek;
position = "{452, 10}";
},
{
name = top;
position = "{273, 482}";
},
{
name = topright;
position = "{531, 482}";
}
);
layerId = "F333AEC5-BB61-4D5E-9EDD-6124322D28F2";
paths = (
{
closed = 1;
nodes = (
"394 482 LINE",
"394 56 LINE",
"418 0 LINE",
"474 0 LINE",
"474 482 LINE"
);
},
{
closed = 1;
nodes = (
"74 482 LINE",
"74 166 LINE SMOOTH",
"74 59 OFFCURVE",
"145 -10 OFFCURVE",
"248 -10 CURVE SMOOTH",
"316 -10 OFFCURVE",
"385 20 OFFCURVE",
"434 73 CURVE",
"415 124 LINE",
"377 83 OFFCURVE",
"324 60 OFFCURVE",
"272 60 CURVE SMOOTH",
"197 60 OFFCURVE",
"154 104 OFFCURVE",
"154 182 CURVE SMOOTH",
"154 482 LINE"
);
}
);
width = 557;
},
{
anchors = (
{
name = bottom;
position = "{282, 0}";
},
{
name = ogonek;
position = "{476, 10}";
},
{
name = top;
position = "{282, 490}";
},
{
name = topright;
position = "{522, 490}";
}
);
layerId = "51C2DFEF-3776-4D13-9284-96485B799B57";
paths = (
{
closed = 1;
nodes = (
"350 490 LINE",
"350 114 LINE",
"398 0 LINE",
"523 0 LINE",
"523 490 LINE"
);
},
{
closed = 1;
nodes = (
"44 490 LINE",
"44 186 LINE SMOOTH",
"44 68 OFFCURVE",
"112 -6 OFFCURVE",
"216 -6 CURVE SMOOTH",
"284 -6 OFFCURVE",
"345 25 OFFCURVE",
"385 82 CURVE",
"366 185 LINE",
"344 160 OFFCURVE",
"316 144 OFFCURVE",
"282 144 CURVE SMOOTH",
"225 144 OFFCURVE",
"217 189 OFFCURVE",
"217 225 CURVE SMOOTH",
"217 490 LINE"
);
}
);
width = 577;
},
{
anchors = (
{
name = bottom;
position = "{249, 0}";
},
{
name = ogonek;
position = "{424, 10}";
},
{
name = top;
position = "{249, 480}";
},
{
name = topright;
position = "{490, 480}";
}
);
layerId = "0B2E441B-685E-400D-9B9B-E078DEED62EF";
paths = (
{
closed = 1;
nodes = (
"409 480 LINE",
"409 76 LINE",
"413 0 LINE",
"430 0 LINE",
"430 480 LINE"
);
},
{
closed = 1;
nodes = (
"80 480 LINE",
"80 166 LINE SMOOTH",
"80 57 OFFCURVE",
"143 -6 OFFCURVE",
"241 -6 CURVE SMOOTH",
"308 -6 OFFCURVE",
"378 25 OFFCURVE",
"427 76 CURVE",
"418 87 LINE",
"372 40 OFFCURVE",
"306 12 OFFCURVE",
"245 12 CURVE SMOOTH",
"156 12 OFFCURVE",
"101 69 OFFCURVE",
"101 166 CURVE SMOOTH",
"101 480 LINE"
);
}
);
width = 518;
}
);
note = u;
unicode = 0075;
},
{
glyphname = v;
layers = (
{
anchors = (
{
name = bottom;
position = "{240, 0}";
},
{
name = top;
position = "{240, 482}";
}
);
layerId = "F333AEC5-BB61-4D5E-9EDD-6124322D28F2";
paths = (
{
closed = 1;
nodes = (
"280 0 LINE",
"468 482 LINE",
"388 482 LINE",
"221 16 LINE",
"265 16 LINE",
"101 482 LINE",
"12 482 LINE",
"202 0 LINE"
);
}
);
width = 480;
},
{
anchors = (
{
name = bottom;
position = "{265, 0}";
},
{
name = top;
position = "{265, 490}";
}
);
layerId = "51C2DFEF-3776-4D13-9284-96485B799B57";
paths = (
{
closed = 1;
nodes = (
"353 0 LINE",
"543 490 LINE",
"369 490 LINE",
"258 124 LINE",
"281 124 LINE",
"182 490 LINE",
"-8 490 LINE",
"180 0 LINE"
);
}
);
width = 534;
},
{
anchors = (
{
name = bottom;
position = "{227, 0}";
},
{
name = top;
position = "{227, 480}";
}
);
layerId = "0B2E441B-685E-400D-9B9B-E078DEED62EF";
paths = (
{
closed = 1;
nodes = (
"237 0 LINE",
"426 480 LINE",
"405 480 LINE",
"224 14 LINE",
"233 14 LINE",
"50 480 LINE",
"27 480 LINE",
"219 0 LINE"
);
}
);
width = 453;
}
);
note = v;
unicode = 0076;
},
{
glyphname = w;
layers = (
{
anchors = (
{
name = bottom;
position = "{401, 0}";
},
{
name = top;
position = "{401, 482}";
}
);
layerId = "F333AEC5-BB61-4D5E-9EDD-6124322D28F2";
paths = (
{
closed = 1;
nodes = (
"266 0 LINE",
"407 440 LINE",
"374 440 LINE",
"521 0 LINE",
"602 0 LINE",
"772 482 LINE",
"692 482 LINE",
"549 35 LINE",
"582 35 LINE",
"442 480 LINE",
"352 480 LINE",
"215 35 LINE",
"247 35 LINE",
"105 482 LINE",
"14 482 LINE",
"190 0 LINE"
);
}
);
width = 787;
},
{
anchors = (
{
name = bottom;
position = "{424, 0}";
},
{
name = top;
position = "{424, 490}";
}
);
layerId = "51C2DFEF-3776-4D13-9284-96485B799B57";
paths = (
{
closed = 1;
nodes = (
"333 0 LINE",
"435 382 LINE",
"385 382 LINE",
"501 0 LINE",
"673 0 LINE",
"851 490 LINE",
"683 490 LINE",
"563 86 LINE",
"620 86 LINE",
"508 488 LINE",
"345 488 LINE",
"236 76 LINE",
"289 76 LINE",
"179 490 LINE",
"-8 490 LINE",
"172 0 LINE"
);
}
);
width = 843;
},
{
anchors = (
{
name = bottom;
position = "{377, 0}";
},
{
name = top;
position = "{377, 480}";
}
);
background = {
paths = (
{
closed = 1;
nodes = (
"725 480 LINE",
"703 480 LINE",
"544 25 LINE",
"549 25 LINE",
"387 480 LINE",
"366 480 LINE",
"203 25 LINE",
"210 25 LINE",
"49 480 LINE",
"28 480 LINE",
"201 0 LINE",
"215 0 LINE",
"381 460 LINE",
"374 460 LINE",
"540 0 LINE",
"555 0 LINE"
);
}
);
};
layerId = "0B2E441B-685E-400D-9B9B-E078DEED62EF";
paths = (
{
closed = 1;
nodes = (
"218 0 LINE",
"379 459 LINE",
"372 459 LINE",
"537 0 LINE",
"551 0 LINE",
"721 480 LINE",
"700 480 LINE",
"542 25 LINE",
"548 25 LINE",
"386 479 LINE",
"366 479 LINE",
"209 25 LINE",
"214 25 LINE",
"50 480 LINE",
"28 480 LINE",
"203 0 LINE"
);
}
);
width = 750;
}
);
note = w;
unicode = 0077;
},
{
glyphname = x;
layers = (
{
anchors = (
{
name = bottom;
position = "{234, 0}";
},
{
name = top;
position = "{234, 482}";
}
);
layerId = "F333AEC5-BB61-4D5E-9EDD-6124322D28F2";
paths = (
{
closed = 1;
nodes = (
"105 0 LINE",
"255 214 LINE",
"458 482 LINE",
"367 482 LINE",
"214 264 LINE",
"14 0 LINE"
);
},
{
closed = 1;
nodes = (
"449 0 LINE",
"251 272 LINE",
"105 482 LINE",
"13 482 LINE",
"208 211 LINE",
"357 0 LINE"
);
}
);
width = 469;
},
{
anchors = (
{
name = bottom;
position = "{282, 0}";
},
{
name = top;
position = "{281, 490}";
}
);
layerId = "51C2DFEF-3776-4D13-9284-96485B799B57";
paths = (
{
closed = 1;
nodes = (
"177 0 LINE",
"298 187 LINE",
"535 490 LINE",
"343 490 LINE",
"234 322 LINE",
"-5 0 LINE"
);
},
{
closed = 1;
nodes = (
"521 0 LINE",
"297 315 LINE",
"191 490 LINE",
"-8 490 LINE",
"175 240 LINE",
"323 0 LINE"
);
}
);
width = 524;
},
{
anchors = (
{
name = bottom;
position = "{219, 0}";
},
{
name = top;
position = "{217, 480}";
}
);
layerId = "0B2E441B-685E-400D-9B9B-E078DEED62EF";
paths = (
{
closed = 1;
nodes = (
"52 0 LINE",
"222 238 LINE",
"412 480 LINE",
"390 480 LINE",
"212 251 LINE",
"30 0 LINE"
);
},
{
closed = 1;
nodes = (
"399 0 LINE",
"222 250 LINE",
"51 480 LINE",
"27 480 LINE",
"210 235 LINE",
"375 0 LINE"
);
}
);
width = 437;
}
);
note = x;
unicode = 0078;
},
{
glyphname = y;
layers = (
{
anchors = (
{
name = bottom;
position = "{381, 0}";
},
{
name = top;
position = "{231, 482}";
}
);
layerId = "F333AEC5-BB61-4D5E-9EDD-6124322D28F2";
paths = (
{
closed = 1;
nodes = (
"281 0 LINE",
"469 482 LINE",
"389 482 LINE",
"222 16 LINE",
"266 16 LINE",
"102 482 LINE",
"13 482 LINE",
"203 0 LINE"
);
},
{
closed = 1;
nodes = (
"201 -217 LINE",
"281 0 LINE",
"203 0 LINE",
"116 -217 LINE"
);
}
);
width = 482;
},
{
anchors = (
{
name = bottom;
position = "{444, 0}";
},
{
name = top;
position = "{262, 490}";
}
);
layerId = "51C2DFEF-3776-4D13-9284-96485B799B57";
paths = (
{
closed = 1;
nodes = (
"355 0 LINE",
"540 490 LINE",
"368 490 LINE",
"259 124 LINE",
"281 124 LINE",
"183 490 LINE",
"-8 490 LINE",
"180 0 LINE"
);
},
{
closed = 1;
nodes = (
"279 -217 LINE",
"355 0 LINE",
"180 0 LINE",
"91 -217 LINE"
);
}
);
width = 532;
},
{
anchors = (
{
name = bottom;
position = "{333, 0}";
},
{
name = top;
position = "{215, 480}";
}
);
layerId = "0B2E441B-685E-400D-9B9B-E078DEED62EF";
paths = (
{
closed = 1;
nodes = (
"237 0 LINE",
"426 480 LINE",
"405 480 LINE",
"224 14 LINE",
"233 14 LINE",
"50 480 LINE",
"27 480 LINE",
"219 0 LINE"
);
},
{
closed = 1;
nodes = (
"158 -217 LINE",
"237 0 LINE",
"219 0 LINE",
"135 -217 LINE"
);
}
);
width = 453;
}
);
note = y;
unicode = 0079;
},
{
glyphname = z;
layers = (
{
anchors = (
{
name = bottom;
position = "{232, 0}";
},
{
name = top;
position = "{232, 482}";
}
);
layerId = "F333AEC5-BB61-4D5E-9EDD-6124322D28F2";
paths = (
{
closed = 1;
nodes = (
"429 0 LINE",
"429 67 LINE",
"117 67 LINE",
"129 49 LINE",
"417 433 LINE",
"417 482 LINE",
"39 482 LINE",
"39 415 LINE",
"338 415 LINE",
"326 433 LINE",
"39 49 LINE",
"39 0 LINE"
);
}
);
width = 464;
},
{
anchors = (
{
name = bottom;
position = "{245, 0}";
},
{
name = top;
position = "{245, 490}";
}
);
layerId = "51C2DFEF-3776-4D13-9284-96485B799B57";
paths = (
{
closed = 1;
nodes = (
"467 0 LINE",
"467 141 LINE",
"170 141 LINE",
"198 80 LINE",
"454 386 LINE",
"454 490 LINE",
"28 490 LINE",
"28 349 LINE",
"313 349 LINE",
"285 411 LINE",
"28 103 LINE",
"28 0 LINE"
);
}
);
width = 490;
},
{
anchors = (
{
name = bottom;
position = "{207, 0}";
},
{
name = top;
position = "{207, 480}";
}
);
layerId = "0B2E441B-685E-400D-9B9B-E078DEED62EF";
paths = (
{
closed = 1;
nodes = (
"386 0 LINE",
"386 17 LINE",
"50 17 LINE",
"52 13 LINE",
"376 464 LINE",
"376 480 LINE",
"31 480 LINE",
"31 463 LINE",
"357 463 LINE",
"355 467 LINE",
"31 15 LINE",
"31 0 LINE"
);
}
);
width = 414;
}
);
note = z;
unicode = 007A;
},
{
glyphname = ordfeminine;
layers = (
{
layerId = "F333AEC5-BB61-4D5E-9EDD-6124322D28F2";
paths = (
{
closed = 1;
nodes = (
"354 380 LINE",
"354 608 LINE SMOOTH",
"354 699 OFFCURVE",
"301 750 OFFCURVE",
"204 750 CURVE SMOOTH",
"157 750 OFFCURVE",
"103 737 OFFCURVE",
"62 716 CURVE",
"79 666 LINE",
"116 682 OFFCURVE",
"157 690 OFFCURVE",
"189 690 CURVE SMOOTH",
"251 690 OFFCURVE",
"284 663 OFFCURVE",
"284 612 CURVE SMOOTH",
"284 441 LINE",
"303 380 LINE"
);
},
{
closed = 1;
nodes = (
"249 373 OFFCURVE",
"306 413 OFFCURVE",
"327 485 CURVE",
"305 498 LINE",
"286 455 OFFCURVE",
"245 429 OFFCURVE",
"198 429 CURVE SMOOTH",
"155 429 OFFCURVE",
"124 452 OFFCURVE",
"124 487 CURVE SMOOTH",
"124 531 OFFCURVE",
"174 549 OFFCURVE",
"297 549 CURVE",
"297 591 LINE",
"128 591 OFFCURVE",
"53 556 OFFCURVE",
"53 477 CURVE SMOOTH",
"53 414 OFFCURVE",
"101 373 OFFCURVE",
"175 373 CURVE SMOOTH"
);
}
);
userData = {
RMXScaler = {
height = 75;
verticalShift = 380;
weight = -10;
width = 75;
};
};
width = 429;
},
{
layerId = "51C2DFEF-3776-4D13-9284-96485B799B57";
paths = (
{
closed = 1;
nodes = (
"364 376 LINE",
"364 585 LINE SMOOTH",
"364 692 OFFCURVE",
"304 750 OFFCURVE",
"186 750 CURVE SMOOTH",
"130 750 OFFCURVE",
"71 737 OFFCURVE",
"26 714 CURVE",
"55 630 LINE",
"97 646 OFFCURVE",
"132 651 OFFCURVE",
"161 651 CURVE SMOOTH",
"214 651 OFFCURVE",
"245 633 OFFCURVE",
"245 597 CURVE SMOOTH",
"245 458 LINE",
"277 376 LINE"
);
},
{
closed = 1;
nodes = (
"234 369 OFFCURVE",
"293 417 OFFCURVE",
"309 503 CURVE",
"270 518 LINE",
"263 485 OFFCURVE",
"229 462 OFFCURVE",
"192 462 CURVE SMOOTH",
"164 462 OFFCURVE",
"143 476 OFFCURVE",
"143 497 CURVE SMOOTH",
"143 523 OFFCURVE",
"176 533 OFFCURVE",
"265 533 CURVE",
"265 598 LINE",
"96 598 OFFCURVE",
"21 562 OFFCURVE",
"21 480 CURVE SMOOTH",
"21 413 OFFCURVE",
"71 369 OFFCURVE",
"151 369 CURVE SMOOTH"
);
}
);
userData = {
RMXScaler = {
height = 75;
verticalShift = 376;
weight = -50;
width = 75;
};
};
width = 399;
},
{
layerId = "0B2E441B-685E-400D-9B9B-E078DEED62EF";
paths = (
{
closed = 1;
nodes = (
"296 384 LINE",
"296 629 LINE SMOOTH",
"296 705 OFFCURVE",
"251 749 OFFCURVE",
"176 749 CURVE SMOOTH",
"139 749 OFFCURVE",
"91 737 OFFCURVE",
"52 717 CURVE",
"57 704 LINE",
"97 724 OFFCURVE",
"139 733 OFFCURVE",
"171 733 CURVE SMOOTH",
"239 733 OFFCURVE",
"277 696 OFFCURVE",
"277 626 CURVE SMOOTH",
"277 436 LINE",
"281 384 LINE"
);
},
{
closed = 1;
nodes = (
"206 377 OFFCURVE",
"253 400 OFFCURVE",
"287 441 CURVE",
"285 454 LINE",
"245 412 OFFCURVE",
"203 393 OFFCURVE",
"158 393 CURVE SMOOTH",
"98 393 OFFCURVE",
"58 426 OFFCURVE",
"58 476 CURVE SMOOTH",
"58 540 OFFCURVE",
"125 568 OFFCURVE",
"283 568 CURVE",
"283 582 LINE",
"117 582 OFFCURVE",
"39 548 OFFCURVE",
"39 473 CURVE SMOOTH",
"39 415 OFFCURVE",
"84 377 OFFCURVE",
"153 377 CURVE SMOOTH"
);
}
);
userData = {
RMXScaler = {
height = 75;
verticalShift = 384;
weight = -2;
width = 75;
};
};
width = 361;
}
);
unicode = 00AA;
userData = {
RMXScaler = {
source = a;
};
};
},
{
glyphname = ordmasculine;
layers = (
{
layerId = "F333AEC5-BB61-4D5E-9EDD-6124322D28F2";
paths = (
{
closed = 1;
nodes = (
"334 373 OFFCURVE",
"407 450 OFFCURVE",
"407 565 CURVE SMOOTH",
"407 677 OFFCURVE",
"339 749 OFFCURVE",
"235 749 CURVE SMOOTH",
"126 749 OFFCURVE",
"54 672 OFFCURVE",
"54 557 CURVE SMOOTH",
"54 446 OFFCURVE",
"122 373 OFFCURVE",
"227 373 CURVE SMOOTH"
);
},
{
closed = 1;
nodes = (
"166 430 OFFCURVE",
"123 483 OFFCURVE",
"123 563 CURVE SMOOTH",
"123 640 OFFCURVE",
"163 692 OFFCURVE",
"228 692 CURVE SMOOTH",
"295 692 OFFCURVE",
"339 638 OFFCURVE",
"339 558 CURVE SMOOTH",
"339 480 OFFCURVE",
"297 430 OFFCURVE",
"233 430 CURVE SMOOTH"
);
}
);
userData = {
RMXScaler = {
height = 75;
verticalShift = 380;
weight = -13;
width = 75;
};
};
width = 461;
},
{
layerId = "51C2DFEF-3776-4D13-9284-96485B799B57";
paths = (
{
closed = 1;
nodes = (
"327 369 OFFCURVE",
"409 448 OFFCURVE",
"409 566 CURVE SMOOTH",
"409 678 OFFCURVE",
"335 750 OFFCURVE",
"221 750 CURVE SMOOTH",
"100 750 OFFCURVE",
"19 671 OFFCURVE",
"19 552 CURVE SMOOTH",
"19 441 OFFCURVE",
"92 369 OFFCURVE",
"207 369 CURVE SMOOTH"
);
},
{
closed = 1;
nodes = (
"169 468 OFFCURVE",
"139 505 OFFCURVE",
"139 561 CURVE SMOOTH",
"139 616 OFFCURVE",
"166 650 OFFCURVE",
"211 650 CURVE SMOOTH",
"258 650 OFFCURVE",
"289 613 OFFCURVE",
"289 555 CURVE SMOOTH",
"289 502 OFFCURVE",
"262 468 OFFCURVE",
"217 468 CURVE SMOOTH"
);
}
);
userData = {
RMXScaler = {
height = 75;
verticalShift = 376;
weight = -53;
width = 75;
};
};
width = 428;
},
{
layerId = "0B2E441B-685E-400D-9B9B-E078DEED62EF";
paths = (
{
closed = 1;
nodes = (
"300 377 OFFCURVE",
"365 452 OFFCURVE",
"365 564 CURVE SMOOTH",
"365 676 OFFCURVE",
"301 749 OFFCURVE",
"208 749 CURVE SMOOTH",
"111 749 OFFCURVE",
"47 673 OFFCURVE",
"47 562 CURVE SMOOTH",
"47 451 OFFCURVE",
"110 377 OFFCURVE",
"206 377 CURVE SMOOTH"
);
},
{
closed = 1;
nodes = (
"121 393 OFFCURVE",
"66 462 OFFCURVE",
"66 564 CURVE SMOOTH",
"66 663 OFFCURVE",
"119 733 OFFCURVE",
"204 733 CURVE SMOOTH",
"289 733 OFFCURVE",
"346 666 OFFCURVE",
"346 562 CURVE SMOOTH",
"346 459 OFFCURVE",
"291 393 OFFCURVE",
"208 393 CURVE SMOOTH"
);
}
);
userData = {
RMXScaler = {
height = 75;
verticalShift = 384;
weight = -2;
width = 75;
};
};
width = 412;
}
);
unicode = 00BA;
userData = {
RMXScaler = {
source = o;
};
};
},
{
glyphname = "Be-cy";
layers = (
{
layerId = "0B2E441B-685E-400D-9B9B-E078DEED62EF";
paths = (
{
closed = 1;
nodes = (
"318 0 LINE SMOOTH",
"463 0 OFFCURVE",
"546 71 OFFCURVE",
"546 195 CURVE SMOOTH",
"546 317 OFFCURVE",
"471 393 OFFCURVE",
"352 393 CURVE SMOOTH",
"124 393 LINE",
"124 376 LINE",
"342 376 LINE SMOOTH",
"454 376 OFFCURVE",
"524 305 OFFCURVE",
"524 191 CURVE SMOOTH",
"524 78 OFFCURVE",
"456 18 OFFCURVE",
"329 18 CURVE SMOOTH",
"132 18 LINE",
"132 676 LINE",
"476 676 LINE",
"476 694 LINE",
"110 694 LINE",
"110 0 LINE"
);
}
);
width = 605;
},
{
layerId = "F333AEC5-BB61-4D5E-9EDD-6124322D28F2";
paths = (
{
closed = 1;
nodes = (
"336 0 LINE SMOOTH",
"492 0 OFFCURVE",
"590 82 OFFCURVE",
"590 212 CURVE SMOOTH",
"590 332 OFFCURVE",
"499 417 OFFCURVE",
"369 417 CURVE SMOOTH",
"153 417 LINE",
"153 345 LINE",
"360 345 LINE SMOOTH",
"445 345 OFFCURVE",
"505 284 OFFCURVE",
"505 195 CURVE SMOOTH",
"505 112 OFFCURVE",
"453 72 OFFCURVE",
"346 72 CURVE SMOOTH",
"187 72 LINE",
"187 623 LINE",
"515 623 LINE",
"515 694 LINE",
"104 694 LINE",
"104 0 LINE"
);
}
);
width = 643;
},
{
layerId = "51C2DFEF-3776-4D13-9284-96485B799B57";
paths = (
{
closed = 1;
nodes = (
"331 0 LINE SMOOTH",
"504 0 OFFCURVE",
"622 94 OFFCURVE",
"622 232 CURVE SMOOTH",
"622 357 OFFCURVE",
"531 434 OFFCURVE",
"382 434 CURVE SMOOTH",
"180 434 LINE",
"180 302 LINE",
"344 302 LINE SMOOTH",
"403 302 OFFCURVE",
"442 268 OFFCURVE",
"442 215 CURVE SMOOTH",
"442 164 OFFCURVE",
"410 136 OFFCURVE",
"354 136 CURVE SMOOTH",
"237 136 LINE",
"237 543 LINE",
"542 543 LINE",
"542 694 LINE",
"67 694 LINE",
"67 0 LINE"
);
}
);
width = 637;
}
);
unicode = 0411;
},
{
glyphname = "Ge-cy";
layers = (
{
anchors = (
{
name = bottomright;
position = "{169, 0}";
},
{
name = top;
position = "{265, 694}";
}
);
layerId = "0B2E441B-685E-400D-9B9B-E078DEED62EF";
paths = (
{
closed = 1;
nodes = (
"132 0 LINE",
"132 676 LINE",
"487 676 LINE",
"487 694 LINE",
"110 694 LINE",
"110 0 LINE"
);
}
);
width = 509;
},
{
anchors = (
{
name = bottomright;
position = "{196, 0}";
},
{
name = top;
position = "{286, 694}";
}
);
layerId = "F333AEC5-BB61-4D5E-9EDD-6124322D28F2";
paths = (
{
closed = 1;
nodes = (
"187 0 LINE",
"187 620 LINE",
"525 620 LINE",
"525 694 LINE",
"104 694 LINE",
"104 0 LINE"
);
}
);
width = 550;
},
{
anchors = (
{
name = bottomright;
position = "{187, 0}";
},
{
name = top;
position = "{284, 694}";
}
);
layerId = "51C2DFEF-3776-4D13-9284-96485B799B57";
paths = (
{
closed = 1;
nodes = (
"244 0 LINE",
"244 537 LINE",
"553 537 LINE",
"553 694 LINE",
"68 694 LINE",
"68 0 LINE"
);
}
);
width = 553;
}
);
unicode = 0413;
},
{
glyphname = "Gheupturn-cy";
layers = (
{
layerId = "0B2E441B-685E-400D-9B9B-E078DEED62EF";
paths = (
{
closed = 1;
nodes = (
"132 0 LINE",
"132 676 LINE",
"482 676 LINE",
"482 850 LINE",
"463 850 LINE",
"463 694 LINE",
"110 694 LINE",
"110 0 LINE"
);
}
);
width = 504;
},
{
layerId = "F333AEC5-BB61-4D5E-9EDD-6124322D28F2";
paths = (
{
closed = 1;
nodes = (
"187 0 LINE",
"187 622 LINE",
"525 622 LINE",
"525 854 LINE",
"459 854 LINE",
"459 694 LINE",
"104 694 LINE",
"104 0 LINE"
);
}
);
width = 549;
},
{
layerId = "51C2DFEF-3776-4D13-9284-96485B799B57";
paths = (
{
closed = 1;
nodes = (
"244 0 LINE",
"244 542 LINE",
"553 542 LINE",
"553 860 LINE",
"420 860 LINE",
"420 694 LINE",
"68 694 LINE",
"68 0 LINE"
);
}
);
width = 552;
}
);
unicode = 0490;
},
{
glyphname = "De-cy";
layers = (
{
layerId = "0B2E441B-685E-400D-9B9B-E078DEED62EF";
paths = (
{
closed = 1;
nodes = (
"184 2 OFFCURVE",
"235 129 OFFCURVE",
"235 407 CURVE SMOOTH",
"235 675 LINE",
"553 675 LINE",
"553 6 LINE",
"575 6 LINE",
"575 694 LINE",
"213 694 LINE",
"213 409 LINE SMOOTH",
"213 142 OFFCURVE",
"169 19 OFFCURVE",
"72 19 CURVE",
"74 2 LINE"
);
},
{
closed = 1;
nodes = (
"60 -175 LINE",
"60 0 LINE",
"642 0 LINE",
"642 -175 LINE",
"663 -175 LINE",
"663 19 LINE",
"39 19 LINE",
"39 -175 LINE"
);
}
);
width = 702;
},
{
layerId = "F333AEC5-BB61-4D5E-9EDD-6124322D28F2";
paths = (
{
closed = 1;
nodes = (
"221 17 OFFCURVE",
"289 128 OFFCURVE",
"289 342 CURVE SMOOTH",
"289 624 LINE",
"552 624 LINE",
"552 40 LINE",
"633 40 LINE",
"633 694 LINE",
"208 694 LINE",
"208 342 LINE SMOOTH",
"208 161 OFFCURVE",
"165 67 OFFCURVE",
"82 67 CURVE",
"92 17 LINE"
);
},
{
closed = 1;
nodes = (
"114 -178 LINE",
"114 0 LINE",
"670 0 LINE",
"670 -178 LINE",
"745 -178 LINE",
"745 71 LINE",
"39 71 LINE",
"39 -178 LINE"
);
}
);
width = 784;
},
{
layerId = "51C2DFEF-3776-4D13-9284-96485B799B57";
paths = (
{
closed = 1;
nodes = (
"245 90 OFFCURVE",
"331 184 OFFCURVE",
"331 364 CURVE SMOOTH",
"331 545 LINE",
"516 545 LINE",
"516 70 LINE",
"687 70 LINE",
"687 694 LINE",
"165 694 LINE",
"165 360 LINE SMOOTH",
"165 223 OFFCURVE",
"127 151 OFFCURVE",
"55 150 CURVE",
"81 89 LINE"
);
},
{
closed = 1;
nodes = (
"172 -187 LINE",
"172 0 LINE",
"657 0 LINE",
"657 -187 LINE",
"820 -187 LINE",
"820 151 LINE",
"10 151 LINE",
"10 -187 LINE"
);
}
);
width = 830;
}
);
unicode = 0414;
},
{
glyphname = "Zhe-cy";
layers = (
{
anchors = (
{
name = bottomright;
position = "{852, 0}";
},
{
name = top;
position = "{442, 694}";
}
);
layerId = "0B2E441B-685E-400D-9B9B-E078DEED62EF";
paths = (
{
closed = 1;
nodes = (
"847 0 LINE",
"603 364 LINE",
"603 354 LINE",
"835 694 LINE",
"808 694 LINE",
"584 358 LINE",
"821 0 LINE"
);
},
{
closed = 1;
nodes = (
"63 0 LINE",
"300 359 LINE",
"77 694 LINE",
"50 694 LINE",
"281 354 LINE",
"280 363 LINE",
"37 0 LINE"
);
},
{
closed = 1;
nodes = (
"598 349 LINE",
"598 367 LINE",
"278 367 LINE",
"278 349 LINE"
);
},
{
closed = 1;
nodes = (
"452 0 LINE",
"452 694 LINE",
"432 694 LINE",
"432 0 LINE"
);
}
);
width = 884;
},
{
anchors = (
{
name = bottomright;
position = "{911, 0}";
},
{
name = top;
position = "{483, 694}";
}
);
layerId = "F333AEC5-BB61-4D5E-9EDD-6124322D28F2";
paths = (
{
closed = 1;
nodes = (
"938 0 LINE",
"702 376 LINE",
"703 356 LINE",
"925 694 LINE",
"830 694 LINE",
"612 361 LINE",
"839 0 LINE"
);
},
{
closed = 1;
nodes = (
"121 0 LINE",
"352 363 LINE",
"138 694 LINE",
"39 694 LINE",
"264 349 LINE",
"262 368 LINE",
"26 0 LINE"
);
},
{
closed = 1;
nodes = (
"664 323 LINE",
"664 395 LINE",
"284 395 LINE",
"284 323 LINE"
);
},
{
closed = 1;
nodes = (
"524 0 LINE",
"524 694 LINE",
"441 694 LINE",
"441 0 LINE"
);
}
);
width = 964;
},
{
anchors = (
{
name = bottomright;
position = "{905, 0}";
},
{
name = top;
position = "{521, 694}";
}
);
layerId = "51C2DFEF-3776-4D13-9284-96485B799B57";
paths = (
{
closed = 1;
nodes = (
"1042 0 LINE",
"829 387 LINE",
"832 360 LINE",
"1034 694 LINE",
"831 694 LINE",
"649 363 LINE",
"845 0 LINE"
);
},
{
closed = 1;
nodes = (
"192 0 LINE",
"395 361 LINE",
"218 694 LINE",
"13 694 LINE",
"215 331 LINE",
"212 359 LINE",
"-3 0 LINE"
);
},
{
closed = 1;
nodes = (
"750 278 LINE",
"750 430 LINE",
"301 430 LINE",
"301 278 LINE"
);
},
{
closed = 1;
nodes = (
"610 0 LINE",
"610 694 LINE",
"437 694 LINE",
"437 0 LINE"
);
}
);
width = 1041;
}
);
unicode = 0416;
},
{
glyphname = "Ze-cy";
layers = (
{
anchors = (
{
name = bottom;
position = "{291, 0}";
},
{
name = top;
position = "{291, 694}";
}
);
background = {
components = (
{
name = B;
transform = "{1, 0, 0, 1, -36, 0}";
}
);
};
layerId = "0B2E441B-685E-400D-9B9B-E078DEED62EF";
paths = (
{
closed = 1;
nodes = (
"418 -10 OFFCURVE",
"507 61 OFFCURVE",
"507 181 CURVE SMOOTH",
"507 293 OFFCURVE",
"428 368 OFFCURVE",
"309 369 CURVE",
"319 364 LINE",
"428 364 OFFCURVE",
"492 424 OFFCURVE",
"492 525 CURVE SMOOTH",
"492 637 OFFCURVE",
"409 704 OFFCURVE",
"269 704 CURVE SMOOTH",
"190 704 OFFCURVE",
"123 683 OFFCURVE",
"68 645 CURVE",
"73 627 LINE",
"137 666 OFFCURVE",
"196 684 OFFCURVE",
"264 684 CURVE SMOOTH",
"391 684 OFFCURVE",
"469 622 OFFCURVE",
"469 520 CURVE SMOOTH",
"469 428 OFFCURVE",
"404 374 OFFCURVE",
"292 374 CURVE SMOOTH",
"147 374 LINE",
"147 355 LINE",
"281 355 LINE SMOOTH",
"405 355 OFFCURVE",
"485 286 OFFCURVE",
"485 177 CURVE SMOOTH",
"485 72 OFFCURVE",
"405 11 OFFCURVE",
"274 11 CURVE SMOOTH",
"197 11 OFFCURVE",
"117 31 OFFCURVE",
"54 65 CURVE",
"48 45 LINE",
"110 11 OFFCURVE",
"192 -10 OFFCURVE",
"272 -10 CURVE SMOOTH"
);
}
);
width = 582;
},
{
anchors = (
{
name = bottom;
position = "{302, 0}";
},
{
name = top;
position = "{302, 694}";
}
);
layerId = "F333AEC5-BB61-4D5E-9EDD-6124322D28F2";
paths = (
{
closed = 1;
nodes = (
"432 -10 OFFCURVE",
"539 70 OFFCURVE",
"539 197 CURVE SMOOTH",
"539 302 OFFCURVE",
"462 370 OFFCURVE",
"330 378 CURVE",
"356 364 LINE",
"460 369 OFFCURVE",
"522 429 OFFCURVE",
"522 526 CURVE SMOOTH",
"522 637 OFFCURVE",
"433 704 OFFCURVE",
"286 704 CURVE SMOOTH",
"203 704 OFFCURVE",
"125 682 OFFCURVE",
"63 647 CURVE",
"81 585 LINE",
"141 613 OFFCURVE",
"204 631 OFFCURVE",
"270 631 CURVE SMOOTH",
"374 631 OFFCURVE",
"437 585 OFFCURVE",
"437 511 CURVE SMOOTH",
"437 437 OFFCURVE",
"375 393 OFFCURVE",
"273 393 CURVE SMOOTH",
"151 393 LINE",
"151 323 LINE",
"245 323 LINE SMOOTH",
"381 323 OFFCURVE",
"454 277 OFFCURVE",
"454 189 CURVE SMOOTH",
"454 106 OFFCURVE",
"389 63 OFFCURVE",
"281 63 CURVE SMOOTH",
"218 63 OFFCURVE",
"135 78 OFFCURVE",
"67 112 CURVE",
"48 44 LINE",
"116 10 OFFCURVE",
"194 -10 OFFCURVE",
"274 -10 CURVE SMOOTH"
);
}
);
width = 606;
},
{
anchors = (
{
name = bottom;
position = "{297, 0}";
},
{
name = top;
position = "{297, 694}";
}
);
layerId = "51C2DFEF-3776-4D13-9284-96485B799B57";
paths = (
{
closed = 1;
nodes = (
"439 -10 OFFCURVE",
"565 77 OFFCURVE",
"565 210 CURVE SMOOTH",
"565 306 OFFCURVE",
"494 371 OFFCURVE",
"384 375 CURVE",
"382 365 LINE",
"477 365 OFFCURVE",
"546 429 OFFCURVE",
"546 518 CURVE SMOOTH",
"546 631 OFFCURVE",
"439 704 OFFCURVE",
"273 704 CURVE SMOOTH",
"188 704 OFFCURVE",
"103 684 OFFCURVE",
"29 647 CURVE",
"70 510 LINE",
"137 536 OFFCURVE",
"191 548 OFFCURVE",
"242 548 CURVE SMOOTH",
"316 548 OFFCURVE",
"355 528 OFFCURVE",
"355 491 CURVE SMOOTH",
"355 447 OFFCURVE",
"307 418 OFFCURVE",
"235 418 CURVE SMOOTH",
"130 418 LINE",
"130 281 LINE",
"237 281 LINE SMOOTH",
"325 281 OFFCURVE",
"375 256 OFFCURVE",
"375 212 CURVE SMOOTH",
"375 170 OFFCURVE",
"329 146 OFFCURVE",
"251 146 CURVE SMOOTH",
"193 146 OFFCURVE",
"121 159 OFFCURVE",
"60 183 CURVE",
"18 41 LINE",
"97 4 OFFCURVE",
"164 -10 OFFCURVE",
"245 -10 CURVE SMOOTH"
);
}
);
width = 592;
}
);
unicode = 0417;
},
{
glyphname = "Ii-cy";
layers = (
{
anchors = (
{
name = bottomright;
position = "{702, 0}";
},
{
name = top;
position = "{361, 694}";
}
);
layerId = "0B2E441B-685E-400D-9B9B-E078DEED62EF";
paths = (
{
closed = 1;
nodes = (
"137 0 LINE",
"593 674 LINE",
"592 674 LINE",
"592 0 LINE",
"612 0 LINE",
"612 694 LINE",
"585 694 LINE",
"128 20 LINE",
"130 20 LINE",
"130 694 LINE",
"110 694 LINE",
"110 0 LINE"
);
}
);
width = 722;
},
{
anchors = (
{
name = bottomright;
position = "{746, 0}";
},
{
name = top;
position = "{382, 694}";
}
);
layerId = "F333AEC5-BB61-4D5E-9EDD-6124322D28F2";
paths = (
{
closed = 1;
nodes = (
"193 0 LINE",
"597 605 LINE",
"579 605 LINE",
"579 0 LINE",
"660 0 LINE",
"660 694 LINE",
"568 694 LINE",
"166 87 LINE",
"185 87 LINE",
"185 694 LINE",
"104 694 LINE",
"104 0 LINE"
);
}
);
width = 764;
},
{
anchors = (
{
name = bottomright;
position = "{750, 0}";
},
{
name = top;
position = "{385, 694}";
}
);
layerId = "51C2DFEF-3776-4D13-9284-96485B799B57";
paths = (
{
closed = 1;
nodes = (
"254 0 LINE",
"546 470 LINE",
"531 480 LINE",
"531 0 LINE",
"703 0 LINE",
"703 694 LINE",
"512 694 LINE",
"221 216 LINE",
"239 206 LINE",
"239 694 LINE",
"67 694 LINE",
"67 0 LINE"
);
}
);
width = 770;
}
);
unicode = 0418;
},
{
glyphname = "Ka-cy";
layers = (
{
anchors = (
{
name = bottomright;
position = "{589, 0}";
},
{
name = top;
position = "{309, 694}";
}
);
layerId = "0B2E441B-685E-400D-9B9B-E078DEED62EF";
paths = (
{
closed = 1;
nodes = (
"580 0 LINE",
"285 364 LINE",
"285 353 LINE",
"565 694 LINE",
"541 694 LINE",
"266 357 LINE",
"555 0 LINE"
);
},
{
closed = 1;
nodes = (
"130 0 LINE",
"130 694 LINE",
"110 694 LINE",
"110 0 LINE"
);
},
{
closed = 1;
nodes = (
"280 348 LINE",
"280 366 LINE",
"119 366 LINE",
"119 348 LINE"
);
}
);
width = 608;
},
{
anchors = (
{
name = bottomright;
position = "{609, 0}";
},
{
name = top;
position = "{325, 694}";
}
);
layerId = "F333AEC5-BB61-4D5E-9EDD-6124322D28F2";
paths = (
{
closed = 1;
nodes = (
"633 0 LINE",
"375 380 LINE",
"380 358 LINE",
"620 694 LINE",
"532 694 LINE",
"291 361 LINE",
"538 0 LINE"
);
},
{
closed = 1;
nodes = (
"185 0 LINE",
"185 694 LINE",
"103 694 LINE",
"103 0 LINE"
);
},
{
closed = 1;
nodes = (
"341 323 LINE",
"341 395 LINE",
"136 395 LINE",
"136 323 LINE"
);
}
);
width = 655;
},
{
anchors = (
{
name = bottomright;
position = "{554, 0}";
},
{
name = top;
position = "{325, 694}";
}
);
layerId = "51C2DFEF-3776-4D13-9284-96485B799B57";
paths = (
{
closed = 1;
nodes = (
"691 0 LINE",
"466 393 LINE",
"469 360 LINE",
"683 694 LINE",
"493 694 LINE",
"288 363 LINE",
"494 0 LINE"
);
},
{
closed = 1;
nodes = (
"242 0 LINE",
"242 694 LINE",
"67 694 LINE",
"67 0 LINE"
);
},
{
closed = 1;
nodes = (
"344 285 LINE",
"344 437 LINE",
"140 437 LINE",
"140 285 LINE"
);
}
);
width = 681;
}
);
unicode = 041A;
},
{
glyphname = "El-cy";
layers = (
{
layerId = "0B2E441B-685E-400D-9B9B-E078DEED62EF";
paths = (
{
closed = 1;
nodes = (
"198 -6 OFFCURVE",
"229 89 OFFCURVE",
"229 362 CURVE SMOOTH",
"229 675 LINE",
"553 675 LINE",
"553 0 LINE",
"575 0 LINE",
"575 694 LINE",
"207 694 LINE",
"207 369 LINE SMOOTH",
"207 89 OFFCURVE",
"185 14 OFFCURVE",
"106 14 CURVE SMOOTH",
"84 14 OFFCURVE",
"64 20 OFFCURVE",
"47 31 CURVE",
"40 13 LINE",
"57 2 OFFCURVE",
"85 -6 OFFCURVE",
"110 -6 CURVE SMOOTH"
);
}
);
width = 685;
},
{
layerId = "F333AEC5-BB61-4D5E-9EDD-6124322D28F2";
paths = (
{
closed = 1;
nodes = (
"210 -10 OFFCURVE",
"259 75 OFFCURVE",
"259 252 CURVE SMOOTH",
"259 624 LINE",
"531 624 LINE",
"531 0 LINE",
"612 0 LINE",
"612 694 LINE",
"180 694 LINE",
"180 252 LINE SMOOTH",
"180 120 OFFCURVE",
"154 62 OFFCURVE",
"95 62 CURVE SMOOTH",
"74 62 OFFCURVE",
"47 69 OFFCURVE",
"24 83 CURVE",
"2 19 LINE",
"31 1 OFFCURVE",
"71 -10 OFFCURVE",
"108 -10 CURVE SMOOTH"
);
}
);
width = 716;
},
{
layerId = "51C2DFEF-3776-4D13-9284-96485B799B57";
paths = (
{
closed = 1;
nodes = (
"300 -10 OFFCURVE",
"373 86 OFFCURVE",
"373 284 CURVE SMOOTH",
"373 543 LINE",
"561 543 LINE",
"561 0 LINE",
"732 0 LINE",
"732 694 LINE",
"209 694 LINE",
"209 250 LINE SMOOTH",
"209 181 OFFCURVE",
"178 143 OFFCURVE",
"121 143 CURVE SMOOTH",
"99 143 OFFCURVE",
"76 149 OFFCURVE",
"59 160 CURVE",
"13 31 LINE",
"50 4 OFFCURVE",
"92 -10 OFFCURVE",
"150 -10 CURVE SMOOTH"
);
}
);
width = 799;
},
{
associatedMasterId = "0B2E441B-685E-400D-9B9B-E078DEED62EF";
layerId = "4BE66D0F-532F-44F3-B056-E5A3BD412537";
name = "Mar 18 18, 20:43";
paths = (
{
closed = 1;
nodes = (
"166 -4 OFFCURVE",
"208 166 OFFCURVE",
"208 597 CURVE SMOOTH",
"208 694 LINE",
"188 694 LINE",
"188 599 LINE SMOOTH",
"188 192 OFFCURVE",
"148 15 OFFCURVE",
"57 15 CURVE SMOOTH",
"43 15 OFFCURVE",
"22 19 OFFCURVE",
"6 27 CURVE",
"0 10 LINE",
"17 2 OFFCURVE",
"41 -4 OFFCURVE",
"60 -4 CURVE SMOOTH"
);
},
{
closed = 1;
nodes = (
"559 0 LINE",
"559 694 LINE",
"537 694 LINE",
"537 0 LINE"
);
},
{
closed = 1;
nodes = (
"543 675 LINE",
"543 694 LINE",
"202 694 LINE",
"202 675 LINE"
);
}
);
width = 669;
}
);
unicode = 041B;
},
{
glyphname = "Pe-cy";
layers = (
{
anchors = (
{
name = bottomright;
position = "{651, 0}";
}
);
background = {
components = (
{
name = H;
}
);
};
layerId = "0B2E441B-685E-400D-9B9B-E078DEED62EF";
paths = (
{
closed = 1;
nodes = (
"131 0 LINE",
"131 676 LINE",
"540 676 LINE",
"540 0 LINE",
"561 0 LINE",
"561 694 LINE",
"110 694 LINE",
"110 0 LINE"
);
}
);
width = 671;
},
{
anchors = (
{
name = bottomright;
position = "{705, 0}";
}
);
background = {
components = (
{
name = H;
transform = "{1, 0, 0, 1, -2, 0}";
}
);
};
layerId = "F333AEC5-BB61-4D5E-9EDD-6124322D28F2";
paths = (
{
closed = 1;
nodes = (
"185 0 LINE",
"185 624 LINE",
"538 624 LINE",
"538 0 LINE",
"619 0 LINE",
"619 694 LINE",
"104 694 LINE",
"104 0 LINE"
);
}
);
width = 723;
},
{
anchors = (
{
name = bottomright;
position = "{716, 0}";
}
);
background = {
components = (
{
name = H;
}
);
};
layerId = "51C2DFEF-3776-4D13-9284-96485B799B57";
paths = (
{
closed = 1;
nodes = (
"238 0 LINE",
"238 543 LINE",
"498 543 LINE",
"498 0 LINE",
"669 0 LINE",
"669 694 LINE",
"67 694 LINE",
"67 0 LINE"
);
}
);
width = 736;
}
);
unicode = 041F;
},
{
glyphname = "U-cy";
layers = (
{
anchors = (
{
name = top;
position = "{297, 694}";
}
);
layerId = "0B2E441B-685E-400D-9B9B-E078DEED62EF";
paths = (
{
closed = 1;
nodes = (
"190 0 LINE",
"560 694 LINE",
"537 694 LINE",
"313 263 LINE",
"306 253 LINE",
"168 0 LINE"
);
},
{
closed = 1;
nodes = (
"317 263 LINE",
"58 694 LINE",
"33 694 LINE",
"306 245 LINE"
);
}
);
width = 594;
},
{
anchors = (
{
name = top;
position = "{314, 694}";
}
);
layerId = "F333AEC5-BB61-4D5E-9EDD-6124322D28F2";
paths = (
{
closed = 1;
nodes = (
"247 0 LINE",
"606 694 LINE",
"522 694 LINE",
"326 301 LINE",
"297 256 LINE",
"159 0 LINE"
);
},
{
closed = 1;
nodes = (
"354 279 LINE",
"120 694 LINE",
"20 694 LINE",
"316 199 LINE"
);
}
);
width = 627;
},
{
anchors = (
{
name = top;
position = "{327, 694}";
}
);
layerId = "51C2DFEF-3776-4D13-9284-96485B799B57";
paths = (
{
closed = 1;
nodes = (
"314 0 LINE",
"661 694 LINE",
"484 694 LINE",
"331 365 LINE",
"286 301 LINE",
"121 0 LINE"
);
},
{
closed = 1;
nodes = (
"384 332 LINE",
"200 694 LINE",
"-8 694 LINE",
"305 142 LINE"
);
}
);
width = 654;
}
);
unicode = 0423;
},
{
glyphname = "Ef-cy";
layers = (
{
layerId = "0B2E441B-685E-400D-9B9B-E078DEED62EF";
paths = (
{
closed = 1;
nodes = (
"609 86 OFFCURVE",
"734 184 OFFCURVE",
"734 351 CURVE SMOOTH",
"734 517 OFFCURVE",
"610 625 OFFCURVE",
"399 625 CURVE SMOOTH",
"187 625 OFFCURVE",
"62 516 OFFCURVE",
"62 349 CURVE SMOOTH",
"62 184 OFFCURVE",
"186 86 OFFCURVE",
"397 86 CURVE SMOOTH"
);
},
{
closed = 1;
nodes = (
"201 105 OFFCURVE",
"84 196 OFFCURVE",
"84 351 CURVE SMOOTH",
"84 505 OFFCURVE",
"200 606 OFFCURVE",
"397 606 CURVE SMOOTH",
"595 606 OFFCURVE",
"712 504 OFFCURVE",
"712 349 CURVE SMOOTH",
"712 196 OFFCURVE",
"596 105 OFFCURVE",
"400 105 CURVE SMOOTH"
);
},
{
closed = 1;
nodes = (
"407 -20 LINE",
"407 714 LINE",
"386 714 LINE",
"386 -20 LINE"
);
}
);
width = 796;
},
{
layerId = "F333AEC5-BB61-4D5E-9EDD-6124322D28F2";
paths = (
{
closed = 1;
nodes = (
"635 68 OFFCURVE",
"769 173 OFFCURVE",
"769 350 CURVE SMOOTH",
"769 525 OFFCURVE",
"638 628 OFFCURVE",
"416 628 CURVE SMOOTH",
"190 628 OFFCURVE",
"57 522 OFFCURVE",
"57 343 CURVE SMOOTH",
"57 170 OFFCURVE",
"187 68 OFFCURVE",
"407 68 CURVE SMOOTH"
);
},
{
closed = 1;
nodes = (
"244 141 OFFCURVE",
"142 219 OFFCURVE",
"142 350 CURVE SMOOTH",
"142 479 OFFCURVE",
"240 555 OFFCURVE",
"406 555 CURVE SMOOTH",
"581 555 OFFCURVE",
"684 476 OFFCURVE",
"684 343 CURVE SMOOTH",
"684 216 OFFCURVE",
"584 141 OFFCURVE",
"416 141 CURVE SMOOTH"
);
},
{
closed = 1;
nodes = (
"454 -20 LINE",
"454 714 LINE",
"371 714 LINE",
"371 -20 LINE"
);
}
);
width = 826;
},
{
layerId = "51C2DFEF-3776-4D13-9284-96485B799B57";
paths = (
{
closed = 1;
nodes = (
"649 48 OFFCURVE",
"794 161 OFFCURVE",
"794 351 CURVE SMOOTH",
"794 536 OFFCURVE",
"652 646 OFFCURVE",
"412 646 CURVE SMOOTH",
"166 646 OFFCURVE",
"20 534 OFFCURVE",
"20 344 CURVE SMOOTH",
"20 158 OFFCURVE",
"162 48 OFFCURVE",
"403 48 CURVE SMOOTH"
);
},
{
closed = 1;
nodes = (
"273 193 OFFCURVE",
"190 252 OFFCURVE",
"190 351 CURVE SMOOTH",
"190 445 OFFCURVE",
"269 501 OFFCURVE",
"402 501 CURVE SMOOTH",
"542 501 OFFCURVE",
"624 442 OFFCURVE",
"624 343 CURVE SMOOTH",
"624 249 OFFCURVE",
"546 193 OFFCURVE",
"413 193 CURVE SMOOTH"
);
},
{
closed = 1;
nodes = (
"492 -20 LINE",
"492 714 LINE",
"322 714 LINE",
"322 -20 LINE"
);
}
);
width = 814;
}
);
unicode = 0424;
},
{
glyphname = "Che-cy";
layers = (
{
anchors = (
{
name = bottomright;
position = "{532, 0}";
},
{
name = top;
position = "{309, 694}";
}
);
layerId = "0B2E441B-685E-400D-9B9B-E078DEED62EF";
paths = (
{
closed = 1;
nodes = (
"365 263 OFFCURVE",
"453 292 OFFCURVE",
"503 329 CURVE",
"493 340 LINE",
"449 309 OFFCURVE",
"362 281 OFFCURVE",
"278 281 CURVE SMOOTH",
"162 281 OFFCURVE",
"94 338 OFFCURVE",
"94 435 CURVE SMOOTH",
"94 694 LINE",
"73 694 LINE",
"73 435 LINE SMOOTH",
"73 328 OFFCURVE",
"146 263 OFFCURVE",
"276 263 CURVE SMOOTH"
);
},
{
closed = 1;
nodes = (
"506 0 LINE",
"506 694 LINE",
"485 694 LINE",
"485 0 LINE"
);
}
);
width = 616;
},
{
anchors = (
{
name = bottomright;
position = "{579, 0}";
},
{
name = top;
position = "{330, 694}";
}
);
layerId = "F333AEC5-BB61-4D5E-9EDD-6124322D28F2";
paths = (
{
closed = 1;
nodes = (
"356 252 OFFCURVE",
"447 278 OFFCURVE",
"509 331 CURVE",
"492 383 LINE",
"448 350 OFFCURVE",
"377 323 OFFCURVE",
"302 323 CURVE SMOOTH",
"209 323 OFFCURVE",
"150 367 OFFCURVE",
"150 445 CURVE SMOOTH",
"150 694 LINE",
"68 694 LINE",
"68 428 LINE SMOOTH",
"68 321 OFFCURVE",
"153 252 OFFCURVE",
"280 252 CURVE SMOOTH"
);
},
{
closed = 1;
nodes = (
"553 0 LINE",
"553 694 LINE",
"471 694 LINE",
"471 0 LINE"
);
}
);
width = 657;
},
{
anchors = (
{
name = bottomright;
position = "{554, 0}";
},
{
name = top;
position = "{328, 694}";
}
);
layerId = "51C2DFEF-3776-4D13-9284-96485B799B57";
paths = (
{
closed = 1;
nodes = (
"327 239 OFFCURVE",
"410 270 OFFCURVE",
"460 318 CURVE",
"439 421 LINE",
"399 400 OFFCURVE",
"351 389 OFFCURVE",
"307 389 CURVE SMOOTH",
"240 389 OFFCURVE",
"202 415 OFFCURVE",
"202 470 CURVE SMOOTH",
"202 694 LINE",
"30 694 LINE",
"30 441 LINE SMOOTH",
"30 314 OFFCURVE",
"116 239 OFFCURVE",
"246 239 CURVE SMOOTH"
);
},
{
closed = 1;
nodes = (
"587 0 LINE",
"587 694 LINE",
"417 694 LINE",
"417 0 LINE"
);
}
);
width = 654;
}
);
unicode = 0427;
},
{
glyphname = "Tse-cy";
layers = (
{
background = {
components = (
{
name = H;
}
);
};
layerId = "0B2E441B-685E-400D-9B9B-E078DEED62EF";
paths = (
{
closed = 1;
nodes = (
"648 -175 LINE",
"648 19 LINE",
"132 19 LINE",
"132 694 LINE",
"110 694 LINE",
"110 0 LINE",
"627 0 LINE",
"627 -175 LINE"
);
},
{
closed = 1;
nodes = (
"560 10 LINE",
"560 694 LINE",
"539 694 LINE",
"539 10 LINE"
);
}
);
width = 687;
},
{
background = {
components = (
{
name = H;
transform = "{1, 0, 0, 1, -2, 0}";
}
);
};
layerId = "F333AEC5-BB61-4D5E-9EDD-6124322D28F2";
paths = (
{
closed = 1;
nodes = (
"725 -178 LINE",
"725 71 LINE",
"186 71 LINE",
"186 694 LINE",
"104 694 LINE",
"104 0 LINE",
"650 0 LINE",
"650 -178 LINE"
);
},
{
closed = 1;
nodes = (
"609 30 LINE",
"609 694 LINE",
"527 694 LINE",
"527 30 LINE"
);
}
);
width = 764;
},
{
background = {
components = (
{
name = H;
}
);
};
layerId = "51C2DFEF-3776-4D13-9284-96485B799B57";
paths = (
{
closed = 1;
nodes = (
"789 -187 LINE",
"789 151 LINE",
"238 151 LINE",
"238 694 LINE",
"67 694 LINE",
"67 0 LINE",
"627 0 LINE",
"627 -187 LINE"
);
},
{
closed = 1;
nodes = (
"656 72 LINE",
"656 694 LINE",
"485 694 LINE",
"485 72 LINE"
);
}
);
width = 799;
}
);
unicode = 0426;
},
{
glyphname = "Sha-cy";
layers = (
{
background = {
components = (
{
name = "Tse-cy";
transform = "{1, 0, 0, 1, -20, 0}";
}
);
};
layerId = "0B2E441B-685E-400D-9B9B-E078DEED62EF";
paths = (
{
closed = 1;
nodes = (
"844 0 LINE",
"844 694 LINE",
"822 694 LINE",
"822 19 LINE",
"132 19 LINE",
"132 694 LINE",
"110 694 LINE",
"110 0 LINE"
);
},
{
closed = 1;
nodes = (
"496 10 LINE",
"496 694 LINE",
"474 694 LINE",
"474 10 LINE"
);
}
);
width = 954;
},
{
background = {
components = (
{
name = "Tse-cy";
transform = "{1, 0, 0, 1, -22, 0}";
}
);
};
layerId = "F333AEC5-BB61-4D5E-9EDD-6124322D28F2";
paths = (
{
closed = 1;
nodes = (
"918 0 LINE",
"918 694 LINE",
"836 694 LINE",
"836 71 LINE",
"186 71 LINE",
"186 694 LINE",
"104 694 LINE",
"104 0 LINE"
);
},
{
closed = 1;
nodes = (
"552 30 LINE",
"552 694 LINE",
"470 694 LINE",
"470 30 LINE"
);
}
);
width = 1022;
},
{
background = {
components = (
{
name = "Tse-cy";
transform = "{1, 0, 0, 1, -20, 0}";
}
);
};
layerId = "51C2DFEF-3776-4D13-9284-96485B799B57";
paths = (
{
closed = 1;
nodes = (
"998 0 LINE",
"998 694 LINE",
"827 694 LINE",
"827 151 LINE",
"238 151 LINE",
"238 694 LINE",
"67 694 LINE",
"67 0 LINE"
);
},
{
closed = 1;
nodes = (
"618 62 LINE",
"618 694 LINE",
"447 694 LINE",
"447 62 LINE"
);
}
);
width = 1065;
}
);
unicode = 0428;
},
{
glyphname = "Shcha-cy";
layers = (
{
background = {
components = (
{
name = "Sha-cy";
transform = "{1, 0, 0, 1, -20, 0}";
}
);
};
layerId = "0B2E441B-685E-400D-9B9B-E078DEED62EF";
paths = (
{
closed = 1;
nodes = (
"932 -175 LINE",
"932 19 LINE",
"132 19 LINE",
"132 694 LINE",
"110 694 LINE",
"110 0 LINE",
"911 0 LINE",
"911 -175 LINE"
);
},
{
closed = 1;
nodes = (
"496 10 LINE",
"496 694 LINE",
"474 694 LINE",
"474 10 LINE"
);
},
{
closed = 1;
nodes = (
"844 10 LINE",
"844 694 LINE",
"822 694 LINE",
"822 10 LINE"
);
}
);
width = 976;
},
{
background = {
components = (
{
name = "Sha-cy";
transform = "{1, 0, 0, 1, -22, 0}";
}
);
};
layerId = "F333AEC5-BB61-4D5E-9EDD-6124322D28F2";
paths = (
{
closed = 1;
nodes = (
"1029 -178 LINE",
"1029 71 LINE",
"186 71 LINE",
"186 694 LINE",
"104 694 LINE",
"104 0 LINE",
"953 0 LINE",
"953 -178 LINE"
);
},
{
closed = 1;
nodes = (
"552 30 LINE",
"552 694 LINE",
"470 694 LINE",
"470 30 LINE"
);
},
{
closed = 1;
nodes = (
"918 30 LINE",
"918 694 LINE",
"836 694 LINE",
"836 30 LINE"
);
}
);
width = 1068;
},
{
background = {
components = (
{
name = "Sha-cy";
transform = "{1, 0, 0, 1, -20, 0}";
}
);
};
layerId = "51C2DFEF-3776-4D13-9284-96485B799B57";
paths = (
{
closed = 1;
nodes = (
"1131 -187 LINE",
"1131 151 LINE",
"237 151 LINE",
"237 694 LINE",
"67 694 LINE",
"67 0 LINE",
"969 0 LINE",
"969 -187 LINE"
);
},
{
closed = 1;
nodes = (
"617 72 LINE",
"617 694 LINE",
"447 694 LINE",
"447 72 LINE"
);
},
{
closed = 1;
nodes = (
"998 72 LINE",
"998 694 LINE",
"828 694 LINE",
"828 72 LINE"
);
}
);
width = 1141;
}
);
unicode = 0429;
},
{
glyphname = "Dzhe-cy";
layers = (
{
layerId = "0B2E441B-685E-400D-9B9B-E078DEED62EF";
paths = (
{
closed = 1;
nodes = (
"366 -175 LINE",
"366 0 LINE",
"590 0 LINE",
"590 694 LINE",
"569 694 LINE",
"569 19 LINE",
"132 19 LINE",
"132 694 LINE",
"110 694 LINE",
"110 0 LINE",
"345 0 LINE",
"345 -175 LINE"
);
}
);
width = 700;
},
{
layerId = "F333AEC5-BB61-4D5E-9EDD-6124322D28F2";
paths = (
{
closed = 1;
nodes = (
"416 -187 LINE",
"416 0 LINE",
"643 0 LINE",
"643 694 LINE",
"561 694 LINE",
"561 71 LINE",
"186 71 LINE",
"186 694 LINE",
"104 694 LINE",
"104 0 LINE",
"341 0 LINE",
"341 -187 LINE"
);
}
);
width = 747;
},
{
layerId = "51C2DFEF-3776-4D13-9284-96485B799B57";
paths = (
{
closed = 1;
nodes = (
"464 -187 LINE",
"464 0 LINE",
"689 0 LINE",
"689 694 LINE",
"518 694 LINE",
"518 151 LINE",
"238 151 LINE",
"238 694 LINE",
"67 694 LINE",
"67 0 LINE",
"302 0 LINE",
"302 -187 LINE"
);
}
);
width = 756;
}
);
unicode = 040F;
},
{
glyphname = "Softsign-cy";
layers = (
{
layerId = "0B2E441B-685E-400D-9B9B-E078DEED62EF";
paths = (
{
closed = 1;
nodes = (
"312 0 LINE SMOOTH",
"453 0 OFFCURVE",
"537 74 OFFCURVE",
"537 200 CURVE SMOOTH",
"537 322 OFFCURVE",
"460 403 OFFCURVE",
"345 403 CURVE SMOOTH",
"124 403 LINE",
"124 386 LINE",
"335 386 LINE SMOOTH",
"443 386 OFFCURVE",
"515 310 OFFCURVE",
"515 195 CURVE SMOOTH",
"515 84 OFFCURVE",
"444 18 OFFCURVE",
"323 18 CURVE SMOOTH",
"132 18 LINE",
"132 694 LINE",
"110 694 LINE",
"110 0 LINE"
);
}
);
width = 597;
},
{
layerId = "F333AEC5-BB61-4D5E-9EDD-6124322D28F2";
paths = (
{
closed = 1;
nodes = (
"334 0 LINE SMOOTH",
"485 0 OFFCURVE",
"585 85 OFFCURVE",
"585 217 CURVE SMOOTH",
"585 339 OFFCURVE",
"493 427 OFFCURVE",
"366 427 CURVE SMOOTH",
"153 427 LINE",
"153 355 LINE",
"357 355 LINE SMOOTH",
"440 355 OFFCURVE",
"500 289 OFFCURVE",
"500 200 CURVE SMOOTH",
"500 115 OFFCURVE",
"446 72 OFFCURVE",
"344 72 CURVE SMOOTH",
"187 72 LINE",
"187 694 LINE",
"104 694 LINE",
"104 0 LINE"
);
}
);
width = 638;
},
{
layerId = "51C2DFEF-3776-4D13-9284-96485B799B57";
paths = (
{
closed = 1;
nodes = (
"331 0 LINE SMOOTH",
"513 0 OFFCURVE",
"622 90 OFFCURVE",
"622 241 CURVE SMOOTH",
"622 369 OFFCURVE",
"525 454 OFFCURVE",
"382 454 CURVE SMOOTH",
"180 454 LINE",
"180 322 LINE",
"344 322 LINE SMOOTH",
"403 322 OFFCURVE",
"442 283 OFFCURVE",
"442 224 CURVE SMOOTH",
"442 169 OFFCURVE",
"409 136 OFFCURVE",
"354 136 CURVE SMOOTH",
"237 136 LINE",
"237 694 LINE",
"67 694 LINE",
"67 0 LINE"
);
}
);
width = 638;
}
);
unicode = 042C;
},
{
glyphname = "Hardsign-cy";
layers = (
{
anchors = (
{
name = top;
position = "{355, 694}";
}
);
layerId = "0B2E441B-685E-400D-9B9B-E078DEED62EF";
paths = (
{
closed = 1;
nodes = (
"428 0 LINE SMOOTH",
"567 0 OFFCURVE",
"649 74 OFFCURVE",
"649 200 CURVE SMOOTH",
"649 322 OFFCURVE",
"574 403 OFFCURVE",
"461 403 CURVE SMOOTH",
"245 403 LINE",
"245 386 LINE",
"451 386 LINE SMOOTH",
"557 386 OFFCURVE",
"627 310 OFFCURVE",
"627 195 CURVE SMOOTH",
"627 84 OFFCURVE",
"557 18 OFFCURVE",
"439 18 CURVE SMOOTH",
"253 18 LINE",
"253 694 LINE",
"39 694 LINE",
"39 676 LINE",
"231 676 LINE",
"231 0 LINE"
);
}
);
width = 709;
},
{
anchors = (
{
name = top;
position = "{373, 694}";
}
);
layerId = "F333AEC5-BB61-4D5E-9EDD-6124322D28F2";
paths = (
{
closed = 1;
nodes = (
"443 0 LINE SMOOTH",
"592 0 OFFCURVE",
"690 85 OFFCURVE",
"690 217 CURVE SMOOTH",
"690 339 OFFCURVE",
"600 427 OFFCURVE",
"476 427 CURVE SMOOTH",
"268 427 LINE",
"268 355 LINE",
"466 355 LINE SMOOTH",
"546 355 OFFCURVE",
"605 290 OFFCURVE",
"605 200 CURVE SMOOTH",
"605 115 OFFCURVE",
"553 72 OFFCURVE",
"453 72 CURVE SMOOTH",
"301 72 LINE",
"301 694 LINE",
"39 694 LINE",
"39 622 LINE",
"218 622 LINE",
"218 0 LINE"
);
}
);
width = 743;
},
{
anchors = (
{
name = top;
position = "{376, 694}";
}
);
layerId = "51C2DFEF-3776-4D13-9284-96485B799B57";
paths = (
{
closed = 1;
nodes = (
"444 0 LINE SMOOTH",
"622 0 OFFCURVE",
"727 90 OFFCURVE",
"727 242 CURVE SMOOTH",
"727 369 OFFCURVE",
"634 454 OFFCURVE",
"495 454 CURVE SMOOTH",
"300 454 LINE",
"300 322 LINE",
"456 322 LINE SMOOTH",
"510 322 OFFCURVE",
"547 283 OFFCURVE",
"547 225 CURVE SMOOTH",
"547 169 OFFCURVE",
"517 136 OFFCURVE",
"467 136 CURVE SMOOTH",
"357 136 LINE",
"357 694 LINE",
"10 694 LINE",
"10 543 LINE",
"187 543 LINE",
"187 0 LINE"
);
}
);
width = 744;
}
);
unicode = 042A;
},
{
glyphname = "Yeru-cy";
layers = (
{
anchors = (
{
name = top;
position = "{399, 694}";
}
);
layerId = "0B2E441B-685E-400D-9B9B-E078DEED62EF";
paths = (
{
closed = 1;
nodes = (
"294 0 LINE SMOOTH",
"437 0 OFFCURVE",
"522 74 OFFCURVE",
"522 200 CURVE SMOOTH",
"522 322 OFFCURVE",
"444 403 OFFCURVE",
"328 403 CURVE SMOOTH",
"124 403 LINE",
"124 386 LINE",
"318 386 LINE SMOOTH",
"427 386 OFFCURVE",
"500 310 OFFCURVE",
"500 195 CURVE SMOOTH",
"500 84 OFFCURVE",
"428 18 OFFCURVE",
"305 18 CURVE SMOOTH",
"132 18 LINE",
"132 694 LINE",
"110 694 LINE",
"110 0 LINE"
);
},
{
closed = 1;
nodes = (
"677 0 LINE",
"677 694 LINE",
"656 694 LINE",
"656 0 LINE"
);
}
);
width = 787;
},
{
anchors = (
{
name = top;
position = "{436, 694}";
}
);
layerId = "F333AEC5-BB61-4D5E-9EDD-6124322D28F2";
paths = (
{
closed = 1;
nodes = (
"316 0 LINE SMOOTH",
"470 0 OFFCURVE",
"570 85 OFFCURVE",
"570 217 CURVE SMOOTH",
"570 339 OFFCURVE",
"477 427 OFFCURVE",
"349 427 CURVE SMOOTH",
"153 427 LINE",
"153 355 LINE",
"340 355 LINE SMOOTH",
"424 355 OFFCURVE",
"485 290 OFFCURVE",
"485 200 CURVE SMOOTH",
"485 115 OFFCURVE",
"431 72 OFFCURVE",
"326 72 CURVE SMOOTH",
"187 72 LINE",
"187 694 LINE",
"104 694 LINE",
"104 0 LINE"
);
},
{
closed = 1;
nodes = (
"757 0 LINE",
"757 694 LINE",
"674 694 LINE",
"674 0 LINE"
);
}
);
width = 861;
},
{
anchors = (
{
name = top;
position = "{464, 694}";
}
);
layerId = "51C2DFEF-3776-4D13-9284-96485B799B57";
paths = (
{
closed = 1;
nodes = (
"311 0 LINE SMOOTH",
"494 0 OFFCURVE",
"602 90 OFFCURVE",
"602 242 CURVE SMOOTH",
"602 369 OFFCURVE",
"506 454 OFFCURVE",
"362 454 CURVE SMOOTH",
"180 454 LINE",
"180 322 LINE",
"324 322 LINE SMOOTH",
"383 322 OFFCURVE",
"422 283 OFFCURVE",
"422 225 CURVE SMOOTH",
"422 169 OFFCURVE",
"389 136 OFFCURVE",
"334 136 CURVE SMOOTH",
"237 136 LINE",
"237 694 LINE",
"67 694 LINE",
"67 0 LINE"
);
},
{
closed = 1;
nodes = (
"840 -3 LINE",
"840 691 LINE",
"664 691 LINE",
"664 -3 LINE"
);
}
);
width = 907;
}
);
unicode = 042B;
},
{
glyphname = "Lje-cy";
layers = (
{
layerId = "0B2E441B-685E-400D-9B9B-E078DEED62EF";
paths = (
{
closed = 1;
nodes = (
"762 0 LINE SMOOTH",
"905 0 OFFCURVE",
"990 73 OFFCURVE",
"990 200 CURVE SMOOTH",
"990 322 OFFCURVE",
"912 403 OFFCURVE",
"796 403 CURVE SMOOTH",
"572 403 LINE",
"572 386 LINE",
"786 386 LINE SMOOTH",
"893 386 OFFCURVE",
"968 312 OFFCURVE",
"968 195 CURVE SMOOTH",
"968 82 OFFCURVE",
"898 18 OFFCURVE",
"773 18 CURVE SMOOTH",
"567 18 LINE",
"567 0 LINE"
);
},
{
closed = 1;
nodes = (
"198 -6 OFFCURVE",
"229 89 OFFCURVE",
"229 362 CURVE SMOOTH",
"229 675 LINE",
"553 675 LINE",
"553 0 LINE",
"575 0 LINE",
"575 694 LINE",
"207 694 LINE",
"207 369 LINE SMOOTH",
"207 89 OFFCURVE",
"185 14 OFFCURVE",
"106 14 CURVE SMOOTH",
"84 14 OFFCURVE",
"64 20 OFFCURVE",
"47 31 CURVE",
"40 13 LINE",
"57 2 OFFCURVE",
"85 -6 OFFCURVE",
"110 -6 CURVE SMOOTH"
);
}
);
width = 1049;
},
{
layerId = "F333AEC5-BB61-4D5E-9EDD-6124322D28F2";
paths = (
{
closed = 1;
nodes = (
"763 0 LINE SMOOTH",
"917 0 OFFCURVE",
"1017 85 OFFCURVE",
"1017 217 CURVE SMOOTH",
"1017 339 OFFCURVE",
"924 427 OFFCURVE",
"796 427 CURVE SMOOTH",
"580 427 LINE",
"580 355 LINE",
"787 355 LINE SMOOTH",
"871 355 OFFCURVE",
"932 290 OFFCURVE",
"932 200 CURVE SMOOTH",
"932 115 OFFCURVE",
"878 72 OFFCURVE",
"773 72 CURVE SMOOTH",
"578 72 LINE",
"578 0 LINE"
);
},
{
closed = 1;
nodes = (
"210 -10 OFFCURVE",
"259 75 OFFCURVE",
"259 252 CURVE SMOOTH",
"259 624 LINE",
"531 624 LINE",
"531 0 LINE",
"612 0 LINE",
"612 694 LINE",
"180 694 LINE",
"180 252 LINE SMOOTH",
"180 120 OFFCURVE",
"154 62 OFFCURVE",
"95 62 CURVE SMOOTH",
"74 62 OFFCURVE",
"47 69 OFFCURVE",
"24 83 CURVE",
"2 19 LINE",
"31 1 OFFCURVE",
"71 -10 OFFCURVE",
"108 -10 CURVE SMOOTH"
);
}
);
width = 1070;
},
{
layerId = "51C2DFEF-3776-4D13-9284-96485B799B57";
paths = (
{
closed = 1;
nodes = (
"825 0 LINE SMOOTH",
"996 0 OFFCURVE",
"1116 98 OFFCURVE",
"1116 237 CURVE SMOOTH",
"1116 364 OFFCURVE",
"1023 444 OFFCURVE",
"876 444 CURVE SMOOTH",
"674 444 LINE",
"674 312 LINE",
"838 312 LINE SMOOTH",
"896 312 OFFCURVE",
"936 274 OFFCURVE",
"936 220 CURVE SMOOTH",
"936 168 OFFCURVE",
"903 136 OFFCURVE",
"848 136 CURVE SMOOTH",
"661 136 LINE",
"661 0 LINE"
);
},
{
closed = 1;
nodes = (
"300 -10 OFFCURVE",
"373 86 OFFCURVE",
"373 284 CURVE SMOOTH",
"373 543 LINE",
"561 543 LINE",
"561 0 LINE",
"732 0 LINE",
"732 694 LINE",
"209 694 LINE",
"209 250 LINE SMOOTH",
"209 181 OFFCURVE",
"178 143 OFFCURVE",
"121 143 CURVE SMOOTH",
"99 143 OFFCURVE",
"76 149 OFFCURVE",
"59 160 CURVE",
"13 31 LINE",
"50 4 OFFCURVE",
"92 -10 OFFCURVE",
"150 -10 CURVE SMOOTH"
);
}
);
width = 1131;
}
);
leftMetricsKey = "El-cy";
unicode = 0409;
},
{
glyphname = "Nje-cy";
layers = (
{
layerId = "0B2E441B-685E-400D-9B9B-E078DEED62EF";
paths = (
{
closed = 1;
nodes = (
"777 0 LINE SMOOTH",
"920 0 OFFCURVE",
"1005 73 OFFCURVE",
"1005 200 CURVE SMOOTH",
"1005 322 OFFCURVE",
"927 403 OFFCURVE",
"811 403 CURVE SMOOTH",
"587 403 LINE",
"587 386 LINE",
"801 386 LINE SMOOTH",
"908 386 OFFCURVE",
"983 312 OFFCURVE",
"983 195 CURVE SMOOTH",
"983 82 OFFCURVE",
"913 18 OFFCURVE",
"788 18 CURVE SMOOTH",
"582 18 LINE",
"582 0 LINE"
);
},
{
closed = 1;
nodes = (
"132 0 LINE",
"132 694 LINE",
"110 694 LINE",
"110 0 LINE"
);
},
{
closed = 1;
nodes = (
"576 352 LINE",
"576 371 LINE",
"125 371 LINE",
"125 352 LINE"
);
},
{
closed = 1;
nodes = (
"592 0 LINE",
"592 694 LINE",
"570 694 LINE",
"570 0 LINE"
);
}
);
width = 1064;
},
{
layerId = "F333AEC5-BB61-4D5E-9EDD-6124322D28F2";
paths = (
{
closed = 1;
nodes = (
"786 0 LINE SMOOTH",
"940 0 OFFCURVE",
"1040 85 OFFCURVE",
"1040 217 CURVE SMOOTH",
"1040 339 OFFCURVE",
"947 427 OFFCURVE",
"819 427 CURVE SMOOTH",
"593 427 LINE",
"593 355 LINE",
"810 355 LINE SMOOTH",
"894 355 OFFCURVE",
"955 290 OFFCURVE",
"955 200 CURVE SMOOTH",
"955 115 OFFCURVE",
"901 72 OFFCURVE",
"796 72 CURVE SMOOTH",
"601 72 LINE",
"601 0 LINE"
);
},
{
closed = 1;
nodes = (
"187 0 LINE",
"187 694 LINE",
"104 694 LINE",
"104 0 LINE"
);
},
{
closed = 1;
nodes = (
"606 323 LINE",
"606 395 LINE",
"136 395 LINE",
"136 323 LINE"
);
},
{
closed = 1;
nodes = (
"641 0 LINE",
"641 694 LINE",
"558 694 LINE",
"558 0 LINE"
);
}
);
width = 1093;
},
{
layerId = "51C2DFEF-3776-4D13-9284-96485B799B57";
paths = (
{
closed = 1;
nodes = (
"776 0 LINE SMOOTH",
"947 0 OFFCURVE",
"1067 98 OFFCURVE",
"1067 237 CURVE SMOOTH",
"1067 364 OFFCURVE",
"974 444 OFFCURVE",
"827 444 CURVE SMOOTH",
"625 444 LINE",
"625 312 LINE",
"789 312 LINE SMOOTH",
"847 312 OFFCURVE",
"887 274 OFFCURVE",
"887 220 CURVE SMOOTH",
"887 168 OFFCURVE",
"854 136 OFFCURVE",
"799 136 CURVE SMOOTH",
"647 136 LINE",
"647 0 LINE"
);
},
{
closed = 1;
nodes = (
"243 0 LINE",
"243 694 LINE",
"67 694 LINE",
"67 0 LINE"
);
},
{
closed = 1;
nodes = (
"532 274 LINE",
"532 430 LINE",
"222 430 LINE",
"222 274 LINE"
);
},
{
closed = 1;
nodes = (
"688 0 LINE",
"688 694 LINE",
"512 694 LINE",
"512 0 LINE"
);
}
);
width = 1082;
}
);
unicode = 040A;
},
